<?xml version="1.0" encoding="UTF-8"?>
<svg id="Layer_1" xmlns="http://www.w3.org/2000/svg" version="1.1" viewBox="0 0 481.81 298.63">
  <!-- Generator: Adobe Illustrator 29.8.3, SVG Export Plug-In . SVG Version: 2.1.1 Build 3)  -->
  <defs>
    <style>
      .st0 {
        fill: #ce312b;
      }

      .st1 {
        fill: #1b2a56;
      }

      .st2 {
        fill: #f0a120;
      }
    </style>
  </defs>
  <path class="st1" d="M41.73,155.69c15.46-17.65,33.21-41.1,73.38-51.7l-1.17-5.11c-13.68,1.5-34.66,7.16-41.98,12.8l11.03-13.23,36.86-45.4,8.35,109.08,28.43.03-5.98-65.41-6.75-71.52-29.13,10.61-14.47,16.7-30.48,38.11-10.42,12.97-47.27,58.75h24.24s1.77-2.43,5.37-6.67"/>
  <path class="st0" d="M250.39,277.63c-93.11,13.42-206.62-7.03-213.9-67.86-4.1-34.29,23.13-63.86,61.28-86.1-47.76,23.21-75.24,58.68-71.76,90.92,5.79,53.6,99.89,80.67,209.94,68.34,51.63-5.78,107.46-25.68,141.16-45.32-31.65,15.38-83.02,33.72-126.71,40.01"/>
  <path class="st1" d="M289.49,103.15c-.73,2.2-2.96,8.25-2.96,8.25l-6.69,19.77c-4.14,11.75-13.44,21.49-27.49,21.49-8.97,0-13.17-6.41-10.36-14.36,8.2-18.36,30.51-25.43,37.01-26.93-.59-3.02-.89-4.85-.89-4.85-29.03,4.7-60.84,22.08-65.41,35.01-3.59,10.19,7.33,22.53,26.24,22.53s27.54-7.63,33.18-11.26l-3.08,9.43,28.17-.03,18.78-54.32c1.73-4.89,3.08-11.28,3.22-14.54.14-3.26-2.32-8.38-2.32-8.38-3.99-6.3-13.47-10.21-31.25-10.21-34.91,0-50.81,12.44-57.63,27.81h33.32c3.19-8.77,4.96-17.99,20.96-17.99,9.52,0,10.9,5.29,10.02,8.45-.15,2.1-2.08,7.95-2.81,10.14"/>
  <path class="st1" d="M327.2,82.6c13.26,1.61,14.64,3.88,20.31,13.61l12.61,22.01-59.95,44.17h21.55l44.58-33.17,19.35,33.32,33.22.22-28.64-45.86,56.6-39.35h-22.14l-40.63,28.35-16.47-28.55h-28.3l-13.05.31.97,4.93Z"/>
  <path class="st1" d="M118.65,240.03c.22.16,2.1.48,3.29.55,22.93,1.32,44.1-17.75,50.79-28.39,5.98-9.53,9.19-19.7,16.28-39.26,5.62-15.05,35.15-99.55,35.15-99.55l-50.44,7.11.93,4.81c9.93-.26,14.36,8.17,9.6,22.45,0,0-29.96,85.27-33.54,94.83-3.58,9.55-13.34,29.41-32.06,37.46"/>
  <path class="st1" d="M234.55,40.43c2.33-10.7-2.75-19.45-11.31-19.54-8.58-.09-17.42,8.53-19.74,19.23-2.33,10.71,2.74,19.45,11.31,19.54,8.58.08,17.41-8.53,19.74-19.24"/>
  <path class="st2" d="M264.18,262.48c-104.96,12.98-194.95-17.59-201-68.28-3.22-26.91,17.89-54.09,54.09-75.6-45.38,22.55-72.94,53.38-69.31,83.86,6.05,50.69,96.04,81.26,201,68.28,49.24-6.09,93.02-20.69,125.01-39.7-30.07,14.95-67.96,26.27-109.79,31.44"/>
  <path class="st1" d="M271.67,36.78h-1.34s.01-.27.03-.71c.02-.44.07-1.5.17-3.2.04-.62-.13-.99-.52-1.14-.4-.15-1.17-.22-2.33-.22h-4.29c-.02.08-.08.32-.21.72-.13.4-.2.65-.23.75-.15.56-.38,1.36-.69,2.41-.31,1.06-.57,1.94-.78,2.65-.21.71-.46,1.57-.74,2.57-.28,1.01-.52,1.84-.71,2.51-1.49,5.31-2.38,8.54-2.68,9.69-.05.16-.08.39-.08.66,0,.24.08.39.24.47.26.16,1.19.36,2.77.59.57.12.9.19,1.01.19l-.31,1.1c-.62-.05-1.48-.1-2.58-.15-1.3-.05-2.33-.07-3.13-.07-1.27,0-3.41.07-6.44.22l.31-1.1s.1-.01.17-.03c.07-.02.14-.03.23-.05.08-.01.18-.03.28-.04.11-.02.18-.03.22-.03,1.65-.27,2.63-.52,2.94-.74.56-.46,1.25-2.22,2.09-5.26.09-.38.44-1.55,1.06-3.5.12-.4.23-.79.35-1.18.12-.39.21-.69.26-.92l1.73-5.94c.58-1.99,1.11-3.83,1.58-5.52h-4.28c-.92,0-1.59.05-2.03.14-.43.09-.8.32-1.1.66-.29.35-.62.94-.97,1.78l-1.12,2.68h-1.37c.66-2.41,1.2-4.83,1.64-7.24.48,0,.92,0,1.32.02.4,0,.94.02,1.61.04.67,0,1.51.03,2.53.05,2.3.08,4.08.11,5.32.11.8,0,2.67-.03,5.62-.08l6.29-.15c-.48,1.51-.82,2.7-1.01,3.56-.15.7-.31,1.42-.48,2.15-.17.73-.28,1.24-.34,1.54"/>
  <path class="st1" d="M271.09,49.75c0,1.1.23,2.15.68,3.13.46.99,1.31,1.48,2.56,1.48,1.11,0,2.12-.48,3.03-1.44.92-.96,1.64-2.22,2.18-3.77.54-1.55.8-3.13.8-4.74,0-1.04-.18-2.08-.54-3.12-.37-1.05-1.21-1.57-2.5-1.57-1.12,0-2.16.56-3.1,1.66-.95,1.11-1.7,2.46-2.26,4.06-.56,1.6-.84,3.03-.84,4.31M268.04,50.04c0-1.63.33-3.19.99-4.67.66-1.47,1.53-2.76,2.62-3.86,1.08-1.1,2.24-1.94,3.48-2.53,1.23-.59,2.39-.88,3.46-.88,1.29,0,2.28.38,2.99,1.12.71.75,1.18,1.6,1.42,2.55.24.95.36,1.83.36,2.64,0,1.61-.33,3.11-.96,4.52-.64,1.41-1.5,2.67-2.58,3.76-1.09,1.1-2.25,1.94-3.51,2.54-1.26.59-2.45.89-3.57.89-1.63,0-2.82-.63-3.57-1.89-.75-1.25-1.12-2.65-1.12-4.18"/>
  <path class="st1" d="M286.09,43.08l-.81-.8c.18-.17.5-.51.97-1,.48-.49,1.01-.98,1.58-1.48.57-.5,1.11-.91,1.6-1.23.49-.32.89-.48,1.2-.48.64,0,1.06.57,1.23,1.69.18,1.13.27,2.6.27,4.41,0,1.08-.02,2.14-.05,3.16-.04,1.02-.07,1.71-.1,2.05l-.08,1.28.08.08c.47-.74.81-1.26,1.03-1.57.21-.33.51-.79.9-1.38.4-.59,1.09-1.65,2.07-3.16.36-.55.76-1.17,1.19-1.85.43-.68.79-1.23,1.07-1.67.28-.44.59-.9.92-1.4.33-.5.71-1.05,1.12-1.65h1.2l-.15,6.97c-.03,1.06-.05,2.29-.07,3.7-.03,1.4-.05,2.6-.08,3.61l.08.08c2.35-2.75,4.04-4.89,5.11-6.42,1.05-1.54,1.58-2.8,1.58-3.82,0-.51-.14-.89-.43-1.16-.28-.26-.61-.37-.99-.35l-.18-.34c.46-.4.84-.76,1.15-1.07.32-.32.67-.71,1.08-1.2.48.11.86.34,1.14.66.28.33.49.71.62,1.12.13.42.2.79.2,1.11,0,.77-.17,1.54-.51,2.28-.34.73-.81,1.53-1.4,2.38-.49.71-1.26,1.69-2.29,2.92-1.03,1.24-2,2.36-2.89,3.38-.9,1.02-1.75,1.95-2.53,2.78-.78.83-1.22,1.29-1.3,1.38h-1.13l.28-12.94-.09-.09c-.83,1.28-1.89,2.92-3.2,4.91l-4.85,7.24c-.28.33-.48.62-.59.89h-1.14c.36-3.48.55-6.92.55-10.34,0-1.21-.05-2.29-.16-3.24-.1-.95-.33-1.43-.66-1.43s-1.02.52-2.1,1.56c-.2.24-.35.38-.44.42"/>
  <path class="st1" d="M328.45,51.06l.74.77c-1.24,1.14-2.45,2.14-3.62,3-1.18.85-2.22,1.28-3.13,1.28-.36,0-.63-.11-.8-.32-.18-.22-.27-.45-.27-.69,0-.44.15-1.13.45-2.09.3-.96.82-2.47,1.55-4.54.73-2.07,1.26-3.64,1.61-4.7.35-1.06.52-1.84.52-2.31,0-.22-.05-.4-.16-.53-.11-.13-.25-.2-.41-.2-.32,0-.77.17-1.35.52-.58.34-1.2.81-1.87,1.38-.66.58-1.42,1.32-2.27,2.24-.94,1.07-1.66,2.01-2.17,2.85-.51.82-.94,1.69-1.28,2.59-.34.89-.79,2.19-1.33,3.88-.22.78-.37,1.25-.45,1.43-1.29.02-2.33.11-3.11.26.23-.66.66-1.98,1.27-3.93.07-.23.21-.65.41-1.27.2-.63.32-1.02.38-1.2,1.02-3.07,1.64-5.03,1.84-5.85.2-.67.3-1.21.3-1.62,0-.32-.12-.47-.36-.47-.3,0-.76.25-1.38.76-.61.51-1.04.9-1.3,1.18l-.67-.85c.77-.83,1.45-1.51,2.07-2.03.62-.51,1.25-.97,1.89-1.37.64-.4,1.18-.69,1.62-.87.44-.19.73-.28.88-.28.21.01.41.09.57.25.17.15.25.35.25.6,0,.74-.28,1.89-.86,3.44-.57,1.55-1.17,3.08-1.78,4.57l.08.08c.99-1.38,2.04-2.7,3.15-3.96,1.11-1.26,2.36-2.4,3.78-3.43,1.41-1.02,2.74-1.54,3.99-1.54,1.09,0,1.64.53,1.64,1.58,0,.47-.12,1.05-.36,1.74-.05.17-.33,1.06-.84,2.66-.51,1.6-.86,2.7-1.05,3.31-.19.6-.43,1.37-.74,2.29-.3.92-.51,1.5-.59,1.74-.11.31-.15.62-.15.96,0,.39.13.59.38.59.49,0,1.48-.64,2.96-1.91"/>
  <path class="st1" d="M343.23,49.75c0,1.1.23,2.15.68,3.13.46.99,1.31,1.48,2.56,1.48,1.11,0,2.12-.48,3.03-1.44.91-.96,1.64-2.22,2.18-3.77.54-1.55.8-3.13.8-4.74,0-1.04-.18-2.08-.55-3.12-.37-1.05-1.2-1.57-2.5-1.57-1.12,0-2.15.56-3.1,1.66-.94,1.11-1.7,2.46-2.26,4.06-.56,1.6-.84,3.03-.84,4.31M340.18,50.04c0-1.63.33-3.19.99-4.67.66-1.47,1.53-2.76,2.61-3.86,1.08-1.1,2.24-1.94,3.48-2.53,1.24-.59,2.4-.88,3.46-.88,1.28,0,2.28.38,2.99,1.12.71.75,1.18,1.6,1.42,2.55.24.95.36,1.83.36,2.64,0,1.61-.33,3.11-.96,4.52-.64,1.41-1.51,2.67-2.58,3.76-1.08,1.1-2.26,1.94-3.52,2.54-1.26.59-2.44.89-3.56.89-1.63,0-2.82-.63-3.57-1.89-.75-1.25-1.12-2.65-1.12-4.18"/>
  <path class="st1" d="M358.78,40.19l.19-.84c1.05-.31,2-.63,2.84-.95.43-1.62.8-2.86,1.12-3.73.32-.86.71-1.61,1.17-2.25.46-.64,1.11-1.3,1.93-2,1.78-1.51,3.58-2.27,5.41-2.27.69,0,1.28.09,1.79.26.51.17.99.38,1.44.63-.33.81-.55,1.38-.67,1.71-.11.33-.26.9-.45,1.72l-1.01-.08c-.07-.7-.26-1.31-.56-1.83-.32-.52-.96-.79-1.93-.79-.6,0-1.14.18-1.62.53-.49.35-.91.86-1.28,1.53-.38.66-.72,1.41-1.01,2.23-.3.82-.69,2.06-1.17,3.7,0,.14-.08.43-.22.88,1.02.03,2.39,0,4.13-.07l.19.29c-.35.5-.65.99-.89,1.47-1.05-.08-2.33-.13-3.84-.15-.96,3.49-1.67,6.16-2.16,7.99-.63,2.4-1.21,4.46-1.74,6.17-.53,1.71-1.01,3.03-1.45,3.97-.44.95-.92,1.71-1.42,2.31-.52.59-1.16,1.16-1.94,1.72-1.33.95-2.57,1.43-3.71,1.43-.57,0-1.04-.08-1.43-.23-.38-.15-.82-.4-1.33-.74.37-.5.65-.93.85-1.26.2-.34.41-.77.64-1.29h.38c.32.46.63.83.95,1.08.32.26.79.39,1.43.39.99,0,1.77-.48,2.34-1.43.57-.95,1.19-2.64,1.86-5.07.26-.83.57-1.99.94-3.49.36-1.49,1.2-4.92,2.49-10.29.02-.06.08-.25.15-.54.07-.3.13-.54.18-.71-.76.03-1.62.04-2.57.04"/>
  <path class="st1" d="M209.77,201.53c8.05-.05,13.6-2.88,13.6-8.31,0-4.41-3.22-5.94-9.55-5.94h-.56l-3.49,14.24ZM205.33,219.9c5.17.11,10.33-.51,12.88-2.31,1.99-1.36,3.55-3.17,3.55-6.28,0-4.64-3.33-7.46-12.49-7.35-1.33,5.14-2.72,10.18-3.94,15.94M204.22,185.64c2.39-.28,8.55-.79,11.88-.79,6.89,0,12.6,1.86,12.6,8.31,0,5.54-5.22,8.48-10.88,9.27l-.05.17c6.05.96,9.6,3.9,9.6,8.71,0,7.18-7.05,11.25-19.15,11.19-4.88-.05-9.38-.11-13.43-.17l.61-1.81,4.72-1.41c.33-.68,1.61-5.37,3.55-12.89l4.5-17.92-4.83-.96.89-1.69Z"/>
  <path class="st1" d="M231.86,204.97c2.28-7.01,5.49-8.37,7.05-8.42,1.44.11,3.05,1.42,4.16,5.99,1.05,4.35,1.28,9.61,1.17,15.43h.17c2.72-4.47,6.22-13.34,6.33-16.96l-1.84-2.54.39-.74c1.17-.62,3.45-1.19,5.11-1.19.44,0,.83.17.78.68-.55,3.56-1.55,6.5-3.39,11.02-3.05,7.69-7.1,13.9-10.44,18.32-4.99,6.67-9.54,9.33-10.38,9.33-.56,0-2.78-1.3-3.61-5.26l.33-.68c1.5.06,3.39.63,5.44,1.25.44-.11,2.94-1.92,4.88-4.58,1.61-2.31,2.39-4.29,2.39-8.54-.05-5.82-.83-12.21-2.11-15.48-.5-1.25-.78-1.7-1.17-1.7-.5,0-2.17,2.26-3.55,5.66l-1.72-1.59Z"/>
  <path class="st1" d="M284.99,188.92l.33.28-2.39,8.25h7.38l-1.39,2.26-6.77.68c-1.17,4.07-3.88,13.96-5.11,19.33l.11.05c3.27-.51,6.94-3.05,9.83-6.78l.39,1.53c-2.88,7.63-9.33,8.6-11.38,8.6-2.28,0-3.94-.91-3.11-4.75.56-2.38,3.55-13.62,4.83-17.98l-4.6-.68,1.27-2.26h4.11l1.66-5.77,4.83-2.77Z"/>
  <path class="st1" d="M289.93,222.84c1.22-4.64,2.78-10.51,5.1-19.96,2.33-9.44,3.5-14.13,3.94-16.33l-4.16-.68.72-1.53c2.22-.9,7.27-1.81,8.99-1.81l.11.11c-.56,2.26-2.56,8.99-7.38,27.47h.17c3.72-5.82,8.22-10.62,12.76-12.55,1.23-.45,2.78-.9,4.05-.9,1.78,0,2.5.4,1.72,3.16-2.11,7.69-4.27,15.6-4.72,18.6l5.11-.85-.94,2.31c-3,.85-8.11,2.83-9.77,3.56l-.5-.45c.33-1.58,5-17.53,6.1-21.48.22-.85.06-1.13-.5-1.13-3.27,0-9.1,6.9-11.88,11.7-2,3.45-3,5.88-4.5,10.29l-4.44.45Z"/>
  <path class="st1" d="M335.28,198.98c-3.16,0-6.99,4.01-8.66,10.23,2.44-.56,9.11-2.32,10.38-4.29.5-.79.72-1.64.72-2.83,0-2.03-1.11-3.11-2.39-3.11h-.06ZM340.83,216c-2.94,4.46-7.27,7.12-11.94,7.12-3.78,0-7.71-1.92-7.77-8.65-.06-7.52,6.27-17.81,15.15-17.81,3.89,0,5.88,2.49,5.88,5.71,0,1.47-.56,3.17-1.78,4.24-2.33,2.31-10.72,4.29-14.1,4.91-.22.9-.22,1.47-.22,2.49,0,2.83,1.11,5.59,4.61,5.59,3.88,0,7.83-3.56,9.66-5.93h.17l.33,2.31Z"/>
  <path class="st1" d="M366.14,185.19c2.11,0,4.22.06,6.22.06,2.5,0,5-.06,7.49-.06l-.94,1.92-4.17,1.41-3.61,14.36c-2.27,9.04-3.83,16.05-3.89,16.51l10.94.45c2.11-2.15,5.72-5.94,7.5-7.46l1.22.45c-.89,2.26-3.27,7.75-4.22,9.78-1.83,0-5.1-.22-18.76-.22h-7.16l.61-1.65,4.49-1.58c.23-.62,1.89-7.35,4.17-16.16l3.72-14.47-4.33-1.58.72-1.75Z"/>
  <path class="st1" d="M396.61,219.5c2.05,0,6.05-2.94,10.6-9.84,1.94-3,2.72-4.97,3.72-8.82-.66-.57-1.39-.9-2.61-.9-1.72,0-4,.57-6.66,3.45-4.33,4.58-6.33,10.29-6.33,13.91,0,1.64.66,2.21,1.22,2.21h.05ZM417.38,196.61l.33.57-2.22,3c-2.11,6.73-4,14.53-4.94,18.94l.17.05c3.27-.96,5.38-3.62,6.61-5.2l.44.8c-.34,3.62-4.78,8.37-10.5,8.37-.61,0-1.33-.11-1.83-.28.61-2.55,2.17-7.92,2.94-10.91h-.17c-4.16,6.16-9.49,11.2-13.76,11.2-2.78,0-4-2.32-4-5.6,0-4.12,2.45-11.59,9.17-16.9,3.33-2.6,6.44-3.34,8.44-3.34,1.78,0,2.83.68,3.72,1.36l.44-1.42,5.16-.62Z"/>
  <path class="st1" d="M447.52,199.21c-4.16.85-4.88,1.13-6.1,1.92-1.17.9-3,2.31-6.77,5.82v.12c1.5,3.28,6.49,11.76,8.77,16l-.61.56c-3.17-.45-4.66-.84-6.94-4.46-2.17-3.33-5.61-9.72-5.94-10.69l.17-.28c2.78-2.6,4.66-4.3,8.38-8.03,1.16-1.19,1.22-1.36,2-3.5,1.17-.23,7.11.45,8.1.79l-1.05,1.75ZM426.87,185.87l.61-1.58c2.28-.9,7.05-1.75,8.83-1.75l.11.11c-1.55,5.2-6.83,24.42-10.83,39.45-1.55.23-3.27.45-4.88.62,3.67-12.6,7.39-26.06,9.94-36.17l-3.78-.68Z"/>
  <path class="st1" d="M462.45,198.98c-3.17,0-7,4.01-8.66,10.23,2.44-.56,9.11-2.32,10.38-4.29.5-.79.72-1.64.72-2.83,0-2.03-1.11-3.11-2.39-3.11h-.05ZM468,216c-2.94,4.46-7.27,7.12-11.94,7.12-3.77,0-7.71-1.92-7.77-8.65-.06-7.52,6.27-17.81,15.15-17.81,3.89,0,5.89,2.49,5.89,5.71,0,1.47-.56,3.17-1.78,4.24-2.33,2.31-10.72,4.29-14.1,4.91-.23.9-.23,1.47-.23,2.49,0,2.83,1.11,5.59,4.61,5.59,3.89,0,7.83-3.56,9.66-5.93h.17l.33,2.31Z"/>
</svg>