<svg xmlns="http://www.w3.org/2000/svg" xmlns:xlink="http://www.w3.org/1999/xlink" width="203.967" height="106.757" viewBox="0 0 203.967 106.757">
  <defs>
    <clipPath id="clip-path">
      <path id="path" d="M164.81,101.2H368.777V207.957H164.81" transform="translate(-164.81 -101.2)" fill="none"/>
    </clipPath>
    <clipPath id="clip-path-2">
      <path id="path-2" data-name="path" d="M185.56,114.22V315.893h187.2V114.22" transform="translate(-185.56 -114.22)" fill="none"/>
    </clipPath>
  </defs>
  <g id="group-96" transform="translate(20.75 13.02)">
    <g id="group" transform="translate(-20.75 -13.02)" clip-path="url(#clip-path)">
      <g id="group-2" data-name="group" transform="translate(7.332 4.6)" clip-path="url(#clip-path-2)">
        <path id="path-3" data-name="path" d="M342.868,156.89h.046c9.957-1.615,18.13-2.618,26.374-3.551.544.29,1.078.558,1.615.834-12.855,1.506-18.66,3.428-18.66,3.428h.067c7.42-.946,14.385-1.689,20.872-2.279.516.251,1.032.491,1.544.728-9.088.576-12.808,1.827-12.808,1.827.021.057.148,0,.219,0,6.519-.4,10.791-.594,15.035-.706.473.208.94.4,1.414.6-3.559.374-6.028.908-6.028.908,6.078.074,7.626.216,9.074.322,19.2,7.371,31.518,5.466,31.518,5.466-14.6,0-24.381-6.48-33.084-12.247,17.5-1.335,29.614-1.766,34.7-1.766.124,0,.042-.1.042-.1-52.3-.516-71.942,6.519-71.942,6.519m-27.446,7.774s13.117-13.328,29.717-18.869c-19.537.544-29.717,18.89-29.717,18.89Zm60.232-15.315c-5.145-3.222-10.141-5.731-15.837-5.908a42.5,42.5,0,0,0-14.675,2.353c5.481-.145,11.7,1.118,18.628,4.594-19.038,2.018-27.823,4.869-27.823,4.869H336a528.45,528.45,0,0,1,85.616-6.467c.172-.035.018-.074.018-.074a447.807,447.807,0,0,0-45.981.654Z" transform="translate(-269.535 -133.095)" fill="#439539"/>
        <path id="path-4" data-name="path" d="M218.839,232.911l-13.378-23.2h-1.979L192.62,230.07a15.1,15.1,0,0,1-7.067,6.827l1.145-.025v.025c3.488-.1,4.421-.109,5.343-.117s1.833.021,5.364.117v-.025l1.145.025s-3.65-1.608-3.65-2.608c0-.382.1-.922,1.332-3.6l1.431-3.106h10.162l1.979,3.6c1.032,1.919,1.382,2.724,1.382,3.145,0,1.032-3.555,2.569-3.555,2.569h1.142c3.127-.035,5.162-.1,6.985-.109s3.887.074,6.982.109h1.141s-3.752-1.766-5.038-3.986M198.3,226.12l4.018-8.714,4.717,8.714Z" transform="translate(-185.554 -175.968)" fill="#004780"/>
        <path id="path-5" data-name="path" d="M596.781,232.911,583.4,209.71h-1.986l-10.862,20.36c-2.333,4.417-3.356,5.321-5.759,5.586a7.676,7.676,0,0,1-2.826-2.6L557,226.55c3.855-.845,5.53-2.989,5.53-4.912,0-2.77-2.187-5.229-9.105-5.229H552.5c-2.452,0-4.947.074-7.4.086-1.328,0-2.753-.057-4.406-.086v.021l-.919-.021s3.3,1.558,3.3,3.138v13.844c0,1.587-3.3,3.138-3.3,3.138l.919-.018v.018c2.806-.049,4.187-.081,5.346-.086s2.541.035,5.343.086v-.018l.922.018s-3.3-1.549-3.3-3.138v-6.219c1.9.092,2.516.516,3.972,2.714l1.549,2.343c2.12,3.2,4.2,4.533,8.961,4.654h1.643c.636,0,1.233-.028,1.833-.057h0c1.647-.042,2.323-.053,3-.057.9,0,1.833.021,5.364.116v-.025l1.141.025s-3.654-1.608-3.654-2.608c0-.382.1-.922,1.332-3.6l1.434-3.106h10.167l1.979,3.6c1.038,1.919,1.382,2.724,1.382,3.145,0,1.032-3.554,2.569-3.554,2.569h1.145c3.123-.035,5.162-.1,6.982-.109s3.887.074,6.979.109H601.8s-3.753-1.766-5.035-3.986m-45.72-6.618a18.64,18.64,0,0,1-2.028-.184v-8.726a9.212,9.212,0,0,1,1.092-.1c4.915.124,6.339,3.113,6.339,5.13,0,2.657-2.031,3.812-5.4,3.883Zm25.2-.163,4.014-8.714,4.717,8.714Z" transform="translate(-414.617 -175.968)" fill="#004780"/>
        <path id="path-6" data-name="path" d="M311.151,228.66c-1.371.028-2.764.074-3.947.086s-2.537-.053-3.837-.086v.021l-.922-.021s3.42,1.587,3.46,3.279l.12,4.1c.039,1.248.077,2.375.077,3.958,0,4.795-2.357,7.915-8.9,8.067-4.261-.145-7.8-2.409-7.8-6.512V231.8c0-1.58,3.3-3.141,3.3-3.141l-.922.025v-.025c-2.8.077-4.184.086-5.343.086s-2.541,0-5.343-.086v.025l-.922-.025s3.3,1.558,3.3,3.141v9.038c0,6.046,5.608,8.307,12.961,8.307h.912c8.746,0,11.169-4.156,11.25-8.279l.159-9.067c.042-1.58,3.3-3.141,3.3-3.141l-.922.021" transform="translate(-246.747 -188.223)" fill="#004780"/>
        <path id="path-7" data-name="path" d="M461.508,227.63h-.926c-9.739,0-15.664,4.947-15.664,10.424,0,6.155,7.594,10.424,16.184,10.424h.922c9.739,0,15.659-4.947,15.659-10.424,0-6.159-7.594-10.424-16.179-10.424m1.177,19.759c-6.738-.18-10.953-5.194-10.953-10.576,0-6.539,5.4-7.933,8.194-8.088,6.735.18,10.953,5.2,10.953,10.576.007,6.544-5.4,7.936-8.191,8.088Z" transform="translate(-353.275 -187.557)" fill="#004780"/>
        <path id="path-8" data-name="path" d="M395.94,245.307l-4.968-6.5c3.859-.845,5.526-2.989,5.526-4.912,0-2.77-2.184-5.233-9.1-5.233h-.922c-2.452,0-4.947.074-7.4.086-1.325,0-2.753-.057-4.4-.086v.021l-.922-.021s3.3,1.558,3.3,3.141v13.843c0,1.587-3.3,3.138-3.3,3.138l.922-.018v.018c2.806-.049,4.184-.081,5.343-.086s2.541.035,5.343.086v-.018l.922.018s-3.3-1.549-3.3-3.138v-6.219c1.9.092,2.516.516,3.972,2.714l1.549,2.343c.18.275.354.527.54.774,8.272,11.661,27.523,6.883,27.523,6.883-7.46-.042-15.515-1.159-20.625-6.831m-10.927-6.77a18.671,18.671,0,0,1-2.031-.184v-8.726a9.247,9.247,0,0,1,1.1-.1c4.915.124,6.339,3.113,6.339,5.13,0,2.65-2.028,3.809-5.4,3.879Z" transform="translate(-307.254 -188.223)" fill="#004780"/>
        <path id="path-9" data-name="path" d="M481.163,127.05l-4.258-.12,3.668-3.247-5.1,1.562,3.646-5.972-6.195,4.526,1.6-7.626s-4.615,6.643-4.654,6.636l.071-8.59-2.965,8.127h-.015l-2.826-7.25-.06,7.173-3.792-4.738,1.169,5.4h0l-3.938-2.271,1.887,2.982-.552.4c3.265-.654,6.933-1.377,10.953-.354a16.045,16.045,0,0,1,8.29,5.367c-.025-.279-.1-.453-.131-.731" transform="translate(-361.423 -114.22)" fill="#c1cd23"/>
        <line id="line" x2="104.467" transform="translate(41.826 72.324)" fill="none" stroke="#439539" stroke-width="0.66"/>
        <path id="path-10" data-name="path" d="M249.294,338.409c0-.223-.2-.43-.661-.459a3.415,3.415,0,0,0-1.414.354c-.58.258.021.682-.067.884-.287.671-1.258,2.184-2.187,4.24a16.011,16.011,0,0,1-2.35-5.038c-.018-.329-.116-.5-.406-.417a2.039,2.039,0,0,0-.823.473.985.985,0,0,0-.109,1.488,30.179,30.179,0,0,1,2.764,4.1,7.993,7.993,0,0,1,.233.912c-.149.354-.279.6-.435.929-.212.516-.587,1.283-.86,1.807a2.5,2.5,0,0,1-1.922,1.549c-.18,0-.661-.434-.852-.583a2.151,2.151,0,0,0-.86-.354,1.084,1.084,0,0,0-.671.265c-.216.166-.025.65.18.816a5.2,5.2,0,0,0,2.024.612,2.576,2.576,0,0,0,1.032-.247,4.885,4.885,0,0,0,2.193-1.993c.449-.936.971-2.194,1.265-2.954.268-.706,2.957-5.654,3.6-6.067a.835.835,0,0,0,.332-.354" transform="translate(-219.846 -258.895)" fill="#439539"/>
        <path id="path-11" data-name="path" d="M264.77,352.563a4.753,4.753,0,0,1,.6-1.9,15.2,15.2,0,0,1,1.315-1.679.785.785,0,0,0,.247-.505.615.615,0,0,1,.29-.488.706.706,0,0,1,.516-.152.629.629,0,0,0,.453-.184.753.753,0,0,1,.6-.251c.413,0,.537.2.537.421,0,.086-.022.184.1.251a1.933,1.933,0,0,1,1.008,1.746,3.887,3.887,0,0,1-1.088,2.166,5.1,5.1,0,0,1-3.456,1.679,1.212,1.212,0,0,1-1.11-1.092m1.194-.286a.516.516,0,0,0,.533.555,2.12,2.12,0,0,0,1.3-.523,4.439,4.439,0,0,0,1.583-2.581c0-.488-.1-1.124-.8-1.124-.268,0-.516.2-.884.569a5.624,5.624,0,0,0-1.728,3.088Z" transform="translate(-236.781 -265.011)" fill="#439539"/>
        <path id="path-12" data-name="path" d="M289.03,352.855c.781,0,2.961-1.728,4.24-2.869.145-.134.268-.134.329,0s-.021.354-.248.587a13.275,13.275,0,0,1-3.786,2.887,3.042,3.042,0,0,1-1.3.354c-.473,0-.841-.47-.555-1.611a8.371,8.371,0,0,1,.43-1.414c.06-.184-.022-.237-.188-.067a13.939,13.939,0,0,1-3.618,2.788,1.817,1.817,0,0,1-.86.251c-.29,0-.619-.4-.619-.94a5.233,5.233,0,0,1,.657-2.014,14.571,14.571,0,0,1,1.443-2.59.6.6,0,0,1,.453-.251c.329,0,.742.219.742.488a2.874,2.874,0,0,1-.619.94,4.053,4.053,0,0,0-.495.47,12.515,12.515,0,0,0-.76,1.612c-.354.774-.188,1.092.124,1.092.516,0,1.173-.555,2.427-1.714a24.386,24.386,0,0,0,2.283-2.618c.329-.435.491-.537.657-.537.287,0,.636.354.491.619a3.023,3.023,0,0,1-.283.548,11.738,11.738,0,0,0-1.194,2.986c-.2.774-.042.989.226.989" transform="translate(-248.479 -265.199)" fill="#439539"/>
        <path id="path-13" data-name="path" d="M314.946,339.805a.884.884,0,0,1,.354.116c.145.086.41.251.354.438a8.845,8.845,0,0,1-1.625,2.314,1.021,1.021,0,0,1-.6.354.138.138,0,0,1-.145-.184,1.181,1.181,0,0,1,.145-.354c.354-.671,1.007-2.031,1.11-2.3s.124-.421.354-.421" transform="translate(-268.149 -260.072)" fill="#439539"/>
        <path id="path-14" data-name="path" d="M320.961,347.75c.43,0,.657.287.6.569a1.226,1.226,0,0,1-.389.622.381.381,0,0,1-.473.086,1.006,1.006,0,0,0-.473-.152c-.287,0-.706.354-1.173.823a15.55,15.55,0,0,0-2.777,3.8.53.53,0,0,1-.473.318.632.632,0,0,1-.473-.233c-.145-.152-.124-.354,0-.587a26.7,26.7,0,0,0,1.06-3.774c.1-.488.163-.671.354-.823s.495-.438.706-.438a.516.516,0,0,1,.453.537.743.743,0,0,1-.2.438,5.937,5.937,0,0,0-.678,1.83c-.042.233.042.233.226.035a17.817,17.817,0,0,1,2.283-2.332,2.453,2.453,0,0,1,1.439-.706" transform="translate(-269.408 -265.233)" fill="#439539"/>
        <path id="path-15" data-name="path" d="M331.974,352.347a6.131,6.131,0,0,1,1.335-2.918c.329-.421,1.481-1.679,2.222-1.679.287,0,.43.152.453.3,0,.049.06.117.226.152a.8.8,0,0,1,.841.805,2.036,2.036,0,0,1-.679,1.414,3.431,3.431,0,0,1-2.364.958.856.856,0,0,1-.473-.152c-.081-.049-.124-.049-.184.067a2.352,2.352,0,0,0-.247.922c0,.537.354.788.9.788.964,0,2.8-.555,5.162-2.633.163-.152.311-.152.354-.035s-.021.3-.226.516a8.9,8.9,0,0,1-5.82,2.986,1.484,1.484,0,0,1-1.519-1.495m2.056-1.746c1.008,0,1.954-.654,1.954-1.325a.58.58,0,0,0-.555-.622c-.516,0-1.339,1.141-1.667,1.766-.06.117-.022.172.248.172Z" transform="translate(-280.23 -265.233)" fill="#439539"/>
        <path id="path-16" data-name="path" d="M362.5,348.051c-.247,0-.533-.152-.8-.587a1.033,1.033,0,0,1-.082-1.007c.124-.354.576-1.509.781-2.014a.481.481,0,0,0,.042-.4.577.577,0,0,1,.064-.47c.307-.537,1.357-1.612,1.788-1.612a.332.332,0,0,1,.247.117.459.459,0,0,1,.021.671,16.39,16.39,0,0,0-1.873,3.559c-.2.622-.021.823.311.823,1.11,0,3.371-1.728,4.594-3.039.184-.172.329-.172.354-.05a.616.616,0,0,1-.188.516,11.585,11.585,0,0,1-4.176,3.2,3.128,3.128,0,0,1-1.088.286m2.667-9.332c.392,0,.661.184.576.488a3.373,3.373,0,0,0-.145,1.24c.021.219-.163.251-.43.134a.86.86,0,0,1-.533-.569,2.044,2.044,0,0,1-.081-.654c.042-.537.268-.636.6-.636Z" transform="translate(-299.346 -259.392)" fill="#439539"/>
        <path id="path-17" data-name="path" d="M377.517,347.073c.354,0,.636.453.636.706,0,.117-.081.152-.184.172-.2.032-.354.184-.533.453a11.163,11.163,0,0,0-.926,2.265c-.042.166.06.216.2.067a19.237,19.237,0,0,1,2.961-2.474,5.031,5.031,0,0,1,.946-.516.8.8,0,0,0,.392-.3.6.6,0,0,1,.392-.251.552.552,0,0,1,.41.219c.2.184.163.385.021.654a8.337,8.337,0,0,0-.619.837,12.722,12.722,0,0,0-.964,2.251c-.354,1.24.042,1.679.576,1.679.968,0,2.88-1.813,3.929-2.9.124-.134.247-.152.29-.049s.021.283-.2.537c-1.852,2.4-3.392,3.2-4.463,3.2-.9,0-1.544-.855-1.11-2.474a12.158,12.158,0,0,1,.615-1.766c.124-.283.145-.354.081-.421s-.2,0-.453.2a15.024,15.024,0,0,0-3.565,3.528c-.145.2-.392.505-.619.505a.59.59,0,0,1-.392-.2c-.1-.116-.042-.47.042-.738a20.551,20.551,0,0,1,1.643-4.5c.367-.587.619-.706.866-.706" transform="translate(-307.989 -264.774)" fill="#439539"/>
        <path id="path-18" data-name="path" d="M412.808,348.454c0-1.83,1.481-3.844,4.092-5.219a6.453,6.453,0,0,1,2.858-.805,2,2,0,0,1,1.032.3c.163.12.226.3.042.438a2.1,2.1,0,0,1-.706.354,1.159,1.159,0,0,1-.781-.067,1.572,1.572,0,0,0-.6-.152,6.05,6.05,0,0,0-2.9,1.7,4.99,4.99,0,0,0-1.788,3.339c0,.891.392,1.241.823,1.241a6.73,6.73,0,0,0,2.827-1.191,2.856,2.856,0,0,0,1.414-1.813.819.819,0,0,1,.354-.537,2.142,2.142,0,0,1,1.06-.47.612.612,0,0,1,.473.216c.124.1.081.219-.1.354a3.017,3.017,0,0,0-1.06,1.766c-.226.774-.657,2.1-1.007,3a4.474,4.474,0,0,1-2.036,2.031,2.474,2.474,0,0,1-1.032.251,5.678,5.678,0,0,1-2.12-.622c-.226-.172-.2-.354,0-.516a1,1,0,0,1,.657-.268,2.417,2.417,0,0,1,.9.354,1.328,1.328,0,0,0,.657.283c.533,0,1.291-.421,1.807-1.576.226-.537.453-1.258.555-1.494.163-.435.081-.505-.081-.4a15.612,15.612,0,0,1-2.18,1.159,4.413,4.413,0,0,1-1.583.354,1.88,1.88,0,0,1-1.335-.971,1.838,1.838,0,0,1-.287-.975" transform="translate(-332.485 -261.793)" fill="#439539"/>
        <path id="path-19" data-name="path" d="M437.077,352.517a4.732,4.732,0,0,1,.6-1.9,14.91,14.91,0,0,1,1.315-1.681.788.788,0,0,0,.248-.505.611.611,0,0,1,.283-.516.707.707,0,0,1,.516-.152.629.629,0,0,0,.453-.184.753.753,0,0,1,.6-.251c.41,0,.533.2.533.421,0,.086-.022.184.1.251a1.932,1.932,0,0,1,1.007,1.746,3.887,3.887,0,0,1-1.088,2.166,5.1,5.1,0,0,1-3.456,1.679,1.212,1.212,0,0,1-1.11-1.092m1.194-.287a.516.516,0,0,0,.533.555,2.12,2.12,0,0,0,1.3-.523,4.44,4.44,0,0,0,1.583-2.581c0-.488-.1-1.124-.8-1.124-.268,0-.516.2-.884.569a5.623,5.623,0,0,0-1.728,3.088Z" transform="translate(-348.2 -264.965)" fill="#439539"/>
        <path id="path-20" data-name="path" d="M455,352.563a4.756,4.756,0,0,1,.6-1.9,14.911,14.911,0,0,1,1.315-1.679.788.788,0,0,0,.248-.505.612.612,0,0,1,.286-.488.706.706,0,0,1,.516-.152.626.626,0,0,0,.453-.184.756.756,0,0,1,.6-.251c.41,0,.533.2.533.421,0,.086-.022.184.1.251a1.936,1.936,0,0,1,1.007,1.746,3.887,3.887,0,0,1-1.088,2.166,5.1,5.1,0,0,1-3.456,1.679,1.212,1.212,0,0,1-1.11-1.107m1.194-.286a.516.516,0,0,0,.533.555,2.12,2.12,0,0,0,1.3-.523,4.44,4.44,0,0,0,1.583-2.581c0-.488-.1-1.124-.8-1.124-.268,0-.516.2-.884.569a5.6,5.6,0,0,0-1.728,3.088Z" transform="translate(-359.794 -265.011)" fill="#439539"/>
        <path id="path-21" data-name="path" d="M477.187,340.459a1.635,1.635,0,0,1,.679.134c.163.05.2.05.265-.067.9-1.813,1.788-3.71,2.056-4.163.124-.251.226-.3.354-.3a.555.555,0,0,1,.41.251.533.533,0,0,1,.042.671c-.2.421-.986,1.746-1.686,3.307a13.616,13.616,0,0,0-1.152,4.01c-.081.706.124,1.06.453,1.06.989,0,3.084-2.166,3.559-2.7.188-.184.329-.2.392-.067s-.022.3-.163.537c-.738,1.124-2.88,3.106-4.36,3.106-.678,0-.946-.706-.884-1.377a9.705,9.705,0,0,1,.226-1.442c.064-.152-.022-.116-.124,0a16.774,16.774,0,0,1-2.427,2.12,5.4,5.4,0,0,1-1.954.788c-.329,0-.742-.172-.742-.922a6.221,6.221,0,0,1,2.036-3.576,4.853,4.853,0,0,1,2.982-1.36m-.392.706c-.636,0-1.6.774-2.385,1.728a3.826,3.826,0,0,0-1.088,2.014.318.318,0,0,0,.329.354,3.413,3.413,0,0,0,1.685-.922,8.893,8.893,0,0,0,2.2-2.569c.081-.184.06-.3-.042-.385a.936.936,0,0,0-.679-.219Z" transform="translate(-370.871 -257.673)" fill="#439539"/>
        <path id="path-22" data-name="path" d="M517.277,342.163c.516,0,1.06.219,1.06.706s-.657.756-.865.788-.226-.086-.2-.172a.366.366,0,0,0,.1-.251c0-.1-.141-.237-.43-.237a4.549,4.549,0,0,0-2.826,1.513,5.874,5.874,0,0,0-1.83,3.675c0,.788.491,1.177,1.275,1.177,2,0,4.3-1.513,4.732-1.795.311-.2.43-.032.29.219A9,9,0,0,1,513,350.254a1.858,1.858,0,0,1-1.932-2.081c0-1.979,1.979-4.682,4.646-5.707a4,4,0,0,1,1.541-.318" transform="translate(-396.05 -261.611)" fill="#439539"/>
        <path id="path-23" data-name="path" d="M532.124,352.563a4.756,4.756,0,0,1,.6-1.9,14.921,14.921,0,0,1,1.315-1.679.792.792,0,0,0,.247-.505.607.607,0,0,1,.287-.488.706.706,0,0,1,.516-.152.625.625,0,0,0,.453-.184.76.76,0,0,1,.6-.251c.41,0,.534.2.534.421,0,.086-.022.184.1.251a1.933,1.933,0,0,1,1.008,1.746,3.887,3.887,0,0,1-1.092,2.166,5.1,5.1,0,0,1-3.455,1.679,1.212,1.212,0,0,1-1.11-1.092m1.194-.286a.516.516,0,0,0,.537.555,2.12,2.12,0,0,0,1.291-.523,4.44,4.44,0,0,0,1.583-2.581c0-.488-.1-1.124-.8-1.124-.268,0-.516.2-.884.569a5.624,5.624,0,0,0-1.728,3.088Z" transform="translate(-409.664 -265.011)" fill="#439539"/>
        <path id="path-24" data-name="path" d="M556.647,347.611c.311,0,.636.385.354.94-.2.435-1.152,2.6-1.275,2.9-.042.184-.06.286.022.354s.226-.035.41-.2c1.357-1.226,3.682-3.321,3.947-3.534a1.1,1.1,0,0,1,.6-.3.671.671,0,0,1,.576.622c-.021.172-.124.251-.329.385a1.415,1.415,0,0,0-.41.421,7.416,7.416,0,0,0-.845,2.283c-.184.954-.081,1.414.555,1.414.823,0,1.993-.788,3.823-2.717.163-.152.287-.152.354-.05s-.022.286-.226.551c-1.707,2.166-3.393,3.021-4.36,3.021-.781,0-1.414-.654-1.216-1.947a9.3,9.3,0,0,1,.43-1.679c.042-.184-.022-.219-.247,0-.706.671-2.753,2.551-3.356,3.053-.41.354-.615.456-.823.456-.354,0-.41-.688-.124-1.53.124-.421.636-1.728.781-2.12.1-.251.1-.354,0-.4s-.2.032-.354.172c-.473.268-3.042,2.925-3.6,3.473-.286.268-.516.435-.679.435-.286,0-.576-.354-.473-1.124a26.926,26.926,0,0,1,1.028-3.039c.042-.117.042-.2-.042-.2s-.2-.086-.1-.354c.145-.318.657-1.414,1.06-1.414a.615.615,0,0,1,.329.134c.329.287.453.555.226.9a18.908,18.908,0,0,0-1.173,2.94c-.163.434,0,.569.247.318,1.007-1.007,2.078-2.1,3.123-2.954.555-.47.866-.688,1.131-.9a1.469,1.469,0,0,1,.619-.318" transform="translate(-421.329 -265.059)" fill="#439539"/>
        <path id="path-25" data-name="path" d="M587.929,347.189c.6,0,.845.891.845,1.142a4.622,4.622,0,0,1-1.06,2.435c-.145.134-.081.184.145.1a15.3,15.3,0,0,0,3.763-2.12c.329-.268.43.086.06.505a13.479,13.479,0,0,1-4.594,2.65,5.577,5.577,0,0,0-1.088.505,11.645,11.645,0,0,1-2.056.706,1.062,1.062,0,0,1-.453,0,.706.706,0,0,1-.311-.2c-.1-.067-.163-.035-.226.117s-1.463,3.374-1.562,3.643-.064.354.145.421a6.492,6.492,0,0,0,1.5.049c.329,0,.453,0,.453.1s-.163.215-.576.354a14.263,14.263,0,0,1-2.283.47.474.474,0,0,1-.453-.2c-.124-.152-.1-.354.042-.636s1.544-3.509,2.753-7.148c.43-1.258.533-1.679.678-2.12a2.213,2.213,0,0,1,.43-.872,1.291,1.291,0,0,1,.9-.47.706.706,0,0,1,.495.219c.145.134.081.233-.06.354-.473.318-.742.823-1.11,1.9-.081.219.06.219.2.1a9.485,9.485,0,0,1,2.611-1.766,2.347,2.347,0,0,1,.8-.233m-.76,1.025a2.237,2.237,0,0,0-1.06.505,6.644,6.644,0,0,0-2.714,3.138c-.081.251-.042.386.29.386a6.029,6.029,0,0,0,1.583-.421,2.958,2.958,0,0,0,1.152-.738,5.05,5.05,0,0,0,1.281-2.417c0-.2-.081-.453-.491-.453Z" transform="translate(-440.69 -264.502)" fill="#439539"/>
        <path id="path-26" data-name="path" d="M611.811,347.844a.865.865,0,0,1,.533.354c.022.067.1.086.188.032a.354.354,0,0,1,.392,0c.311.152.286.318.184.488a6.425,6.425,0,0,0-1.007,3.039c0,.738.124,1.308.615,1.308.866,0,2.474-1.562,3.374-2.569.163-.152.311-.134.354-.032a.894.894,0,0,1-.163.555c-.742,1.223-2.925,2.918-3.99,2.918a1.357,1.357,0,0,1-1.169-1.2c-.042-.354-.064-.841-.064-1.025,0-.1-.042-.12-.166,0a18.54,18.54,0,0,1-1.993,1.746,2.2,2.2,0,0,1-1.184.456c-.184,0-.866-.2-.866-.823a3.671,3.671,0,0,1,.785-1.83,9.9,9.9,0,0,1,2.509-2.7,2.95,2.95,0,0,1,1.643-.706m-.555.9c-.286,0-.706.318-1.276.855a7.277,7.277,0,0,0-1.766,2.685c-.124.318-.042.572.226.572a2.151,2.151,0,0,0,.86-.47,15.593,15.593,0,0,0,1.544-1.526,13.563,13.563,0,0,0,.76-1.127,1.061,1.061,0,0,0,.1-.622.417.417,0,0,0-.43-.354Z" transform="translate(-457.988 -265.291)" fill="#439539"/>
        <path id="path-27" data-name="path" d="M632.954,347.073c.354,0,.636.453.636.706,0,.117-.081.152-.184.172-.2.032-.354.184-.533.453a11.3,11.3,0,0,0-.926,2.265c-.042.166.06.216.2.067a19.286,19.286,0,0,1,2.961-2.474,5.066,5.066,0,0,1,.946-.516.789.789,0,0,0,.389-.3.6.6,0,0,1,.392-.251.552.552,0,0,1,.414.219c.2.184.163.385.022.654a7.987,7.987,0,0,0-.619.837,12.72,12.72,0,0,0-.968,2.251c-.354,1.24.042,1.679.576,1.679.968,0,2.88-1.813,3.929-2.9.124-.134.248-.152.286-.049s.022.283-.2.537c-1.852,2.4-3.393,3.2-4.463,3.2-.9,0-1.544-.855-1.11-2.474a12.276,12.276,0,0,1,.619-1.766c.124-.283.145-.354.081-.421s-.2,0-.453.2a15.035,15.035,0,0,0-3.558,3.528c-.145.2-.392.505-.619.505a.587.587,0,0,1-.392-.2c-.1-.117-.042-.47.042-.738a20.3,20.3,0,0,1,1.647-4.5c.371-.587.619-.706.86-.706" transform="translate(-473.169 -264.774)" fill="#439539"/>
        <path id="path-28" data-name="path" d="M648.421,349.537a1.806,1.806,0,0,0-.042-.587.731.731,0,0,1,.06-.537c.166-.268.453-.805.8-.805s.41.922.354,1.377c-.042.552-.268,2.065-.307,2.618-.06.622.166.891.354.891.43,0,1.254-.774,2.343-2.4.453-.636.43-.841.414-.971a.654.654,0,0,1,.124-.555c.184-.251.286-.438.491-.738a.505.505,0,0,1,.453-.3c.2,0,.495.354.495.636a2.924,2.924,0,0,1-.354,1.06,20.034,20.034,0,0,1-2.53,3.424c-2.261,2.247-3.678,3.827-4.092,4.3-.1.134-.124.2-.042.219.226.05.354.134.354.268-.018.354-1.169.805-1.463.94a1.11,1.11,0,0,0-.619.421c-.29.354-.533.622-.884.622s-.495-.172-.392-.435a2.159,2.159,0,0,1,.576-.872,1.933,1.933,0,0,1,.845-.6.5.5,0,0,0,.329-.237,12.69,12.69,0,0,1,1.414-1.661c.43-.438,1.766-1.9,2.2-2.332.1-.086.1-.1-.042-.067a2,2,0,0,1-.453.067c-.354,0-.533-.421-.516-1.494" transform="translate(-481.952 -265.09)" fill="#439539"/>
      </g>
    </g>
  </g>
</svg>
