<?xml version="1.0" encoding="UTF-8"?><svg id="a" xmlns="http://www.w3.org/2000/svg" width="290" height="73.8" viewBox="0 0 290 73.8"><g id="b" transform="translate(0 0.001)"><path id="c" d="M236.02,5.52c.39-3.48-13.9-4.12-31.9-1.42-7.02,1.02-13.97,2.53-20.78,4.51,6.02-2.59,16.18-5.23,27.58-6.94,18.01-2.7,32.29-2.06,31.91,1.42-.09,.5-.35,.95-.72,1.29-.21,.22-.44,.42-.68,.6-.08,.07-.17,.13-.27,.2s-5.13,.33-5.13,.33" style="fill:#ffc425; fill-rule:evenodd;"/><path id="d" d="M249.44,18.13c.21-.11,.41-.23,.6-.34,.25-.14,.49-.29,.72-.43,.45-.28,.87-.57,1.24-.85,.41-.31,.8-.64,1.17-1.01,.59-.53,.99-1.23,1.14-2.01,.59-5.28-21.07-6.25-48.37-2.15-10.65,1.54-21.18,3.83-31.51,6.85,9.12-3.93,24.53-7.93,41.82-10.52,27.3-4.1,48.96-3.13,48.38,2.16-.27,2.46-5.32,5.42-13.39,8.3h-1.8Z" style="fill:#00a94f; fill-rule:evenodd;"/><path id="e" d="M275.54,24.7c.82-7.4-29.51-8.75-67.72-3.02-14.91,2.16-29.65,5.36-44.11,9.59,12.78-5.49,34.34-11.1,58.55-14.73,38.22-5.73,68.54-4.39,67.73,3.02-.46,4.18-10.79,9.41-26.58,14.19,7.4-3.18,11.84-6.34,12.14-9.05" style="fill:#005596; fill-rule:evenodd;"/><path id="f" d="M17.76,35.4h2.21c3.23,0,5.28,.41,4.91,2.99-.32,2.21-2.65,3.64-6.24,3.64h-3.23l2.35-6.64ZM0,61.48l14.68-.19c7.38-.09,13.71-3.31,14.7-10.13,.52-3.55-1.71-5.67-5.31-6.22v-.09c5.17-.6,9-3.82,9.63-8.15,.89-6.08-4.68-7.37-8-7.37H11.41L0,61.48Zm15.39-13.64c3.87,0,5.84,.41,5.43,3.22-.45,3.13-3.53,4.33-7.86,4.33h-2.3l2.74-7.56h1.99Z" style="fill:#005596; fill-rule:evenodd;"/><path id="g" d="M57.63,55.21c-.72,2.07-1.38,4.1-1.93,6.27h-7.69l1.21-3.92h-.09c-2.79,2.67-5.53,4.47-9.91,4.47-4.84,0-6.94-3.59-6.26-8.29,.27-1.73,.74-3.43,1.38-5.07l3.84-11.2h8.57l-3.94,11.25c-.47,1.18-.83,2.4-1.08,3.64-.21,1.43,.51,2.85,2.82,2.76,3.5,0,6.02-3.04,7.13-6.59l3.96-11.06h8.29l-6.32,17.74Z" style="fill:#005596; fill-rule:evenodd;"/><path id="h" d="M77.03,37.47l-1.64,4.93h.09c1.75-2.81,4.81-5.48,8.22-5.48,1.17-.03,2.33,.17,3.41,.6l-2.96,7.32c-1.05-.79-2.36-1.15-3.67-1.01-3.5,0-6.02,3.04-7.13,6.59l-3.97,11.06h-8.29l6.32-17.74c.72-2.07,1.38-4.1,1.93-6.27h7.69Z" style="fill:#005596; fill-rule:evenodd;"/><path id="i" d="M94.64,26.92h8.39l-12.23,34.55h-8.39l12.23-34.55Z" style="fill:#005596; fill-rule:evenodd;"/><path id="j" d="M109.81,27.47h8.39l-2.18,6.08h-8.39l2.18-6.08Zm-3.58,10h8.39l-8.48,24h-8.38l8.47-24Z" style="fill:#005596; fill-rule:evenodd;"/><path id="k" d="M118.54,43.74c.72-2.08,1.38-4.1,1.93-6.27h7.69l-1.22,3.92h.09c2.78-2.67,5.53-4.47,9.91-4.47,4.84,0,6.94,3.59,6.25,8.29-.27,1.73-.74,3.43-1.38,5.07l-3.84,11.2h-8.57l3.94-11.24c.47-1.18,.83-2.4,1.08-3.64,.21-1.43-.51-2.85-2.82-2.76-3.5,0-6.02,3.04-7.13,6.59l-3.96,11.06h-8.29l6.32-17.74Z" style="fill:#005596; fill-rule:evenodd;"/><path id="l" d="M142.54,72.55c2.97,.91,6.07,1.33,9.18,1.23,11.34,0,13.39-3.96,16.87-13.27l6.65-17.29c.97-2.58,1.85-4.47,2.36-5.76h-7.69l-1.7,4.38h-.1c-.88-3.45-3.93-4.93-7.57-4.93-7.74,0-13.76,6.22-14.84,13.64-.93,6.36,1.63,10.92,8.22,10.92,3.27,0,5.63,.27,7.86-2.4l.66-1.71c-2.18,6.13-2.73,9.55-8.52,10.33-2.55,.35-7.41-.07-9.4-1.31l-1.96,6.17Zm22.56-24.94c-.46,3.13-2.94,7.51-7.18,7.51-2.63,0-4.05-1.94-3.68-4.42,.49-3.36,2.92-7.42,7.07-7.42,2.9,0,4.16,1.8,3.79,4.33" style="fill:#005596; fill-rule:evenodd;"/><path id="m" d="M180.22,37.47h4.74l1.91-5.16,9.09-2.35-2.75,7.51h5.71l-1.86,5.81h-6.03l-2.4,6.68c-.55,1.34-.99,2.73-1.3,4.15-.3,1.15,.4,2.32,1.55,2.62,.26,.07,.52,.08,.78,.05,.95-.08,1.89-.31,2.77-.69l-1.72,5.48c-1.73,.29-3.48,.44-5.23,.46-4.24,0-7.3-2.07-6.57-7.09,.31-1.69,.8-3.34,1.46-4.93l2.41-6.73h-4.42l1.86-5.81Z" style="fill:#005596; fill-rule:evenodd;"/><path id="n" d="M225.27,47.65c.88-6.04-2.77-10.73-10.92-10.73-9.4,0-16.31,5.71-17.54,14.14-.88,6.03,1.99,10.96,10.89,10.96s16.12-4.38,17.58-14.37m-8.56-.09c-.79,5.44-3.7,8.66-7.57,8.66-2.82,.04-4.21-2.12-3.74-5.34,.55-3.82,3.68-8.15,7.68-8.15,3.22,0,3.99,2.35,3.62,4.84" style="fill:#005596; fill-rule:evenodd;"/><path id="o" d="M231.18,43.74c.72-2.08,1.38-4.1,1.93-6.27h7.69l-1.21,3.92h.09c2.79-2.67,5.54-4.47,9.91-4.47,4.84,0,6.94,3.59,6.26,8.29-.27,1.73-.74,3.43-1.38,5.07l-3.85,11.2h-8.57l3.94-11.24c.47-1.18,.83-2.4,1.08-3.64,.21-1.43-.51-2.85-2.82-2.76-3.5,0-6.02,3.04-7.13,6.59l-3.96,11.06h-8.29l6.32-17.74Z" style="fill:#005596; fill-rule:evenodd;"/><path id="p" d="M49.54,23.04c.09-.49,.24-.98,.45-1.43,.27-.64,.65-1.24,1.12-1.76,.45-.49,.99-.89,1.59-1.17,.61-.29,1.29-.44,1.97-.43,.81-.06,1.61,.27,2.15,.88,.5,.67,.67,1.53,.47,2.34-.15,.84-.49,1.65-.98,2.35-.47,.72-1.11,1.32-1.85,1.75-.71,.4-1.51,.61-2.32,.61-.61,.03-1.21-.14-1.72-.49-.41-.29-.7-.72-.82-1.21-.12-.47-.14-.97-.05-1.45m1.56-.03c-.11,.46-.01,.94,.25,1.32,.28,.36,.72,.56,1.17,.53,.46-.01,.92-.16,1.3-.42,.49-.33,.9-.77,1.2-1.28,.33-.51,.56-1.07,.67-1.67,.13-.49,.04-1-.24-1.42-.28-.35-.71-.54-1.15-.52-.82,.02-1.58,.42-2.07,1.08-.59,.67-.98,1.49-1.14,2.37m7.67,3.04l2.94-7.67h5.37l-.5,1.28h-3.78l-.71,1.84h3.71l-.49,1.29h-3.71l-1.25,3.26h-1.58Z" style="fill:#005596; fill-rule:evenodd;"/><path id="q" d="M17.58,23.29l1.55,.24c-.4,.8-1,1.47-1.74,1.98-.68,.45-1.48,.69-2.3,.68-.78,.07-1.55-.25-2.05-.85-.46-.73-.59-1.63-.37-2.46,.15-.85,.47-1.67,.95-2.39,.44-.69,1.05-1.26,1.76-1.66,.66-.37,1.4-.57,2.15-.57,.7-.05,1.38,.19,1.9,.66,.45,.49,.66,1.16,.59,1.82l-1.54,.15c.03-.35-.09-.7-.32-.97-.25-.22-.57-.32-.9-.3-.46,0-.91,.15-1.29,.4-.47,.32-.86,.74-1.12,1.24-.31,.52-.52,1.09-.63,1.69-.13,.48-.06,.99,.19,1.42,.23,.33,.61,.52,1.02,.5,.43,0,.84-.15,1.19-.4,.42-.3,.75-.71,.96-1.18m3.57,2.76l2.94-7.67h1.57l-2.93,7.67h-1.58Zm8.32,0h-1.58l2.45-6.39h-2.25l.49-1.28h6.04l-.49,1.28h-2.22l-2.44,6.39Zm9,0h-1.57l1.14-2.99-1.3-4.68h1.68l.58,2.17c.14,.52,.22,.9,.26,1.12,.17-.23,.36-.47,.57-.72l.9-1.02,1.36-1.56h1.83l-4.36,4.83-1.09,2.84Z" style="fill:#005596; fill-rule:evenodd;"/></g></svg>