<?xml version="1.0" encoding="UTF-8"?>
<svg id="Layer_1" xmlns="http://www.w3.org/2000/svg" version="1.1" viewBox="0 0 519.87 139.35">
  <!-- Generator: Adobe Illustrator 29.8.3, SVG Export Plug-In . SVG Version: 2.1.1 Build 3)  -->
  <defs>
    <style>
      .st0 {
        fill: #003a66;
      }
    </style>
  </defs>
  <circle class="st0" cx="226.42" cy="15.08" r="10.54"/>
  <path class="st0" d="M59.79,103.6c-.71-4.59,4.06-31.62,4.06-31.62l-5.65-.35c-1.59,7.24-10.95,28.26-10.95,28.26-5.53,10.22-10.56,9.67-10.56,9.67-8.73-.16-9.94-7.19-9.94-7.19-1.77-5.83-.53-26.67-.53-26.67.49-15.06,6.18-37.27,6.18-37.27,2.17-10.47,9.01-24.73,9.01-24.73,3.16-5.92,8.66-7.07,8.66-7.07,2.47-.88,5.48-.27,5.48-.27,3.05.34,4.21,2.27,4.21,2.27.98,1.9.38,7.36.38,7.36.18,11.13,3,17.84,3,17.84,3.18,6.89,6.36,5.12,6.36,5.12l3.53-27.91-4.63-4.17c-4.76-4.76-19.04-4.48-19.04-4.48-22.08,1.77-31.63,16.82-31.63,16.82C6.17,33.12,4.06,59.08,4.06,59.08c-2.65,14.66,2.2,31.97,2.2,31.97,1.87,7.98,8.13,14.06,8.13,14.06,8.04,7.67,22.61,7.67,22.61,7.67,13.78.18,22.79-9.19,22.79-9.19Z"/>
  <polygon class="st0" points="101.84 5.38 76.93 5.38 76.76 9.62 82.06 9.62 65.63 106.6 59.09 106.6 59.09 110.49 94.07 110.49 94.07 107.49 84.18 107.49 101.84 5.38"/>
  <path class="st0" d="M175.33,107.33s3.57-29.47,6.61-39.12c0,0,6.97-27.29,13.75-31.22l2.86-.36v12.86h6.07l5-17.33h-12.33s-9.65,2.5-12.86,15l1.79-13.81-22.96.03-.42,2.92h5.01l-11.15,70.96-5.15.03h-5.77l.25-1.59,5.7-47.52c3.36-14.31-5.48-21.9-5.48-21.9-9.36-9.01-27.21-4.77-27.21-4.77l-12.9,5.83-1.59,23.67,4.95.35s2.83-16.61,13.96-26.67c0,0,8.66-5.48,10.95,4.59,0,0,2.3,15.72-1.94,20.32,0,0-2.51,3.68-11.31,5.3,0,0-9.54,2.83-12.9,4.59,0,0-11.25,4.51-14.49,11.66,0,0-9.36,23.32,12.01,29.68,0,0,7.38,2.8,14.9-.74l2.2-1.57c2.3-1.59,4.55-6,4.55-6l-1.16,8.13h24.73l37.04.04.66-3.37h-13.4ZM133.69,67.18c0,11.84-5.12,30.21-5.12,30.21-4.98,11.91-10.07,8.83-10.07,8.83-7.92-3.68-7.5-15.17-7.5-15.17-.71-8.48,11.03-18.75,11.03-18.75,3.15-3.18,11.66-7.24,11.66-7.24v2.12Z"/>
  <polygon class="st0" points="222.83 107.54 234.74 31.96 213.66 31.96 212.94 35.35 215.8 35.35 203.73 107.29 191.43 107.29 190.76 110.75 233.68 110.75 234.04 107.54 222.83 107.54"/>
  <path class="st0" d="M298.56,107.15h-10.52l7.32-53.66s2.19-16.92-6.07-21.63c0,0-13.93-6.79-25.01,6.43l1.13-6.26h-22.52s-.41,2.87-.41,2.87h5.89l-11.07,70.75-.36,1.92-2.86-.03-.41,3.22,29.17.03,35.19-.03.52-3.61ZM278,57.24l-7.71,50-7.43-.03v.04h-8.22l3.39-24.83,4.64-27.15s1.88-19.13,11.71-19.48c0,0,4.07.12,4.6,5.33,0,0,0,6.85-.99,16.12Z"/>
  <path class="st0" d="M431.56,30.17c-16.77,0-32.36,18.15-34.82,40.55-.9,8.17.08,15.76,2.49,22.13-5.53,15.92-13.66,15.12-13.66,15.12-8.04-1.43-7.5-7.86-7.5-7.86l9.82-61.97h11.97l.57-4.82h-11.82l2.14-13.76h-16.81l-2.65,14.24h-14.49l-4.99-.13c-5.89-2.86-12.56-2.56-12.56-2.56-24.98-1.45-30.71,18.65-30.71,18.65-3.69,9.88,3.35,19.44,3.35,19.44-18.72,8.88-18.67,21.09-18.67,21.09-1.96,11.97,12.68,19.83,12.68,19.83-10.72,2.86-9.11,13.4-9.11,13.4,2.68,16.79,28.4,13.58,28.4,13.58,28.94-3.22,28.94-25.9,28.94-25.9.89-13.75-11.61-17.86-11.61-17.86l-23.94-1.61c-15-1.07-13.4-9.29-13.4-9.29.36-5.54,9.47-9.29,9.47-9.29,5.72,5,15.18,5.89,15.18,5.89,26.48.37,29.29-24.29,29.29-24.29,1.01-10.79-3.91-16.66-4.11-16.9h15.18l-7.85,45.66c-1.07,3.57-1.25,13.22-1.25,13.22,1.25,19.29,19.83,16.21,19.83,16.21,13.6-.85,18.81-16.31,19.27-17.75,4.47,9.78,12.56,16.1,22.45,16.1,16.77,0,32.36-18.15,34.82-40.55,2.46-22.39-9.14-40.55-25.91-40.55ZM309.84,111.54l27.15,1.43s8.22.18,6.43,9.47c0,0-1.79,10.36-19.65,11.61,0,0-20.54.89-19.65-12.5,0,0,.71-8.93,5.72-10ZM343.49,54.6c-2.24,11.65-8.38,21.1-13.7,21.1s-7.83-9.45-5.59-21.1c2.24-11.65,8.38-21.1,13.7-21.1s7.83,9.45,5.59,21.1ZM436.38,71.29c-2.24,20.7-8.38,37.48-13.7,37.48s-7.83-16.78-5.59-37.48c2.24-20.7,8.38-37.48,13.7-37.48s7.83,16.78,5.59,37.48Z"/>
  <path class="st0" d="M505.97,106.89l8.75-58.41s2.86-16.61-11.61-16.61c0,0-13.58-2.14-20.72,9.29l.89-7.66-22.15-.02v3.93h5.89l-11.61,68.95h-6.55l-.41,3.93h32.87l.46-3.22h-8.32l7.32-50.01s2.86-18.76,10.72-19.11c0,0,7.15-1.25,6.07,6.61l-8.75,62.37h-4.72l-.46,3.36h34.12l.46-3.39h-12.25Z"/>
</svg>