<?xml version="1.0" encoding="utf-8"?>
<!-- Generator: Adobe Illustrator 25.0.1, SVG Export Plug-In . SVG Version: 6.00 Build 0)  -->
<svg version="1.1" id="Layer_1" xmlns="http://www.w3.org/2000/svg" xmlns:xlink="http://www.w3.org/1999/xlink" x="0px" y="0px"
	 width="204px" height="134px" viewBox="0 0 204 134" style="enable-background:new 0 0 204 134;" xml:space="preserve">
<style type="text/css">
	.st0{fill:#024B99;}
	.st1{fill:#37AF4A;}
	.st2{fill:none;}
</style>
<g id="Group_6688" transform="translate(-172.06 -149.844)">
	<path id="Path_1630" class="st0" d="M342.9,269.3h-2.1l-3,7.8l-3-7.8h-2.1l4.1,9.8l-0.5,1.3c-0.3,0.7-0.5,1.2-1.3,1.2
		c-0.4,0-0.7-0.1-1.1-0.2l-0.4,1.6c0.6,0.2,1.2,0.4,1.9,0.4c1.1,0,1.9-0.6,2.6-2.3L342.9,269.3z M332.2,269.3
		c-0.3-0.1-0.7-0.2-1.1-0.2c-1.1,0-2.1,0.7-2.5,1.7h-0.1v-1.5h-2v10h2v-5c0-1.5,0.4-3.4,2.3-3.4c0.4,0,0.8,0.1,1.1,0.2h0.1
		L332.2,269.3z M325,279.3v-10h-2v5.4c0,1.7-0.7,3.2-2.5,3.2s-2.1-1.3-2.1-2.7v-5.9h-2v6c0,2.5,0.7,4.3,3.5,4.3
		c1.3,0,2.4-0.6,3.1-1.7v1.4L325,279.3L325,279.3z M313,274.3c0,2-1.2,3.5-3.2,3.5s-3.2-1.5-3.2-3.5s1.2-3.5,3.2-3.5
		S313,272.3,313,274.3 M315.1,274.3c0-3-1.9-5.2-4.8-5.2c-1.4-0.1-2.7,0.6-3.5,1.8l0,0v-6.1h-2v14.6h1.9v-1.6l0,0
		c0.8,1.2,2.1,1.9,3.5,1.8C313.2,279.5,315.1,277.3,315.1,274.3 M303.1,279.3v-6.1c0-2.2-0.7-4.1-3.4-4.1c-1.4,0-2.6,0.8-3.2,2
		c-0.4-1.3-1.6-2.1-3-2c-1.2,0-2.3,0.7-2.9,1.8h-0.1v-1.6h-2v10h2v-5.2c0-1.8,0.8-3.3,2.4-3.3c1.5,0,1.8,1.2,1.8,2.7v5.8h2v-5.2
		c0-1.8,0.8-3.3,2.4-3.3s1.8,1.5,1.8,2.7v5.8L303.1,279.3z M286.4,269.3h-2v10h2V269.3z M286.7,266c0-0.7-0.5-1.4-1.2-1.4
		s-1.4,0.5-1.4,1.2s0.5,1.4,1.2,1.4h0.1C286.1,267.3,286.7,266.8,286.7,266C286.7,266.1,286.7,266,286.7,266 M282.2,264.8h-2v14.6h2
		V264.8z M277.9,264.8h-2v14.6h2V264.8z M273.7,269.3h-2v10h2V269.3z M274,266c0-0.7-0.5-1.4-1.2-1.4s-1.4,0.5-1.4,1.2
		s0.5,1.4,1.2,1.4h0.1C273.3,267.3,273.9,266.8,274,266C274,266.1,274,266,274,266 M270.3,269.3h-2l-2.3,7.6l-2.6-7.6h-1.6l-2.6,7.6
		l-2.3-7.6h-2l3.3,10h1.9l2.7-7.5l2.6,7.5h1.9L270.3,269.3z M253.8,277.2v-5.7h-5.9v1.7h3.9v3.2c0,0-1.1,1.3-4.1,1.3
		s-5.4-2.2-5.4-5.7s2.3-5.7,5.3-5.7c1.7,0,3.4,0.7,4.5,2.1l1.4-1.3c-1.5-1.7-3.6-2.6-5.9-2.5c-4.1,0.1-7.5,3.5-7.4,7.6
		s3.4,7.4,7.4,7.4C251.7,279.6,253.5,277.5,253.8,277.2 M232.6,279.2l-0.1-1.6c-0.3,0.2-0.7,0.2-1,0.2c-0.4,0.1-0.8-0.1-1-0.5
		c-0.2-0.6-0.3-1.2-0.3-1.8V271h2.4v-1.6h-2.4v-3h-2v3h-1.5v1.6h1.5v4.6c0,2,0.1,4,2.6,4C231.4,279.6,232,279.5,232.6,279.2
		 M225.6,276.4c0-1.2-0.8-2.2-2-2.6c-0.4-0.2-0.8-0.3-1.4-0.5c-1-0.3-2-0.7-2-1.5s0.6-1.2,1.6-1.2s1.9,0.4,2.5,1.1l0.8-1.2
		c-0.9-0.9-2.1-1.4-3.4-1.3c-1.8,0-3.4,1-3.4,2.9s1.5,2.4,3,2.9c0.7,0.2,2.3,0.6,2.3,1.7s-1,1.4-1.9,1.4c-1.1-0.1-2.2-0.6-3-1.4
		l-1,1.2c0.9,1.2,2.4,1.8,3.9,1.8C223.8,279.6,225.6,278.5,225.6,276.4 M214.6,274.5v2.2c-0.6,0.9-1.5,1.4-2.6,1.4
		c-1.3,0-2.1-0.8-2.1-1.7s0.7-1.6,2.3-1.7L214.6,274.5z M216.6,279.3v-5.8c0-2.9-1.5-4.4-4.4-4.4c-1.3,0-2.6,0.4-3.8,1l0.6,1.3
		c0.9-0.5,2-0.8,3-0.9c1.2-0.2,2.3,0.7,2.5,1.9c0,0.1,0,0.3,0,0.4v0.4l-2.7,0.1c-2.3,0.1-3.9,1.1-3.9,3.1c0,1.8,1.5,3.1,3.3,3.1
		c0.1,0,0.1,0,0.2,0c1.2,0,2.4-0.6,3.2-1.5v1.3H216.6z M206.8,279.3v-1.7h-6.6v-5h6.1v-1.7h-6.1v-4.3h6.5v-1.7h-8.5v14.6
		L206.8,279.3z"/>
	<path id="Path_1631" class="st0" d="M223.1,167h36.8v-16H205v74.9c12.6-3.6,31-5.7,54.2,0.8c1.1,0.3,2.2,0.6,3.4,0.9v-12.3h-39.4
		V198h28.6v-15.4h-28.6V167H223.1z M319.4,203.2v10.1c-2.1,1.7-4.5,2.9-7.1,3.7c-2.9,0.8-5.8,1.2-8.8,1.1c-4.3,0.1-8.5-1-12.3-3.1
		c-3.6-2.1-6.6-5.2-8.6-8.9c-2.2-4.1-3.3-8.8-3.2-13.4c-0.1-4.5,0.9-8.9,2.8-13c1.8-3.8,4.5-7,8-9.3c3.8-2.4,8.1-3.6,12.6-3.5
		c4-0.1,8,0.9,11.4,2.9c3.2,2,6.1,4.5,8.4,7.5l12.3-11.7c-3.5-4.8-8.2-8.7-13.6-11.3c-11.4-5.1-24.4-5.4-36.1-0.8
		c-5,2-9.5,5.1-13.2,9s-6.6,8.5-8.6,13.5c-4.6,12.6-3.9,26.5,2,38.5c3.3,6.2,8.3,11.4,14.4,14.8c6.3,3.6,13.8,5.4,22.5,5.4
		c6.5,0.1,13-0.9,19.1-3c5.3-1.9,10.3-4.7,14.6-8.3v-34.8h-31v14.7L319.4,203.2z"/>
	<path id="Path_1632" class="st1" d="M172.8,247c0,0,30.4-12.8,82.3,4.2C255.1,251.2,213.3,241.6,172.8,247"/>
	<path id="Path_1633" class="st1" d="M370.6,188.7c0.3,6.1-15.7,17.1-15.7,17.1c-11.9,10.7-12.9,22.7-12.5,28.8
		c9.4-3.3,16.7-10.8,19.6-20.3c-3,14-12.2,19.9-19.4,22.4l0,0c-0.2,0.1-0.5,0.2-0.7,0.2c-18.1,6.1-41.5,3.7-83-7.9
		c-34.3-9.6-58.2-0.5-68.1,4.6c9.5-2.2,30.7-4.9,62,2.7c43.7,10.6,62,20,90.8,6.3c4.1-1.9,8.1-4.3,11.7-7c0.6-0.4,1.7-1.3,2.4-1.9
		c0.2-0.1,0.3-0.2,0.5-0.3l0,0l0,0c8.6-4.7,11.8-10.4,11.8-10.4C381.7,207.1,370.6,188.7,370.6,188.7"/>
	<path id="Path_1634" class="st0" d="M354.4,239.6l-0.2,0.1C354.3,239.7,354.4,239.7,354.4,239.6c-3.4,2.5-7,4.6-10.9,6.3
		c-29,13.5-47.2,3.9-90.7-7.1c-37.1-9.4-60.1-4-66.1-2.2c-3.4,1.8-6.6,3.9-9.6,6.2l1.7-0.4h0.2c7.2-2,30.4-6.6,66.8,2.2
		c11.3,2.7,20.8,5.5,29.2,7.9h-0.1c0,0,13.7,3.9,17.8,4.7c4.1,0.9,8.4,1.5,12.6,1.7c0.7,0.1,1.6,0.1,2.6,0.1
		c9.9,0.2,22.6-1.5,34.4-8.8c5-2.9,9.4-6.7,13.1-11.1L354.4,239.6z"/>
	<path id="Path_1635" class="st0" d="M353.7,240.1c0,0,1.4-1.1,1.6-1l-0.4,0.4L353.7,240.1z"/>
	<rect id="Rectangle_1191" x="172.8" y="150.3" class="st2" width="202.6" height="133.1"/>
</g>
</svg>
