<svg xmlns="http://www.w3.org/2000/svg" viewBox="0 0 279.9 64.8"><path d="M11.4 62.2h2.2V45.6l-2.2 1.2v15.4zm5.2-20.9l2.2-.9V37l-2.2.7v3.6zM8.3 16.9h3v27l2.2-1.2v-35h3V35c.7-.3 1.5-.5 2.2-.7V16.9h3v11.8c2.8-.6 5.7-.9 8.9-.9 3.3 0 6.4.4 9.5 1.1v-12h3v17.7c.7.2 1.5.5 2.2.8V7.7h3V43l2.2 1.2V16.9h3v45.2h5.2V2.6H2.6v59.6h5.7V16.9zm13.5 14.7v1.8a40.22 40.22 0 0 1 8.5-.9c3.4 0 6.7.4 9.8 1.2v-2c-3-.7-6.2-1.1-9.5-1.1-2.9.1-5.9.4-8.8 1zm-5.2 30.6h2.2v-19l-2.2.9v18.1zm26.7 0h2.2V44.4l-2.2-.9v18.7zm-21.5-20v19.9h18.4V42.4c-3.1-1-6.4-1.6-9.5-1.6-2.9 0-5.9.6-8.9 1.4zm26.7 20h2.2V47.1l-2.2-1.3v16.4zm-5.2-21.6l2.2.9v-3.2c-.7-.3-1.5-.6-2.2-.8v3.1zm-21.5-4.3v3.1c3-.9 6-1.4 8.9-1.4 3.1 0 6.3.6 9.5 1.5v-3c-3.1-.8-6.4-1.2-9.8-1.2-3 .1-5.8.4-8.6 1z" fill="#00578d"/><path d="M1 63.8h59.5V1H1v62.8zm12.6-1.6h-2.2V46.8l2.2-1.2v16.6zm5.2 0h-2.2v-18l2.2-.9v18.9zm0-21.8l-2.2.9v-3.5c.7-.3 1.5-.5 2.2-.7v3.3zm21.4 21.8H21.8v-20c2.9-.9 6-1.4 8.9-1.4 3.1 0 6.4.6 9.5 1.6v19.8zm0-22.6c-3.1-.9-6.4-1.5-9.5-1.5-2.9 0-6 .5-8.9 1.4v-3.1a40.22 40.22 0 0 1 8.5-.9c3.4 0 6.7.4 9.8 1.2v2.9zm0-5.8c-3.2-.8-6.5-1.2-9.8-1.2-2.9 0-5.8.3-8.5.9v-1.8c2.9-.6 5.9-1 8.9-1 3.3 0 6.4.4 9.5 1.1v2zm5.3 28.4h-2.2V43.4l2.2.9v17.9zm0-20.7l-2.2-.9v-3.1c.7.3 1.5.5 2.2.8v3.2zm5.2 20.7h-2.2V45.9c.8.4 1.5.8 2.2 1.3v15zM2.6 2.6h56.3v59.6h-5.2V16.9h-3v27.3L48.5 43V7.7h-3v27.7c-.7-.3-1.5-.6-2.2-.8V16.9h-3v11.9c-3.1-.7-6.2-1.1-9.5-1.1-3.2 0-6.1.3-8.9.9V16.9h-3v17.3l-2.2.7V7.7h-3v35l-2.2 1.2v-27h-3v45.2H2.6V2.6zm70.2 58.8h206.1v1.8H72.8z" fill="#e6d1ac"/><g fill="#00578d"><path d="M266.1 30.1c2.6 0 4.7 1.3 4.7 5.8v14.8c0 .6-.6.6-1.1.6h-2.1v1.4h11.1v-1.4h-2.2c-2.1 0-2.4 0-2.4-8.5h0v-8.1c0-3.4-1.5-7-6.8-7-3.7 0-6.7 2.1-9.6 4.5l.9 1c2.1-1.9 4.5-3.1 7.5-3.1zm-11.8 4.7v15.8c0 .6-.6.6-1.1.6h-2.1v1.4h11.1v-1.4H260c-2.1 0-2.4 0-2.4-8.5v-8.8c.3-.3.6-.5.9-.8l-.9-1v-4.5c-.8 0-2.2.2-3.9.5l-4 .4v1.4h3c1-.1 1.6-.1 1.6 4.9zm-17.5 18.6c4.5 0 12.4-3.6 12.4-13.7 0-6.9-4.2-12.2-11.1-12.2-4.5 0-12.4 3.6-12.4 13.7 0 7 4.3 12.2 11.1 12.2zm.2-24.2h0c6.2 0 8.7 6.1 8.7 11.5 0 5.1-1.5 11-7.7 11s-8.7-6.1-8.7-11.5c0-5.2 1.4-11 7.7-11zm-24.6.6h1.2v18.4c0 3 1.7 5.2 4.9 5.2 2 0 4.9-1 6.7-2l-.5-1.1c-1.2.5-2.5.9-3.8.9h0c-3.7 0-4-2.7-4-5.2V29.8h5.3c.4 0 .7-.1.8-1.4h-6.2V23h-.8l-4.6 5.4c-.3.3-.6.6-.6.9.2.5.4.5 1.6.5zm-10.1-9.5v30.3c0 .6-.6.6-1.1.6h-2.1v1.4h11.1v-1.4H208c-2.1 0-2.4 0-2.4-8.5v-30c-2.6.7-5.2 1.1-7.9 1.3v1.3h3c1 0 1.6 0 1.6 5zM189 21.4c1.1 0 2.1-1 2.1-2.2 0-1.1-1-2.1-2.1-2.1s-2.1 1-2.1 2.1c0 1.3.9 2.2 2.1 2.2zm-1.3 13.4v15.8c0 .6-.6.6-1.1.6h-2.1v1.4h11.1v-1.4h-2.3c-2.1 0-2.4 0-2.4-8.5V27.6c-.9 0-2.2.2-3.9.5l-4 .4v1.4h3c1-.1 1.7-.1 1.7 4.9zm-34.4-4.7c2.7 0 4.8 1.3 4.8 5.8v14.8c0 .6-.6.6-1.1.6h-2.1v1.4H166v-1.4h-2.3c-2.1 0-2.4 0-2.4-8.5h0V34c.3-.2.5-.4.8-.7h0c1.9-1.5 3.7-3 6.6-3.1 2.7 0 4.7 1.3 4.7 5.8v14.8c0 .6-.6.6-1.1.6h-2.1v1.4h11.1v-1.4H179c-2.1 0-2.4 0-2.4-8.5v-8.1c0-3.4-1.5-7-6.8-7-3.2 0-7.6 3.8-9 4.8-.6-3-3.1-4.8-6.2-4.8-3.5 0-5.8 2.5-8.7 4.5l.8 1.1c1.9-1.8 3.7-3.2 6.6-3.3z"/><path d="M142.7 34.8v15.8c0 .6-.6.6-1.1.6h-2.1v1.4h11.1v-1.4h-2.3c-2.1 0-2.4 0-2.4-8.5v-8.8c.3-.2.5-.4.8-.7l-.8-1.1v-4.5c-.9 0-2.2.2-3.9.5-1.3.2-3.2.4-4 .4v1.4h3c1-.1 1.7-.1 1.7 4.9zm-26.9 13.4c0 3.1 1.8 5.3 4.9 5.3 3.2 0 7.2-3.1 9.2-5.4.3 3 3.2 5.4 5.3 5.4L137 51c-4-.9-4-3.5-4-7h0v-9c0-4.2-.1-7.4-5.9-7.4-4.2 0-10.9 3-10.9 7.5 0 .6.5 1.2 1.2 1.2 1.8 0 2.7-2.6 2.7-4.9 1.4-1.2 3.7-1.8 5.5-1.8 4.1 0 4.1 2.8 4.1 4v3.8c-8 3.2-13.9 5.7-13.9 10.8zm14-2.1c-1.6 2.4-4.3 4.6-7.2 4.6-2.1 0-3.2-1.4-3.2-3.4 0-4.5 5.4-6.6 10.5-8.4v7.2zm-25.7-23.4v7 2.1 18.7c0 .5-.6.6-1.3.6h-2.6v1.7h13.7v-1.7h-3.6c-1.4 0-2.1-.2-2.1-9.3h0v-27c0-.6.7-.6 1.5-.6h2.5v-1.7H98.6v1.7h3.7c1.6 0 1.8 1.3 1.8 8.5zm-26.8 0v27.8c0 .5-.6.6-1.3.6h-2.6v1.7H87v-1.7h-3.6c-1.4 0-2.1-.2-2.1-9.3v-10H104v-2.1H81.4V14.9c0-.6.7-.6 1.5-.6h2.5v-1.7H71.7v1.7h3.7c1.7-.1 1.9 1.2 1.9 8.4z"/></g></svg>
