<svg width="244" height="51" viewBox="0 0 244 51" fill="none" xmlns="http://www.w3.org/2000/svg">
<path d="M109.075 14.6396H102.347V49.645H109.075V14.6396Z" fill="#283E7C"/>
<path d="M114.85 23.754H121.454V26.4095C122.954 25.1647 124.31 24.3072 125.527 23.8163C126.744 23.3322 127.989 23.0901 129.261 23.0901C131.868 23.0901 134.088 23.9891 135.907 25.7802C137.435 27.3016 138.203 29.556 138.203 32.5434V49.6519H131.668V38.3108C131.668 35.2265 131.529 33.1727 131.246 32.1561C130.962 31.1396 130.471 30.372 129.773 29.8395C129.074 29.307 128.203 29.0442 127.173 29.0442C125.838 29.0442 124.69 29.4868 123.736 30.3651C122.781 31.2433 122.118 32.4604 121.744 34.0163C121.551 34.8254 121.454 36.575 121.454 39.272V49.6588H114.85V23.7679V23.754Z" fill="#283E7C"/>
<path d="M143.941 23.754H150.546V26.4095C152.046 25.1647 153.402 24.3072 154.619 23.8163C155.836 23.3322 157.081 23.0901 158.353 23.0901C160.96 23.0901 163.18 23.9891 164.999 25.7802C166.527 27.3016 167.294 29.556 167.294 32.5434V49.6519H160.759V38.3108C160.759 35.2265 160.621 33.1727 160.338 32.1561C160.054 31.1396 159.563 30.372 158.865 29.8395C158.166 29.307 157.302 29.0442 156.271 29.0442C154.937 29.0442 153.789 29.4868 152.834 30.3651C151.873 31.2433 151.209 32.4604 150.843 34.0163C150.649 34.8254 150.552 36.575 150.552 39.272V49.6588H143.948V23.7679L143.941 23.754Z" fill="#283E7C"/>
<path d="M176.389 13.0975C177.551 13.0975 178.54 13.5125 179.369 14.3354C180.199 15.1583 180.614 16.161 180.614 17.3366C180.614 18.5122 180.206 19.4804 179.383 20.2964C178.56 21.1124 177.578 21.5204 176.437 21.5204C175.296 21.5204 174.259 21.1055 173.436 20.2687C172.606 19.4389 172.191 18.4223 172.191 17.2329C172.191 16.0435 172.599 15.1168 173.422 14.3077C174.245 13.4986 175.234 13.0906 176.389 13.0906M173.083 23.754H179.695V49.645H173.083V23.754Z" fill="#283E7C"/>
<path d="M202.395 27.3776L198.308 31.3954C196.642 29.7773 195.134 28.9682 193.779 28.9682C193.039 28.9682 192.458 29.1203 192.036 29.4315C191.614 29.7427 191.407 30.123 191.407 30.5863C191.407 30.9321 191.538 31.2571 191.808 31.5476C192.071 31.8449 192.728 32.246 193.779 32.7508L196.199 33.9403C198.751 35.1781 200.501 36.4367 201.455 37.7229C202.402 39.0092 202.879 40.5167 202.879 42.2456C202.879 44.5484 202.022 46.4639 200.3 48.006C198.578 49.5412 196.275 50.3157 193.392 50.3157C189.554 50.3157 186.483 48.8428 184.194 45.8899L188.261 41.5333C189.035 42.4254 189.941 43.1376 190.978 43.6839C192.022 44.2303 192.942 44.5069 193.751 44.5069C194.623 44.5069 195.328 44.2994 195.854 43.8914C196.386 43.4765 196.656 42.9993 196.656 42.4599C196.656 41.4572 195.695 40.4822 193.772 39.5348L191.545 38.4421C187.285 36.333 185.156 33.6913 185.156 30.5172C185.156 28.4703 185.958 26.7207 187.562 25.2685C189.166 23.8163 191.22 23.0901 193.724 23.0901C195.432 23.0901 197.043 23.4636 198.551 24.1966C200.058 24.9365 201.337 25.9946 202.389 27.3776" fill="#283E7C"/>
<path d="M205.867 23.754H208.218C208.232 20.3586 208.288 18.3532 208.384 17.7308C208.564 16.3062 209.173 15.1721 210.21 14.3423C211.247 13.5055 212.72 13.0906 214.629 13.0906C215.998 13.0906 217.547 13.4018 219.276 14.0173V18.9686C218.322 18.6989 217.54 18.5606 216.932 18.5606C216.157 18.5606 215.59 18.7197 215.237 19.0378C214.975 19.2798 214.85 19.7639 214.85 20.5108L214.823 23.7471H219.013V29.2448H214.823V49.638H208.218V29.2448H205.867V23.7471V23.754Z" fill="#283E7C"/>
<path d="M227.141 13.0975C228.296 13.0975 229.292 13.5125 230.121 14.3354C230.951 15.1583 231.366 16.161 231.366 17.3366C231.366 18.5122 230.958 19.4804 230.135 20.2964C229.312 21.1124 228.33 21.5204 227.189 21.5204C226.048 21.5204 225.011 21.1055 224.188 20.2687C223.358 19.4389 222.943 18.4223 222.943 17.2329C222.943 16.0435 223.351 15.1168 224.174 14.3077C224.997 13.4986 225.986 13.0906 227.141 13.0906M223.835 23.754H230.44V49.645H223.835V23.754Z" fill="#283E7C"/>
<path d="M244 13.7614H237.396V49.6519H244V13.7614Z" fill="#283E7C"/>
<path d="M85.6799 17.1429C85.6799 17.1429 87.5609 25.6418 72.7275 25.3998C72.7275 25.3998 85.3826 24.9434 82.7133 34.2929C82.7133 34.2929 89.2344 26.6169 94.1235 24.3417C94.1235 24.3417 86.6896 23.8231 85.6868 17.1498L85.6799 17.1429Z" fill="#F1AB1E"/>
<path d="M70.963 5.34551C70.963 5.34551 73.0237 14.7503 55.2168 14.4461C55.2168 14.4461 75.9074 14.1418 72.7194 25.3999C72.7194 25.3999 79.7592 19.8746 85.6718 17.143C85.6718 17.143 72.1731 13.3534 70.956 5.33859L70.963 5.34551Z" fill="#EC8023"/>
<path d="M72.7194 25.3999C72.7194 25.3999 74.8147 35.8697 57.0078 35.5654C57.0078 35.5654 73.8743 35.8973 70.6863 47.1901C70.6863 47.1901 76.7856 37.0245 82.6982 34.293C82.6982 34.293 73.9296 33.3802 72.7125 25.3999H72.7194Z" fill="#DE5726"/>
<path d="M55.219 14.446C55.219 14.446 57.4941 24.9434 39.2861 24.6461C39.2861 24.6461 60.2188 24.0375 57.0032 35.5653C57.0032 35.5653 66.65 28.166 72.7147 25.3998C72.7147 25.3998 56.4845 22.6683 55.2121 14.446H55.219Z" fill="#599141"/>
<path d="M37.1357 0C37.1357 0 39.8949 12.5305 17.9941 12.1709C17.9941 12.1709 43.2074 10.7741 39.2933 24.6462C39.2933 24.6462 47.9374 17.8484 55.2262 14.4461C55.2262 14.4461 38.6571 9.80591 37.1426 0H37.1357Z" fill="#7FC343"/>
<path d="M17.9936 12.081C17.9936 12.081 21.9077 24.6461 0 24.2796C0 24.2796 23.8786 23.3115 19.9645 37.1144C19.9645 37.1144 32.011 27.9793 39.2928 24.6392C39.2928 24.6392 19.515 21.9077 17.9936 12.0741V12.081Z" fill="#399CD7"/>
<path d="M39.2922 24.6459C39.2922 24.6459 40.6268 35.4131 19.9639 37.1211C19.9639 37.1211 42.7775 34.2098 38.898 48.0128C38.898 48.0128 49.7619 38.9399 57.0092 35.5721C57.0092 35.5721 40.779 34.4518 39.2922 24.6528V24.6459Z" fill="#366FB2"/>
</svg>
