<svg xmlns="http://www.w3.org/2000/svg" xmlns:xlink="http://www.w3.org/1999/xlink" width="287.617" height="95.231" viewBox="0 0 287.617 95.231">
  <defs>
    <clipPath id="clip-path">
      <rect id="Rectangle_764" data-name="Rectangle 764" width="287.617" height="95.232" fill="none"/>
    </clipPath>
  </defs>
  <g id="Group_1183" data-name="Group 1183" transform="translate(-101 -22.87)">
    <g id="Group_644" data-name="Group 644" transform="translate(0 -38.13)">
      <g id="Group_643" data-name="Group 643" transform="translate(101 61)">
        <g id="Group_642" data-name="Group 642" clip-path="url(#clip-path)">
          <path id="Path_787" data-name="Path 787" d="M340.366,160.5l-.045-.045A47.367,47.367,0,0,0,308.133,147.1q-.568,1.164-1.075,2.36a48.023,48.023,0,0,0-3.513,13.479,32.659,32.659,0,0,1,4.032-.25,31.978,31.978,0,0,1,30.189,21.494c-.091-1.456-.144-2.923-.144-4.4a68.839,68.839,0,0,1,2.744-19.284" transform="translate(-287.64 -114.124)" fill="#ed5338"/>
          <path id="Path_788" data-name="Path 788" d="M357.849,129.6a69.369,69.369,0,0,0-27.961,37.833l-.013.045a47.48,47.48,0,0,1,12.866,21.943q.229.864.425,1.742c-.046-.579-.087-1.161-.115-1.742q-.065-1.324-.066-2.658a53.31,53.31,0,0,1,30.321-48.065l0,0a48.418,48.418,0,0,0-13.01-8.139c-.808-.343-1.624-.659-2.444-.955" transform="translate(-277.15 -121.098)" fill="#b5c427"/>
          <path id="Path_789" data-name="Path 789" d="M330.658,156.684a68.837,68.837,0,0,0-2.744,19.284c0,1.479.053,2.946.144,4.4h15.891q-.2-.879-.425-1.744a47.482,47.482,0,0,0-12.866-21.942" transform="translate(-277.932 -110.307)" fill="#00562f"/>
          <path id="Path_790" data-name="Path 790" d="M367.534,140.126a50.984,50.984,0,0,1,14.63-3.86,64.562,64.562,0,0,0-14.634-12.748,68.554,68.554,0,0,0-17.65,8.5q1.233.443,2.444.954a48.344,48.344,0,0,1,13.01,8.14l0,0,.007,0q1.082-.516,2.188-.986" transform="translate(-269.181 -123.519)" fill="#007db3"/>
          <path id="Path_791" data-name="Path 791" d="M306.323,204.091h22.733a48.944,48.944,0,0,1-17.473-21.3,48.3,48.3,0,0,1-3.815-18.92,49.434,49.434,0,0,1,.3-5.44,31.6,31.6,0,0,0-15.888,6.722,63.924,63.924,0,0,0,14.14,38.938" transform="translate(-292.166 -109.611)" fill="#ba0e82"/>
          <path id="Path_792" data-name="Path 792" d="M312.665,147.107l-.3-.007-.417-.006a47.407,47.407,0,0,0-17.214,3.272,64.2,64.2,0,0,0-2.569,18.019c0,.429.008.857.017,1.284a31.62,31.62,0,0,1,15.888-6.723,48.079,48.079,0,0,1,3.513-13.48q.508-1.2,1.077-2.359" transform="translate(-292.171 -114.127)" fill="#870052"/>
          <path id="Path_793" data-name="Path 793" d="M379.087,132.636a50.984,50.984,0,0,0-14.63,3.86q-1.108.468-2.187.986l-.008,0q1.256,1.1,2.444,2.282a48.656,48.656,0,0,1-6.728,74.378l-.373.221h22.788a63.819,63.819,0,0,0-1.306-81.731" transform="translate(-266.104 -119.887)" fill="#14bdef"/>
          <path id="Path_794" data-name="Path 794" d="M444.065,199.836V176.288h-8.249v-7.141h25.3v7.141h-8.248v23.547Z" transform="translate(-234.947 -105.342)" fill="#231f20" fill-rule="evenodd"/>
          <path id="Path_795" data-name="Path 795" d="M426.062,199.836V169.147h8.847v23.73H445.83v6.958Z" transform="translate(-238.833 -105.342)" fill="#231f20" fill-rule="evenodd"/>
          <rect id="Rectangle_763" data-name="Rectangle 763" width="8.847" height="30.689" transform="translate(175.708 63.804)" fill="#231f20"/>
          <path id="Path_796" data-name="Path 796" d="M388.593,199.836l4.285-30.689h8.572l5.114,17.418c.554,1.934,1.2,4.792,1.245,4.977h.092c.046-.185.737-3.043,1.337-4.977l5.391-17.418H423.2l4.24,30.689h-8.986l-1.429-12.487c-.276-2.3-.506-4.286-.506-4.609h-.092c-.046.323-.554,2.351-1.152,4.471l-3.548,12.626h-8.709l-3.455-12.58c-.508-1.889-1.061-4.24-1.107-4.517h-.092c0,.323-.137,2.628-.368,4.609l-1.566,12.487Z" transform="translate(-253.759 -105.342)" fill="#231f20" fill-rule="evenodd"/>
          <path id="Path_797" data-name="Path 797" d="M469.3,200.775a16.066,16.066,0,1,1,11.36-4.706,16.065,16.065,0,0,1-11.36,4.706m-5.633-10.444a7.967,7.967,0,1,0-2.332-5.633,7.966,7.966,0,0,0,2.332,5.633" transform="translate(-228.01 -105.543)" fill="#231f20" fill-rule="evenodd"/>
          <path id="Path_798" data-name="Path 798" d="M477.354,199.815V169.126h8.894l8.386,12.026a58.061,58.061,0,0,1,3.549,5.669h.091c-.046-.231-.185-2.9-.185-5.346V169.126h7.926v30.689H498l-9.4-13.224a54.507,54.507,0,0,1-3.363-5.115h-.092c0,.277.138,2.351.138,4.654v13.686Z" transform="translate(-218.399 -105.35)" fill="#231f20" fill-rule="evenodd"/>
        </g>
      </g>
    </g>
  </g>
</svg>
