<svg width="151" height="98" viewBox="0 0 151 98" fill="none" xmlns="http://www.w3.org/2000/svg">
<g clip-path="url(#clip0_16404_2009)">
<path d="M100.482 32.7531C127.452 32.2607 127.633 53.9483 125.38 68.1298H115.497C121.218 55.7374 121.203 43.5856 114.116 37.3537C110.595 34.2566 105.969 33.1327 100.444 33.3545L100.482 32.7531Z" fill="#132B4F"/>
<path d="M102.233 16.8464L99.4629 29.0959C80.8171 28.7727 56.1561 42.4543 36.5292 65.8671C35.9103 66.6075 35.3065 67.348 34.7065 68.096H33.4122V0L102.233 16.8464Z" fill="#132B4F"/>
<path d="M98.444 33.4485L90.3872 68.0997H57.2731C59.7713 62.3903 63.5073 56.5831 68.3942 51.212C77.6397 41.0372 88.8324 34.7678 98.4477 33.4522" fill="#132B4F"/>
<path d="M15.6834 94.2488H15.7476V75.4968H17.9514V97.6241H15.1966L2.26798 78.6842H2.20383V97.6241H0V75.4968H2.75856L15.6834 94.2488Z" fill="#132B4F"/>
<path d="M23.7402 90.8735C23.9855 93.8128 26.1591 96.1244 29.0083 96.1244C31.1517 96.1244 32.8084 94.9066 33.6046 93.5948L35.1669 94.9066C33.4839 97.0942 31.3668 98 29.0083 98C24.7478 98 21.593 94.7187 21.593 90.3135C21.593 85.9083 24.7478 82.6233 28.8234 82.6233C33.1744 82.6533 35.6839 85.9346 35.6839 89.9376V90.8735H23.7364H23.7402ZM33.4839 89.1859C33.4839 86.4045 31.7366 84.4988 28.8271 84.4988C26.1931 84.4988 23.8044 86.7803 23.8044 89.1859H33.4839Z" fill="#132B4F"/>
<path d="M39.6727 82.9991L42.9822 94.8728H43.0426L46.8729 82.9991H48.9559L52.7862 94.8728H52.8466L56.1561 82.9991H58.5449L54.0089 97.6241H51.7447L47.9446 85.6227H47.8842L44.0841 97.6241H41.8161L37.284 82.9991H39.6727Z" fill="#132B4F"/>
<path d="M61.3298 86.2466C61.3298 85.1528 61.2393 84.0891 61.1751 82.9954H63.3487V85.213H63.4091C64.3903 83.5253 66.3186 82.6195 68.0357 82.6195C69.598 82.6195 71.6508 83.1495 72.6018 85.649C73.4282 83.7734 75.3906 82.6195 77.3189 82.6195C80.9643 82.6195 82.7115 84.7131 82.7115 88.3364V97.6166H80.6888V89.0844C80.6888 86.1151 79.8624 84.4913 77.0736 84.4913C74.0698 84.4913 73.0282 87.1149 73.0282 89.8361V97.6166H71.0055V89.0844C71.0055 86.1151 70.1791 84.4913 67.3904 84.4913C66.8998 84.4913 63.345 84.7732 63.345 90.1143V97.6166H61.3223V86.2428L61.3298 86.2466Z" fill="#132B4F"/>
<path d="M95.859 88.6559V88.2801C95.859 85.7505 94.6627 84.4988 92.1797 84.4988C90.4966 84.4988 89.0249 85.0927 87.7984 86.2165L86.572 84.7469C87.889 83.3712 89.9419 82.6233 92.6363 82.6233C95.3307 82.6233 97.8741 84.247 97.8741 87.8102V94.3428C97.8741 95.4667 97.9949 96.8423 98.1194 97.6241H96.1571C96.0364 96.9062 95.976 96.0305 95.976 95.2486H95.9156C94.7533 97.1881 93.1608 98 90.8626 98C88.3192 98 85.9305 96.5642 85.9305 93.7189C85.9305 88.9679 91.4136 88.6559 94.8439 88.6559H95.8552H95.859ZM94.8175 90.3398C92.7646 90.3398 88.138 90.4977 88.138 93.4332C88.138 95.3689 89.8853 96.1207 91.5079 96.1207C94.4476 96.1207 95.859 93.997 95.859 91.4035V90.3398H94.8175Z" fill="#132B4F"/>
<path d="M102.474 87.5622C102.474 86.2504 102.414 85.1265 102.35 82.9991H104.342V85.7166H104.403C104.984 84.1568 106.486 82.6233 108.999 82.6233C109.58 82.6233 110.071 82.6872 110.501 82.8112L110.101 84.8409C109.856 84.7469 109.49 84.6868 108.939 84.6868C105.874 84.6868 104.497 87.4043 104.497 89.3738V97.6241H102.474V87.5622Z" fill="#132B4F"/>
<path d="M115.218 89.5918L121.988 82.9991H125.022L117.886 89.6858L125.788 97.6241H122.663L115.218 89.9339V97.6241H113.199V73.9971H115.218V89.5918Z" fill="#132B4F"/>
<path d="M128.301 90.8735C128.547 93.8128 130.72 96.1244 133.569 96.1244C135.713 96.1244 137.366 94.9066 138.162 93.5948L139.724 94.9066C138.041 97.0942 135.928 98 133.569 98C129.309 98 126.158 94.7187 126.158 90.3135C126.158 85.9083 129.313 82.6233 133.388 82.6233C137.739 82.6533 140.249 85.9346 140.249 89.9376V90.8735H128.301ZM138.041 89.1859C138.041 86.4045 136.294 84.4988 133.384 84.4988C130.75 84.4988 128.358 86.7803 128.358 89.1859H138.041Z" fill="#132B4F"/>
<path d="M150.879 84.8747H146.743V93.5009C146.743 95.6884 147.57 96.1244 148.826 96.1244C149.532 96.1244 150.294 95.9064 150.909 95.5606L151 97.4663C150.264 97.8121 149.283 97.9962 148.275 97.9962C146.743 97.9962 144.721 97.3084 144.721 94.091V84.8709H141.687V82.9954H144.721V78.8721H146.743V82.9954H150.879V84.8709V84.8747Z" fill="#132B4F"/>
</g>
<defs>
<clipPath id="clip0_16404_2009">
<rect width="151" height="98" fill="white"/>
</clipPath>
</defs>
</svg>
