<?xml version="1.0" encoding="UTF-8"?>
<svg id="Layer_1" xmlns="http://www.w3.org/2000/svg" version="1.1" viewBox="0 0 165.79 53.62">
  <!-- Generator: Adobe Illustrator 29.4.0, SVG Export Plug-In . SVG Version: 2.1.0 Build 152)  -->
  <g>
    <g>
      <path d="M6.39,14.52s36.6-3.08-4.29,27.33c0,0,52.59-33.87,4.29-27.33Z" fill="#f57e20"/>
      <path d="M30.88,1.76s-13.78,31.48,29.11,1.09c0,0-31.25,19.19-29.11-1.09Z" fill="#9d3f97"/>
      <path d="M68.77,6.55s-52.81,13.78-8.67,31.96c.31.13-.09-.18.19,0,0,0-32.16-15.4,8.48-31.95Z" fill="#68bd49"/>
      <path d="M5.4,51.86s22.3-46.53,49.58-6.48c0,0-24.72-27.83-49.58,6.48Z" fill="#009bda"/>
    </g>
    <g>
      <path d="M78.2,26.99c-.24,1.28-.73,2.57-1.74,3.57-2.23,2.26-5.77,2.26-6.9,2.26-1.5,0-2.75-.14-3.88-.43-2.87-.79-5.13-2.55-5.13-7.47,0-.36,0-.74.03-1.12.06-1.97.34-4.42,1.89-6.07,2.29-2.36,6.14-2.36,7.24-2.36,1.34,0,2.72.12,4,.5,1.16.36,2.26.95,2.99,1.71,1.56,1.57,1.8,4.23,1.8,6.26,0,1.05-.09,2.09-.31,3.14ZM75.11,20.23c-.61-2.14-2.29-3.43-5.4-3.43-.79,0-1.59.07-2.32.29-2.96.86-3.79,3.19-3.79,7.66,0,1.5.21,3.45,1.07,4.66,1.31,1.83,3.54,1.97,4.76,1.97.82,0,1.65-.09,2.41-.33.79-.24,1.5-.64,2.01-1.17,1.4-1.4,1.59-4.35,1.59-6.26,0-1.14-.03-2.28-.34-3.4Z" fill="#19286c"/>
      <path d="M84.48,26.97c-1.37-.33-3.72-.9-3.72-3.09,0-2.33,2.26-3.52,5.43-3.52,1.47,0,2.9.31,3.82.86,1.47.93,1.43,2.28,1.43,2.78h-2.5c.03-.29.09-.62-.09-1.05-.4-.9-1.4-1.33-2.78-1.33-1.77,0-2.9.79-2.9,1.74,0,1.24,1.59,1.62,3.18,2.02l1.04.24c1.07.26,2.14.52,2.96,1.07.24.14,1.4.93,1.4,2.47,0,.81-.4,3.59-5.68,3.59-2.44,0-5.89-.48-5.71-3.93h2.6c-.06.93.06,2.59,3.33,2.59.4,0,2.9,0,2.9-1.88,0-1.47-1.53-1.83-3.02-2.16l-1.68-.4Z" fill="#19286c"/>
      <path d="M106.37,32.51h-2.63v-6.99c0-.57.03-1.12-.06-1.67-.06-.45-.34-2.16-2.99-2.16-.67,0-1.25.1-1.77.26-1.98.64-2.05,1.81-2.08,2.55v8.02h-2.6V15.69h2.6v6.26c.85-.62,2.41-1.59,4.98-1.59,1.4,0,2.81.36,3.66,1.21.86.88.86,1.97.89,2.88v8.06Z" fill="#19286c"/>
      <path d="M121.7,32.51h-1.98c-1.16,0-1.34-.31-1.28-1.33-.43.31-.92.67-1.83,1-1.04.38-2.14.57-3.15.57-3.42,0-4.31-2.07-4.31-3.43,0-.5.12-.98.37-1.4,1.04-1.88,3.57-2.12,6.35-2.38l2.56-.21v-1.07c-.03-1.05-.06-2.57-2.84-2.57-.52,0-1.74,0-2.59.69-.82.64-.86,1.5-.86,2.02h-2.47c0-.5-.03-1.24.43-1.95.79-1.28,2.9-2.09,5.74-2.09,1.07,0,3.05.17,4.09.95,1.07.83,1.07,2,1.07,2.85v6.54c0,.5,0,.83.15,1.12.15.31.31.36.55.4v.29ZM118.43,26.44l-.76.07c-2.38.21-3.73.45-4.4.76-1.04.48-1.37,1.19-1.37,1.9,0,1.33,1.13,2.21,2.78,2.21.82,0,1.74-.24,2.35-.55,1.34-.67,1.37-1.62,1.4-2.36v-2.05Z" fill="#19286c"/>
      <path d="M139.62,32.51h-2.81l-2.84-7.59c-.27-.79-.31-.86-.58-1.69-.15.52-.24.79-.43,1.26l-3.24,8.02h-2.78l-4.43-11.9h2.78l2.81,8.3c.27.71.31.81.52,1.64.24-.81.31-.9.58-1.71l3.3-8.23h2.41l2.81,7.76c.34,1.05.37,1.17.67,2.19.15-.62.21-.81.4-1.38l3.05-8.56h2.29l-4.52,11.9Z" fill="#19286c"/>
      <path d="M157.23,32.51h-1.98c-1.16,0-1.34-.31-1.28-1.33-.43.31-.92.67-1.83,1-1.04.38-2.14.57-3.14.57-3.42,0-4.31-2.07-4.31-3.43,0-.5.12-.98.37-1.4,1.04-1.88,3.57-2.12,6.35-2.38l2.56-.21v-1.07c-.03-1.05-.06-2.57-2.84-2.57-.52,0-1.74,0-2.6.69-.82.64-.85,1.5-.85,2.02h-2.47c0-.5-.03-1.24.43-1.95.79-1.28,2.9-2.09,5.74-2.09,1.07,0,3.05.17,4.09.95,1.07.83,1.07,2,1.07,2.85v6.54c0,.5,0,.83.15,1.12.15.31.31.36.55.4v.29ZM153.96,26.44l-.76.07c-2.38.21-3.72.45-4.4.76-1.04.48-1.37,1.19-1.37,1.9,0,1.33,1.13,2.21,2.78,2.21.82,0,1.74-.24,2.35-.55,1.34-.67,1.37-1.62,1.4-2.36v-2.05Z" fill="#19286c"/>
    </g>
  </g>
  <path d="M161.65,20.29c1.37,0,2.46,1.11,2.46,2.5s-1.09,2.51-2.47,2.51-2.48-1.1-2.48-2.51,1.11-2.5,2.48-2.5h.01ZM161.64,20.68c-1.1,0-2,.94-2,2.11s.9,2.12,2.01,2.12c1.11.01,2-.93,2-2.11s-.89-2.12-2-2.12h-.01ZM161.17,24.24h-.44v-2.79c.23-.03.46-.07.79-.07.42,0,.7.09.87.21.17.12.26.31.26.58,0,.37-.24.59-.54.68v.02c.24.04.41.27.47.68.07.43.13.6.18.69h-.47c-.07-.09-.13-.34-.19-.71-.07-.36-.24-.49-.6-.49h-.31v1.2ZM161.17,22.7h.32c.37,0,.68-.13.68-.48,0-.24-.18-.49-.68-.49-.14,0-.24.01-.32.02v.94Z" fill="#19286c"/>
</svg>