<svg xmlns="http://www.w3.org/2000/svg" width="197.91" height="65.58" viewBox="0 0 197.91 65.58"><defs><style>.a,.b{fill:#00463c}.a{opacity:.75}</style></defs><title>logo</title><path class="a" d="M82.15 4.68c-4.57 1.12-12.79 7.7-11.8 14.37.62 4.12 8.26 1.6 10.75-.75.38-.42.61.06.2.57-2.52 3.08-8.86 4.92-11.16 2.29-5.57-6.42 5.72-17.85 12.63-17.85a2.14 2.14 0 0 1 1.87 3.17c-.61 1.18-2.09.87-1.39 0 .75-1.09.34-2.16-1.1-1.8zM85.94 13.36c.45 1.18-3.06 5-3.42 7.14-.38 1.93 3.25 0 5.41-2.37.36-.36.64-.06.21.45-1.48 1.79-4.94 4.08-6.12 3.16-1.45-1.12.34-4.76 2.59-8.54.19-.31-.22-.2 0-.62.09-.26 1.05.22 1.33.78zm-.16-3.78c.35-.2 1.23-.06 1.9-.67.1-.08.14.06.12.39-.28 1.48-1.71 1.82-2.16.87-.11-.25-.02-.53.14-.59z"/><path class="a" d="M96.6 2.19c1.2.2.3 3-2.06 6.79h2.38c1.23 0 1.08.5.05.59l-2.43.08c-.25 0-.3 0-.35.11-1 1.88-4.5 7.65-5.05 10.08s4.45-.44 6.88-2.68c.49-.45.2.51-.34 1.1-2.13 2.41-6.25 4.41-7.48 3.49-2-1.51 1.7-7.67 4-12 .07-.17.07-.2 0-.2-1.82.06-2.13 0-2.21-.28S90 9 90.42 9c1.06-.06 2.27 0 2.27 0a67.91 67.91 0 0 0 3.85-6.5c-.21-.11-.17-.34.06-.31z"/><path class="a" d="M92.68 29.41c.5-2.63 4.5-6.09 8.44-8a14 14 0 0 0 1-2c1.08-2.43 2.21-6.07 1.34-5.23-3 2.84-6.35 10.31-8.08 5.73-.63-1.69 3.57-7.33 3.18-7.52-.12-.08-.23 0-.21-.28.08-.46 1.65.27 1.06 1.74s-2.41 4-2.81 5.39c-1.29 4.37 6.73-7 7.71-6.83s1 1.11.48 3.19c-.24.92-2.27 5.81-2.8 7.17-2.36 6.08-5.49 9.67-7.85 9.67-1.86.03-1.75-1.51-1.46-3.03zm2.47 1.92a21.39 21.39 0 0 0 5.8-8.69c-1.66.41-7.24 5.07-7.34 7.16-.08 1.58.39 2.2 1.53 1.53zM117.11 12.36c.72.68.66.74.31 1.17a3.44 3.44 0 0 1 1.32 1.15c1.69 2.43-3.56 6.82-5.55 5.56-2.66-1.71.83-6.06 3.2-7.85.32-.25.48-.25.72-.03zm-.2 1.64c-1.64 1.17-3.84 3.94-3.54 5.24.18.68.83.72 1.8.27 2.09-.95 3.62-3.11 3-4.68a1.35 1.35 0 0 0-1.26-.83zM130.58 0c1.42 1-3.86 10.5-5.81 13.34-.2.31-.24.46 0 .46h4c.23 0 .31.28 0 .33-.57.15-3.14.23-4.38.31-.25 0-.4.38-.21.43 4.54 1.84.4 9.9-3.12 12.32-2.21 1.5-5.21-.87 1.05-12.39 0-.1 0-.31-.58-.43s-.9-.13-.94-.46c0-.1.27-.1.42-.1 1.08.05 1.65 0 1.79-.23C124 11.8 130.93.45 130.27.22c-.08-.02.07-.33.31-.22zm-7.16 15.5c-4.25 6.53-5.8 13.08-2.93 11.17 3.31-2.17 6.79-9.69 3.18-11.47 0 .04-.07.04-.25.35zM65.35 16.93H0v-1.39h65.35v1.39zM197.91 16.93h-66.4v-1.39h66.4v1.39z"/><path class="b" d="M15.3 42.94q-.09-6-6.46-6a40.9 40.9 0 0 0-4.14.27q-.27 9.59-.27 17.47 0 5.52.18 10.18v.09q-2.22 0-4.31.18.13-3.21.27-12v-2.81Q.66 42 .43 34.66q1.13 0 4.62-.23 2.77-.18 4.62-.18 9.52 0 9.61 8.5a9.57 9.57 0 0 1-1.22 4.93Q15.16 52.89 6.28 53l-1-2.58a22 22 0 0 0 5.12-.68q4.99-1.51 4.9-6.8zM29.85 64.86q-1.81.09-4.31.27.54-12.56.36-27.56h-2.35l.59-2.5.27-.22 5.71-.13q-.45 9.84-.45 18.86 0 5.79.18 11.28zM56.41 59.55q-.18 2.4-.27 3.85l-.09.13a15.49 15.49 0 0 1-7.89 2q-6.39 0-9.88-4.31Q35.1 57.33 35 50.76q-.18-7.48 3.31-12 3.85-4.94 11.15-4.94A18 18 0 0 1 55.78 35q.09 1.63.23 4.81l-.09.09-2.22-.41-.7-2.29a10.92 10.92 0 0 0-3.63-.86 8.76 8.76 0 0 0-7.87 4.26q-2.45 3.81-2.31 9.93A15.58 15.58 0 0 0 41.45 59a8.41 8.41 0 0 0 7.43 3.85q3.59-.04 7.53-3.3zM80.48 34.75q-3.4 4.4-10.24 13.6a161.5 161.5 0 0 0 12.51 16.37v.14q-3.26.09-5 .32l-.34-.18q-3.89-5.3-11.62-16.09-.09 11 0 16h-.09q-2.22 0-4.31.23.68-14.75.5-26.15 0-2.27-.23-4.18 1.4 0 4.49-.23-.23 4.44-.36 13.92 2-2.4 7.21-9 1-1.45 3.26-4.58 1.64-.03 4.22-.17zM101.24 47.72q-.11 1.18-.18 3-1.45 0-4.71-.14-2.17-.09-4.76-.09h-1q-.13 5.8-.13 11.56h11.74q-.09 1-.18 2.9l-.09.09H86.22q.41-7.16.45-12.06v-5.17q.09-8.43 0-12.78h.09q5.23 0 15.73-.14-.18 1.9-.27 3v.09q-1.14 0-5.35-.18-3.17-.09-5.35-.09h-.59q-.23 4.51-.32 10zM114.48 49.85q5.71-.82 7.16-2.22a5.71 5.71 0 0 0 1.27-2.31 9.11 9.11 0 0 0 .5-2.77q0-5.53-6.57-5.53-1.09 0-3.72.09-.23 10.29-.23 17.45 0 6.39.18 10.29-1.72 0-4.35.27.27-11.06.32-13.46V48.8q.09-6.76-.18-14.23 1 0 4.58-.18 2.68-.14 4.53-.14 9.25 0 9.38 7.62a9.34 9.34 0 0 1-2.22 6.13 9.78 9.78 0 0 1-5.53 3.58q4.9 7.52 5.89 8.93 2.58 3.4 3.63 4.62-3.31.14-4.8.27l-.23-.14q-5.67-8.93-8.61-13.28zM138.87 64.86q-1.81.09-4.3.27.54-12.56.36-27.56h-2.36l.59-2.5.27-.22 5.71-.13q-.45 9.84-.45 18.86 0 5.79.18 11.28zM168.1 64.86q-1.67 0-4.84.27l-.22-.23q-2.09-4.25-6.78-13-4.31-8.2-6.75-13.1 0 8.48.37 26.11-1.81 0-3.71.23.41-9.25.41-21.12V35l.22-.14q1.07 0 4.81-.27l.31.23 13.19 26q0-8.52-.27-25.79 1.54 0 3.67-.23-.51 19.2-.41 30.06zM197.57 50.39q-.41 5.8-.36 13.14a22.46 22.46 0 0 1-9.11 2q-6.71 0-10.61-4.22t-3.86-10.88q-.09-7.43 3.86-12 4.12-4.71 11.47-4.71a18.36 18.36 0 0 1 8 1.72q-.27 1.9-.45 3.63a13.34 13.34 0 0 0-7.51-2.41q-5.71 0-8.57 4.12-2.5 3.58-2.4 9.55a15.07 15.07 0 0 0 2.45 8.67 9 9 0 0 0 7.75 3.89 16.22 16.22 0 0 0 5-1q.18-7.43.13-8.07v-.73h-2.76l.63-2.37.23-.17h3z"/></svg>