<?xml version="1.0" encoding="UTF-8"?><svg id="b" xmlns="http://www.w3.org/2000/svg" viewBox="0 0 464.82 342.72"><g id="c"><path d="m19.57,263.21v-30.79h13.95v30.95c0,7.7,4.19,12.04,11.36,12.04s11.28-4.35,11.28-12.04v-30.95h13.8v30.79c0,15.47-9.68,25.31-25.15,25.31s-25.23-9.83-25.23-25.31" fill="#294d83" stroke-width="0"/><polygon points="114.16 287.68 102.65 270.68 91.22 287.68 74.29 287.68 93.88 259.63 75.28 232.42 92.28 232.42 102.65 248.65 112.94 232.42 129.86 232.42 111.34 259.63 131.08 287.68 114.16 287.68" fill="#294d83" stroke-width="0"/><path d="m180.7,271.75c0,9.76-7.77,15.93-20.05,15.93h-24.39v-55.26h22.79c12.04,0,19.67,5.79,19.67,15.02,0,5.49-2.97,10.21-9.22,11.82v.31c7.39,1.14,11.2,5.87,11.2,12.19m-30.49-27.52v9.91h8.61c3.96,0,6.17-1.75,6.17-4.95s-2.21-4.95-6.17-4.95h-8.61Zm16.31,26.37c0-3.2-2.52-5.03-7.09-5.03h-9.22v10.14h9.38c4.5,0,6.94-1.83,6.94-5.11" fill="#294d83" stroke-width="0"/><path d="m207.68,271.14h-6.63v16.54h-13.95v-55.26h21.65c14.03,0,22.49,7.39,22.49,19.28,0,7.7-3.89,13.57-10.44,16.77l11.74,19.21h-16.23l-8.61-16.54Zm-6.63-13.03h7.85c5.11,0,8.16-2.29,8.16-6.4s-2.9-6.4-8.08-6.4h-7.93v12.8Z" fill="#294d83" stroke-width="0"/><rect x="237.72" y="232.42" width="14.18" height="55.26" fill="#294d83" stroke-width="0"/><path d="m313.56,260.01c0,16.08-12.81,27.67-30.41,27.67h-20.73v-55.26h20.89c17.61,0,30.26,11.51,30.26,27.59m-14.25,0c0-8.92-6.25-14.48-15.93-14.48h-7.01v28.96h6.86c9.76,0,16.08-5.72,16.08-14.48" fill="#294d83" stroke-width="0"/><path d="m319.12,260.01c0-16.39,12.35-28.43,29.04-28.43,11.97,0,21.04,5.49,25.61,15.24l-13.42,5.03c-2.36-4.73-6.56-7.32-12.27-7.32-8.54,0-14.71,6.25-14.71,15.47s6.02,15.47,14.56,15.47c6.71,0,11.51-3.35,13.49-8.99h-14.71v-10.98h29.5s.3,1.9.3,4.5c0,16.62-11.59,28.51-28.66,28.51s-28.74-11.74-28.74-28.51" fill="#294d83" stroke-width="0"/><polygon points="423.09 275.25 423.09 287.68 383.98 287.68 383.98 232.42 422.78 232.42 422.78 244.76 397.93 244.76 397.93 254.06 421.26 254.06 421.26 265.57 397.93 265.57 397.93 275.25 423.09 275.25" fill="#294d83" stroke-width="0"/><polygon points="53.64 189.61 41.45 189.61 41.45 219.17 31.7 219.17 31.7 189.61 19.56 189.61 19.56 180.56 53.64 180.56 53.64 189.61" fill="#056a38" stroke-width="0"/><path d="m55.88,199.84c0-11.45,8.73-19.86,20.56-19.86s20.5,8.15,20.5,19.86-8.63,19.92-20.5,19.92-20.56-8.2-20.56-19.92m31.15,0c0-6.6-4.21-10.76-10.6-10.76s-10.6,4.31-10.6,10.76,4.26,10.7,10.6,10.7,10.6-4.31,10.6-10.7" fill="#056a38" stroke-width="0"/><polygon points="98.01 180.56 108.44 180.56 114.89 204.95 115.21 207.83 115.58 204.95 121.65 180.56 131.29 180.56 137.26 204.95 137.63 207.83 137.95 204.95 144.39 180.56 154.67 180.56 142.85 219.17 133.05 219.17 126.71 193.29 126.34 190.84 126.02 193.29 119.79 219.17 109.83 219.17 98.01 180.56" fill="#056a38" stroke-width="0"/><polygon points="159.25 180.56 167.51 180.56 185.35 202.87 185.35 180.56 194.93 180.56 194.93 219.17 186.68 219.17 168.84 197.02 168.84 219.17 159.25 219.17 159.25 180.56" fill="#056a38" stroke-width="0"/><path d="m201.11,209.16l8.63-2.5s.69,4.9,5.38,4.9c2.61,0,4.31-1.28,4.31-3.41s-1.44-3.3-4.47-4.15l-3.78-1.17c-6.23-1.81-9.53-5.7-9.53-11.24,0-7.14,5.11-11.61,13.21-11.61,11.56,0,13.74,9.27,13.74,9.27l-8.63,3.04s-.64-4.15-4.95-4.15c-2.29,0-3.78,1.17-3.78,3.09s1.54,3.14,4.85,4.15l4.1,1.33c5.97,1.81,9.27,5.64,9.27,11.08,0,7.35-5.54,11.98-14.17,11.98-11.93,0-14.17-10.6-14.17-10.6" fill="#056a38" stroke-width="0"/><polygon points="270.29 180.56 270.29 219.17 260.6 219.17 260.6 204.05 245.37 204.05 245.37 219.17 235.62 219.17 235.62 180.56 245.37 180.56 245.37 195.42 260.6 195.42 260.6 180.56 270.29 180.56" fill="#056a38" stroke-width="0"/><rect x="278.97" y="180.56" width="9.91" height="38.61" fill="#056a38" stroke-width="0"/><path d="m327.97,194.57c0,8.63-6.12,14.11-15.71,14.11h-4.95v10.49h-9.75v-38.61h14.75c9.69,0,15.66,5.32,15.66,14.01m-9.91,0c0-3.14-2.08-5.01-5.7-5.01h-5.06v10.01h5.01c3.62,0,5.75-1.86,5.75-5.01" fill="#056a38" stroke-width="0"/><path d="m348.95,199.84c0-11.45,8.73-19.86,20.56-19.86s20.5,8.15,20.5,19.86-8.63,19.92-20.5,19.92-20.56-8.2-20.56-19.92m31.16,0c0-6.6-4.21-10.76-10.6-10.76s-10.6,4.31-10.6,10.76,4.26,10.7,10.6,10.7,10.6-4.31,10.6-10.7" fill="#056a38" stroke-width="0"/><polygon points="406.41 189.19 406.41 196.64 421.22 196.64 421.22 205.11 406.41 205.11 406.41 219.17 396.67 219.17 396.67 180.56 423.03 180.56 423.03 189.19 406.41 189.19" fill="#056a38" stroke-width="0"/><polygon points="42.35 316.06 34.41 316.06 34.41 335.3 28.07 335.3 28.07 316.06 20.16 316.06 20.16 310.17 42.35 310.17 42.35 316.06" fill="#0b6a36" stroke-width="0"/><path d="m40.93,317.69h5.96v3.61c.9-2.53,2.7-3.88,5.2-3.88.49,0,.9.03,1.25.1l-.38,6.14h-.69c-3.78,0-5.17,1.46-5.17,5.48v6.17h-6.17v-17.61Z" fill="#0b6a36" stroke-width="0"/><path d="m73.24,317.69v17.61h-6v-2.29c-1.07,1.73-2.77,2.67-5.1,2.67-4.85,0-8.08-3.64-8.08-9.19s3.26-9.19,8.22-9.19c2.25,0,3.88.94,4.96,2.6v-2.22h6Zm-6.07,8.81c0-2.04-1.42-3.54-3.47-3.54s-3.33,1.49-3.33,3.54,1.28,3.54,3.29,3.54,3.5-1.42,3.5-3.54" fill="#0b6a36" stroke-width="0"/><path d="m76.5,312.28c0-2.01,1.49-3.5,3.54-3.5s3.5,1.42,3.5,3.5c0,1.94-1.46,3.43-3.5,3.43s-3.54-1.42-3.54-3.43m.45,5.41h6.17v17.61h-6.17v-17.61Z" fill="#0b6a36" stroke-width="0"/><rect x="86.94" y="309.58" width="6.17" height="25.73" fill="#0b6a36" stroke-width="0"/><path d="m118.87,315.72c-3.88,0-6.69,2.81-6.69,7s2.77,6.97,6.62,6.97c3.05,0,5.03-1.32,6.14-4.06l5.96,2.32c-1.94,4.71-6.17,7.73-12.13,7.73-7.42,0-13.07-5.34-13.07-12.97s5.62-12.93,13.21-12.93c5.79,0,9.71,2.91,11.86,7.52l-6,2.29c-1.21-2.6-3.09-3.88-5.89-3.88" fill="#0b6a36" stroke-width="0"/><path d="m151.73,317.69v17.61h-6v-2.29c-1.07,1.73-2.77,2.67-5.1,2.67-4.85,0-8.08-3.64-8.08-9.19s3.26-9.19,8.22-9.19c2.25,0,3.88.94,4.96,2.6v-2.22h6Zm-6.07,8.81c0-2.04-1.42-3.54-3.47-3.54s-3.33,1.49-3.33,3.54,1.28,3.54,3.29,3.54,3.5-1.42,3.5-3.54" fill="#0b6a36" stroke-width="0"/><path d="m174.47,326.5c0,5.48-3.33,9.19-8.18,9.19-2.11,0-3.71-.94-4.78-2.53v9.57h-6.17v-25.03h5.96v2.36c1.04-1.7,2.7-2.74,5.06-2.74,4.85,0,8.11,3.68,8.11,9.19m-6.27,0c0-2.08-1.53-3.54-3.29-3.54-2.12,0-3.54,1.46-3.54,3.54s1.46,3.54,3.47,3.54,3.36-1.46,3.36-3.54" fill="#0b6a36" stroke-width="0"/><path d="m176.9,312.28c0-2.01,1.49-3.5,3.54-3.5s3.5,1.42,3.5,3.5c0,1.94-1.46,3.43-3.5,3.43s-3.54-1.42-3.54-3.43m.45,5.41h6.17v17.61h-6.17v-17.61Z" fill="#0b6a36" stroke-width="0"/><path d="m201.31,334.58s-2.08,1.11-5.44,1.11c-5.06,0-7.52-2.36-7.52-7.25v-5.55h-2.88v-5.2h2.88v-4.47h6.17v4.47h5.3v5.2h-5.3v5.06c0,1.7.59,2.32,2.22,2.32s2.7-.9,2.7-.9l1.87,5.2Z" fill="#0b6a36" stroke-width="0"/><path d="m220.79,317.69v17.61h-6v-2.29c-1.07,1.73-2.77,2.67-5.1,2.67-4.85,0-8.08-3.64-8.08-9.19s3.26-9.19,8.22-9.19c2.25,0,3.88.94,4.96,2.6v-2.22h6Zm-6.07,8.81c0-2.04-1.42-3.54-3.47-3.54s-3.33,1.49-3.33,3.54,1.28,3.54,3.29,3.54,3.5-1.42,3.5-3.54" fill="#0b6a36" stroke-width="0"/><rect x="224.54" y="309.58" width="6.17" height="25.73" fill="#0b6a36" stroke-width="0"/><path d="m242.94,326.5c0-5.27,4.12-9.19,9.81-9.19s9.78,3.81,9.78,9.19-4.13,9.19-9.78,9.19-9.81-3.85-9.81-9.19m13.31,0c0-2.15-1.39-3.54-3.5-3.54s-3.5,1.46-3.5,3.54,1.39,3.54,3.5,3.54,3.5-1.46,3.5-3.54" fill="#0b6a36" stroke-width="0"/><path d="m272.66,317.69h5.37v5.2h-5.37v12.41h-6.17v-12.41h-2.91v-5.2h2.91v-1c0-4.75,2.77-7.49,7.59-7.49,3.47,0,5.48,1.63,5.48,1.63l-1.91,4.58s-.97-1.01-2.5-1.01c-1.7,0-2.5.83-2.5,2.46v.83Z" fill="#0b6a36" stroke-width="0"/><path d="m302.65,315.72c-3.88,0-6.69,2.81-6.69,7s2.77,6.97,6.62,6.97c3.05,0,5.03-1.32,6.14-4.06l5.96,2.32c-1.94,4.71-6.17,7.73-12.13,7.73-7.42,0-13.07-5.34-13.07-12.97s5.62-12.93,13.21-12.93c5.79,0,9.71,2.91,11.86,7.52l-6,2.29c-1.21-2.6-3.09-3.88-5.89-3.88" fill="#0b6a36" stroke-width="0"/><path d="m335.51,317.69v17.61h-6v-2.29c-1.07,1.73-2.77,2.67-5.1,2.67-4.85,0-8.08-3.64-8.08-9.19s3.26-9.19,8.22-9.19c2.25,0,3.88.94,4.96,2.6v-2.22h6Zm-6.07,8.81c0-2.04-1.42-3.54-3.47-3.54s-3.33,1.49-3.33,3.54,1.28,3.54,3.29,3.54,3.5-1.42,3.5-3.54" fill="#0b6a36" stroke-width="0"/><path d="m339.12,317.69h5.96v2.74c1.18-2.01,3.12-3.12,5.48-3.12,3.99,0,6.48,2.71,6.48,7.04v10.95h-6.17v-9.39c0-1.91-.87-2.88-2.6-2.88s-2.98,1.25-2.98,3.15v9.12h-6.17v-17.61Z" fill="#0b6a36" stroke-width="0"/><path d="m378.78,317.69v17.61h-6v-2.29c-1.07,1.73-2.77,2.67-5.1,2.67-4.85,0-8.08-3.64-8.08-9.19s3.26-9.19,8.22-9.19c2.25,0,3.88.94,4.96,2.6v-2.22h6Zm-6.07,8.81c0-2.04-1.42-3.54-3.47-3.54s-3.33,1.49-3.33,3.54,1.28,3.54,3.29,3.54,3.5-1.42,3.5-3.54" fill="#0b6a36" stroke-width="0"/><path d="m400.76,309.58v25.72h-5.96v-2.39c-1.07,1.73-2.74,2.77-5.1,2.77-4.82,0-8.08-3.68-8.08-9.19s3.43-9.19,8.18-9.19c2.15,0,3.74.9,4.78,2.43v-10.16h6.17Zm-6.03,16.92c0-2.04-1.46-3.54-3.47-3.54s-3.36,1.42-3.36,3.54,1.32,3.54,3.33,3.54,3.5-1.42,3.5-3.54" fill="#0b6a36" stroke-width="0"/><path d="m422.81,317.69v17.61h-6v-2.29c-1.07,1.73-2.77,2.67-5.1,2.67-4.85,0-8.08-3.64-8.08-9.19s3.26-9.19,8.22-9.19c2.25,0,3.88.94,4.96,2.6v-2.22h6Zm-6.07,8.81c0-2.04-1.42-3.54-3.47-3.54s-3.33,1.49-3.33,3.54,1.28,3.54,3.29,3.54,3.5-1.42,3.5-3.54" fill="#0b6a36" stroke-width="0"/><path d="m464.82,115.25c-.03-.1-.28-.14-.69-.14-.74,0-1.98.13-3.35.27-1.65.17-2.14.29-2.73.29-.15,0-.3,0-.48-.02-1.71-.15-1.71-.68-3.17-.78-.14-.01-.28-.02-.4-.02-1.42,0-2.02.58-3.03.58-.23,0-.49-.03-.78-.1-.1-.03-1.97-.53-2.26-1.79-.1-.44.03-.82.2-1.35.45-1.36,1.24-1.93,1.11-2.1-.02-.03-.06-.04-.11-.04-.42,0-1.83.85-3.33,1.68-3.91,2.18-4.42,2.06-6.31,3.45-1.91,1.4-2.57,2.94-3.1,2.94-.04,0-.07,0-.11-.02-.49-.21-.8-1.78-.18-3.05.58-1.17,1.62-1.39,3.27-2.46.6-.39,1.54-1.28,3.42-3.06,3.19-3.03,4.83-4.54,6.18-6.04,1.73-1.92,3-3.58,2.89-3.68,0,0,0,0-.01,0-.13,0-.88.85-2.26,1.71-.68.42-1.71,1.1-2.92,1.32-.4.07-.87.11-1.35.11-1.61,0-3.44-.46-3.99-1.66-.71-1.55,1.13-3.41.83-6.42-.15-1.53-.22-1.25-1.34-3.12-.52-.87-.52-2.58.49-5.21,1.03-2.68,1.71-3.44,1.36-4.57-.03-.08-.07-.12-.12-.12-.2,0-.56.46-.75.74-.87,1.27-1.73,2.96-3.79,5.04-.43.43-1.11,1.46-2.73,1.51-.04,0-.08,0-.12,0-.79,0-.99-.28-1.55-.28-.06,0-.13,0-.2.01-1.89.19-2.07,2.64-4.03,3.5-.51.22-1.08.33-1.67.33-1.51,0-3.06-.69-3.62-1.71-.42-.77,0-1.19-.39-3.37-.09-.52-.45-2.52-.89-2.52-.37,0-.66,1.47-.87,2.61-1.53,8.29-1.89,11.64-1.89,11.64-.23,2.18-.35,3.64-1.31,5.37-.55.99-1.69,2.66-2.52,2.66-.05,0-.11,0-.16-.02-.87-.25-.27-2.41-1.54-5.98-.72-2.04-1.17-2.02-1.63-3.85-.63-2.48-.29-4.4-.71-4.47,0,0-.02,0-.02,0-.48,0-.77,2.63-2.12,2.92-.07.02-.14.02-.21.02-.85,0-1.36-1.23-3.84-2.55-1.38-.74-1.8-.67-2.74-1.45-.85-.71-.83-1.04-1.91-2.21-.82-.89-2.22-2.19-2.69-2.19-.04,0-.07,0-.1.03-.19.14.11.75.95,2.72,1.49,3.51,1.63,4.17,1.44,4.86-.33,1.24-1.29,1-1.94,2.22-1.36,2.57,2.05,5.2.92,8.6-.07.2-.76,2.18-2.36,2.68-.26.08-.52.12-.78.12-1.93,0-3.81-1.96-4.33-1.96-.04,0-.07.01-.09.03-.36.37,2.19,2.96,4.94,7.14,2.58,3.94,1.46,5.48,3.72,7.49.73.65,1.88,1.3,1.73,2.07-.2,1-2.13,1.25-2.38,1.29-.33.05-.62.08-.9.08-1.34,0-2.31-.56-4.56-.91-.73-.12-2.03-.28-2.99-.28-.65,0-1.14.07-1.2.28-.1.32.84.91,6.3,3.59,6.2,3.04,6.37,2.96,7.53,3.86,2.54,1.98,2.9,3.28,4.83,3.71.34.08.69.11,1.03.11,2.13,0,4.18-1.24,4.55-1.24.07,0,.08.05.01.16-8.58,14.08,2.75,22.43,5.38,23.74t0,0c.11,0,4.58-2.07,1.73-2.07-5.48,0-13.41-9.87-5.89-20.92.05-.07.12-.12.2-.12.02,0,.05,0,.07.02.83.36,1.33,1.74,2.37,2.85,1.42,1.52.84,3.02,1.97,4.03,1.18,1.05,2.45.87,3.86.93,6.13.29,11.12,5.08,12.22,5.08.07,0,.13-.02.17-.07.32-.39-1.49-1.44-3.38-4.91-1.36-2.49-2.57-4.72-1.79-5.82.19-.27.47-.36.86-.36.78,0,2.01.36,3.93.36.43,0,.89-.02,1.4-.06,2.11-.19,2.01-.57,4.19-.82.76-.09,1.49-.12,2.16-.12,2.08,0,3.68.31,4.4.31.24,0,.39-.04.41-.13.07-.26-.84-.46-1.77-1.49-.22-.25-1.47-1.63-1.37-2.99.13-1.68,2.29-2.82,4.67-4.06,2.86-1.5,4.47-1.62,4.76-2.86.23-.98-.59-1.73-.04-2.84.27-.54.77-.97,1.08-1.22.6-.51.81-.48,1.3-.85,1.1-.84.83-1.62,1.78-2.39.49-.4.67-.27,2.11-.76,1.15-.39,3.13-1.2,3.06-1.5Z" fill="#cc2027" stroke-width="0"/><path d="m445.57,149.42c-1.42.49-2.48,1.71-4.01,1.97-.58.1-3.69-.25-2.5-1.36.11-.1.25-.14.39-.18.91-.23,2.39-.32,2.9-1.27.36-.67.32-1.77-.49-2.11-.38-.16-.81-.14-1.22-.13-.82.03-1.69-.02-2.39-.42.12.15.23.28.32.43.69,1.04.43,2.04-.05,2.62-.4.48-.99.76-1.64.76s-1.23-.26-2.02-.74c-.35.01-.71-.12-1.08-.46-.21-.19-.41-.39-.61-.6-2.1-1.32-5.22-3.13-8.6-3.29-.22-.01-.43-.01-.64-.02-1.29-.02-2.89-.05-4.4-1.4-.11-.1-.21-.2-.31-.31-.56.24-1.04.56-1.37.98-.59.77-1.7,1.56-2.78,1.76.21,1.61.73,2.92,1.22,3.84,1.58,2.98,4.1,4.55,5.77,4.55.56,0,.99.06,1.36.19.91.32,1.49,1.11,1.49,2.02,0,1.3-1.1,2.09-2.28,2.76-1.62.91-2.03.91-2.3.91-.3,0-.59-.07-.85-.2-2.34-1.17-7.23-4.97-8.96-10.98-1.06-3.69-.78-7.55.83-11.54-.31.04-.63.06-.95.06-.5,0-.98-.05-1.44-.15-.85-.19-1.5-.5-2.06-.89-.24.02-.48.04-.72.02-1.24-.07-1.71-1.15-1.44-2.01-.38-.37-.81-.76-1.37-1.19-.6-.47-.76-.55-2.76-1.5-1.01-.48-2.39-1.14-4.44-2.15-2.82-1.38-4.42-2.2-5.35-2.74-.67-.38-1.93-1.13-2.01-2.36-2.66.48-5.76,1.91-3.18,3.88,1.01.77.05,1.72-.95,1.4-.49-.16-.99-.43-1.47-.26-.46.17-.7.69-1.1.97-1.26.86-2.04-.97-2.77-1.6-1.5-1.28-3.88-.68-5.5,0-.36.15-.73.33-1.13.36-1.5.12-1.43-2.54-1.48-3.48-.05-1.03-.15-2.11.18-3.11.38-1.13,1.32-1.75,2.31-2.33,2.77-1.62,5.81-2.73,8.85-3.72,1.47-.48,2.91-1,4.39-1.44.8-.24,1.6-.53,2.44-.57.51-.02,2.32.39,1.77,1.27-.07.11-.17.2-.23.31-.29.47.04,1.18.6,1.24.72.08,1.12-.93,1.82-1.19.91-.34,1.75.67,2.71.8.21.03.41.01.61-.03-.23-.5-.53-1.05-.95-1.69-1.23-1.88-2.45-3.46-3.34-4.61-.56-.72-1-1.29-1.31-1.76-1.04-1.57-.61-2.58-.07-3.14.38-.4.9-.61,1.46-.61h0c.76,0,1.31.38,2.02.85.61.41,1.62,1.1,2.31,1.1.08,0,.15-.01.21-.03.48-.15.95-.96,1.12-1.47.35-1.07-.06-2.13-.53-3.37-.09-.24-.19-.5-.28-.76-2.64.49-5.27.73-8.05-.58-.55-.26-1.18-.57-1.75-.35-.41.15-.67.54-.96.86-1.39,1.54-3.99,1.8-5.66.56-.05,1.18.5,2.38,1.44,3.11-1.56,1.37-4.16-.47-6.02.44-1.79.88-2.12,3.92-4.11,4.07-1.04.08-1.96-.83-2.25-1.84-.44-1.51-.14-4.53,1.24-5.56.93-.7,2.11-.97,3.26-1.21,4.99-1.02,15.31-1.12,15.02-2.18,0-.61-1.12-.71-1.73-.71-1.3,0-2.18.21-3.48.21-.58,0-1.24-.03-1.57-.58-.32-.52-.15-1.18.3-1.6.76-.71,1.81-.68,2.78-.77.83-.08,1.74-.32,2.17-1.03.64.53,1,1.32,1.47,2.01.52.76,1.33,1.47,2.27,1.26.39-.09.73-.34.94-.68.63-1.03-.23-1.93-.85-2.52.82-.49,1.68-.32,2.6-.39.91-.07,1.95-.95,1.48-1.74.04.07,1.62.27,2.52.47-.23-.58-.47-1.13-.61-1.47-.12-.28-.23-.53-.32-.76-.31-.73-.52-1.21-.64-1.59-.51-1.5.17-2.3.62-2.64.36-.27.79-.41,1.24-.41h0c.45,0,1.49,0,4.08,2.79.56.6.88,1.03,1.11,1.34.24.32.34.46.63.7.35.29.52.37.98.56.36.15.81.34,1.43.67,1.34.71,2.19,1.42,2.77,1.92.08-.17.15-.35.2-.47.22-.56.56-1.38,1.27-1.8-.29-.58-1.09-.86-1.77-1.01.18.06,1.37-2.39,1.63-2.6.69-.56,1.68-.3,2.29-.83.43-.36.32-1.04.19-1.58-.09-.37-.49-3.8-.73-3.8-.49-.5-1.06-.96-1.73-1.14-2.02-.53-3.47,3.04-4.67-.09-1.1-2.87,2.13-3.2,2.45-5.38.27-1.84-2.84-2.07-3.94-1.51-1.13.58-1.8,1.76-2.68,2.68-.14.15-.3.29-.5.34-.22.05-.45-.04-.67-.12-.76-.31-1.52-.62-2.28-.93-.19-.07-.39-.17-.47-.35-.22-.48.53-.81.8-1.27.87-1.5-2.65-1.51-3.27-1.59-.11-.01-.23-.04-.29-.13-.07-.11-.02-.25.05-.35.31-.46.94-.58,1.49-.55.56.03,1.12.15,1.66.01.54-.14,1.03-.68.87-1.21-.15-.49-.81-.8-.73-1.31.11-.74,1.43-.46,1.84-1.08.25-.38.03-.9-.31-1.21-.81-.72-2.06-.62-3.1-.33-1.87.52-4.93-.16-6.36,1.15-.81.74-1.24,1.93-2.26,2.34-1.16.47-2.23-.27-3.37-.36-1.26-.09-2.36.35-3.59.65-2.22.54-1.94-1.58-.33-2.27,2.04-.88,4.6-.16,6.44-1.4,1.27-.85,2.04-2.54,3.54-2.8,1.02-.18,2.14.37,3.07-.08.66-.32,1.07-1.18,1.79-1.37.98-.26,1.6.43,2.51.66,1.47.37,2.45-1.02,2.63-2.29.08-.59.07-1.22-.22-1.74-.29-.52-.89-.9-1.47-.77-.39.09-.89.33-1.1,0-.11-.17-.05-.4.02-.59.54-1.54,1.09-3.12,2.12-4.39.27-.33.58-.67.6-1.09.06-.89-1.06-1.3-1.94-1.44-1.32-.21-3.49-.12-4.64-.82-.66-.4-1.39-2.5-2.12-2.5-1.9-1.44-6.76-.39-7.71,1.9-.14.34-.26.76-.65.81-.28.04-.56-.16-.66-.43-.64-1.72,1.45-2.83,2.08-4.4.8-1.99-2.87-8.18-4.67-5.55-.23.34-.3.78-.57,1.09-.62.7-1.57-.3-1.87-.85-.84-1.57.76-1.27.8-2.43.01-.35-.18-.67-.38-.95-.97-1.31-2.28-1.91-3.79-2.35-1.44-.42-2.59-1.23-.83-2.52.76-.56.59-3.88-.83-3.5-.54.15-.94.61-1.4.93-1.84,1.29-5.17.95-7.3,1.3-1.22.2-2.7.4-3.74,1.13-1.41.99-.35,1.88-1.13,2.93-.51.69-2.04.35-2.63-.09-1.36-1.01,1.21-2.58-.6-3.44-1.08-.52-2.22.5-2.35,1.55-.09.71.11,1.42.23,2.12.43,2.53-1.94,3.52-3.94,3.46-.98-.03-1.28-.26-1.83.8-.36.69-.41,1.77-.25,2.52.31,1.44,1.89,2.25,3.35,2.41.39.04.93.23.84.61-.04.16-.19.27-.34.35-1.15.6-2.5.27-3.66.75-1.17.49-1.74,1.39-3.1,1.6-1.19.18-2.28.74-3.46.8-1.25.05-2.55-.59-3.69.24-.13.1-.26.22-.29.38-.14.64,1.13.73,1.23,1.37-.31.49-1-.1-1.55-.29-.89-.29-1.68.7-1.94,1.6-.2.7-.33,1.46-.79,2.05-.4.5-1.36.56-1.21,1.39.08.44.38.81.45,1.25.33,2.17-2.92,1.02-3.88,1.22-1.18.24-1.28,1.91-.18,2.33.15.06.32.09.44.2.52.47-.26,1.28-.47,1.7-.51,1.01-.96,1.85-.55,3.02.39,1.11,1.46,1.95,2.63,2.07-.74.59-1.87.63-2.64.09-.57-.4-.93-1.05-1.5-1.45-.57-.4-1.56-.38-1.77.28-.09.29,0,.6.11.88.9,2.3,2.89,3.88,5.29,4.32,1.43.26,2.91.28,4.31.66,1.37.37,3.85.87,1.83,2.34-.3.22-.57.6-.41.94.41.85,2.51-.25,3.11-.29.58-.04,1.2.11,1.61.53.41.42.52,1.13.16,1.59-.69.86-2.37.27-2.96,1.2-.14.22-.18.48-.32.7-.69,1.03-2.06-.2-2.13-1.04-.08-.92.43-1.48-.46-2.09-.68-.47-1.94-.15-2.66.03-1.9.49-3.77-.24-5.62.28-1.71.48-.98,2.67-2.44,3.47-.39.21-.86.3-1.2.6-1.35,1.19-.23,3.25-2.02,4.53-.82.59-2.12,1.01-1.65,2.3.19.51.64.88,1.17,1,1.26.29,2.38.48,2.6,1.98.24,1.58-1.41-.53-1.67,1.01-.12.71-.93.68-1.44.96-.62.35-1.13,1.36-.87,2.06.16.43.61.68,1.06.79,1.83.46,2.97-.55,4.58-1.07.92-.3,2,.13,2.89.36.8.21,1.59.48,2.39.7.92.24,1.06.47,1.73,1.1.65.61,1.71.43,2.5.28.17-.03.35-.07.49-.17.46-.35.07-1.61,1.15-.92,1,.64,1.47-.1,1.35-1.14-.1-.93-.21-1.86-.31-2.78-.03-.26-.05-.54.09-.76.23-.36.76-.35,1.19-.29,3.51.48,7,1.16,10.43,2.03,1.42.36,3.08,1.01,3.33,2.45-1.24-.41-2.52-.7-3.82-.88-.82-.11-1.97.11-1.95.94.01.6.71,1.24.3,1.68-.34.36-.92-.02-1.42-.08-1.47-.18-.64,2.05-2.02,1.58-.71-.24-1.79-.86-2.53-.69-.8.19-1.2,1.1-1.85,1.53-.95.62-2.16-.13-3.19.21-1.17.39-2.08,1.55-3.31,1.97-.49.17-1.02.29-1.41.63-2.09,1.83,2.23,4.47,3.99,3.84.75-.27,1.12-1.03,1.83-1.38,2.09-1.02,2,.36,2.74,1.81.23.46.44.96.37,1.47-.31,2.38-3.4.08-4.47.03-1.16-.06-2.33.78-3.48.97-1.41.24-2.86.12-4.24.51-.75.21-1.53.57-2.29.35-1.69-.49-4.81-6.46-6.42-1.95-.61,1.72-.65,3.28-1.67,4.91-.94,1.49-2.23,2.72-3.59,3.82-.28.23-.57.46-.92.57-1.41.43-2.52-1.68-3.78-1.08-.85.4-.35,1.34-.7,2.05-.38.78-2.24,1.34-1.42,2.54.61.89,2.33.86,2.43,1.94.13,1.4-2.17.76-2.83,1.23-.33.23-.49.63-.72.96-.97,1.4-3.13,1.66-4.7,1.61-.45-.02-.95-.09-1.23-.45-1.46-1.85,2.85-2.3,3.53-2.64.43-.21.77-.59.89-1.05.28-1.06-.89-1.25-1.07-1.99-.06-.24,0-.48.06-.72l.78-3.18c.09-.39.05-.82-.18-1.15-.61-.88-1.81-.3-2.51.37-.65.63-2.37,4.08-3.4,3.55-.33-.17-.52-.52-.66-.87-.49-1.23-.98-2.83.69-3.09,1.49-.23,2.9-.98,3.93-2.09.51-.55,1.02-1.24,1.77-1.32.36-.04.8.05,1.04-.23.21-.25.1-.64.18-.96.28-1.03,1.77-.43,2.33-1.21.45-.62.22-2.26.04-2.96-.31-1.2-1.63-2.03-1.47-3.41.02-.2.06-.4.18-.57.47-.7,2.83-.43,2.14-1.8-.62-1.23-3.78-.03-4.51.49-1.63,1.16-2.39,3.19-3.7,4.68-.24.27-.55.49-.9.56-1.57.3-2.71-1.86-3.43-2.96-.17-.27,1.91-.35,2.06-.43.85-.44,1.15-1.45,1.95-1.94.98-.6,2.27-.06,3.37-.38.8-.24,1.41-.92,1.76-1.68.39-.85,1.57-4.39-.76-3.49-.38.14-.71.39-.98.69-.48.52-1.07,1.12-1.81,1.27-.59.12-1.29-.13-1.49-.73-.12-.36,0-.78.32-.99.35-.23.72-.07,1.08-.02,1.63.24,3.23-2.67,1.6-3.56-.45-.25-1.01-.3-1.5-.16-.51.15-.84.64-1.17,1.02-.45.53-3.39,5.31-4.01,4.45-.24-.33-.08-.83-.01-1.18.19-.93.47-1.85.78-2.75.67-1.94.14-2.84-.39-4.66-.09-.3-.16-.63-.08-.94.16-.67.92-1.01,1.61-1.12.74-.12,1.55-.11,2.14-.6.39-.33.56-.88.32-1.33-.25-.47-.73-.36-1.1-.54-.38-.19-.55-.65-.52-1.07.07-.93,1.15-1.94.51-2.89-.4-.59-1.22-.7-1.82-.32-1.57,1.02-2.74,2.61-3.27,4.4-.26.89-.44,1.94-1.46,2.24-.6.18-1.15-.18-1.11-.8.02-.43.39-.59.65-.84.78-.76.44-2.04.26-3.11-.29-1.78.05-3.66.96-5.21.35-.61.8-1.19.76-1.94-.03-.45-.31-.86-.75-.97-1.24-.31-1.56,2.12-2.85,2.48-1.19-3.14.39-7.09-1.74-9.78-.18-.23-.43-.42-.72-.48-.58-.11-.84.28-1.03.65-.8,1.55-.99,3.4-.53,5.08.19.7.5,1.39.48,2.11-.02.73-.51,1.52-1.23,1.55-.55.02-1.13-.39-1.61.12-.27.29-.32.72-.17,1.08.88,1.99,2.35,3.71,4.18,4.89.32.21.53.59.44.97-.16.69-.99.62-1.59.45l-6.08-1.73c-.38-.11-.81-.02-1.08.28-.49.57.03,1.24.59,1.54.94.49,1.78.73,1.76,1.99,0,.59-.19,1.18-.16,1.78.02.59.34,1.25.92,1.38.48.11.95-.16,1.41-.32.99-.33,2.14-.11,2.94.56.93.79,1.33,2.16.9,3.31-.18.49-.54.9-1.03,1.05-1.03.3-1.83-.69-2.75-1.13-1.93-.94-3.51,1.43-4.85-.96-.4-.71-.72-1.52-1.57-1.82-.46-.16-1.01,0-1.22.44-.51,1.02,1.29,2.1.73,3.06-.53-.58-1.48-.45-2.18-.82-1.85-.97-.97-3.17-3.77-2.52-.73.17-1.54.36-2.19,0-.66-.36-.77-1.57-.04-1.75-5.26-1.53-11.26,2.33-16.21-.02-2.52-1.2-3.31-1.83-5.32.09-1.24,1.19-3.26.36-4.98.31-.34-.01-.73.04-.92.32-.64.92,1.79,1.68,1.33,2.75-.14.32-.48.5-.83.5-1.28,0-2.48-.52-3.74-.69-1.11-.15-2.4.07-3.06.98-.38.52-.51,1.18-.77,1.76-.67,1.45-2.39,1.24-3.71,1.53-.22.05-.47.09-.64-.05-.15-.12-.18-.34-.19-.53-.12-1.4-.25-2.79-.37-4.18-.06-.72-.12-1.46.12-2.14.44-1.22,1.74-1.91,3.01-2.21,2.37-.56,4.81-.91,7.24-1.14,3.77-.36,7.59-.17,11.38-.14.25-.55-.49-1-1.08-1.12-1.46-.31-6.88.4-6.51-1.86.47-2.93,3.73-.54,5.14-1.99.26-.26.47-.67.84-.66.26.01.46.24.6.47.68,1.08.96,2.42,2.03,3.22.48.36,1.1.51,1.67.32.97-.32,1.1-1.3.82-2.07-.22-.6-1.6-2.68.4-2.03.67.22,1.83.66,2.52.29.97-.53.15-2.43,1.39-2.02,1.33.45,2.73.88,3.78,1.84.98.89,1.61,2.16,3.04,2.41.67.12,1.33-.41,1.55-1.05.13-.36.14-.91.47-1.17.29-.24.83-.17,1.02.18.24.46.17.94.61,1.33,1.16,1.03,2.79.45,3.97-.22.51-.29,1.02-.63,1.37-1.11.44-.61.59-1.91-.08-2.45-.31-.25-1-.22-1.39-.34-.16-.05-.35-.13-.39-.29-.08-.32.34-.53.55-.68.82-.55.77-1.74,1.57-2.27,1.12-.74,2.63.21,2.92-1.75.11-.77-.14-1.55-.38-2.29-.39-1.17.09-2.07-.88-3.04-.56-.63-1.67-1.42-2.65-1.19-.75.18-.79,1.11-1.48,1.34-.96.32-1.67-.25-2.1-1.05-.35-.65-.67-1.34-.71-2.07-.07-1.23.76-1.79,1.58-2.51.61-.53,1.26-1.11,1.53-1.9.47-1.42-1.84-2.46-2.92-2.46-.79,0-1.54.36-2.16.85-.83.66-1.3,2.37-2.42,2.64-.97.23-2.23-.81-3.03-1.27-.55-.32-.92.1-.93-.71,0-.42.72-.93.89-1.32.31-.72-.41-1.5-1.17-1.72-.56-.16-1.17-.19-1.74-.21-.31-.02-.66-.1-.81-.37-.58-1.05,3.19-.56,3.6-.7.52-.18.97-.71.84-1.25-.14-.59-.92-.99-.81-1.59.19-1.08,2-.33,2.26-1.38.27-1.09-2.45-1.85-3.18-1.74-1.03.15-2.03.56-3.07.55-1.25-.02-2.52-.63-3.7-.22-1.62.57-2.14,2.95-3.93,3.12-.97.1-1.81-.64-2.75-.92-1.84-.54-3.47.82-5.34.48-2.66-.49,1.77-2.71,2.72-2.75.8-.04,1.61.07,2.41.02,2.26-.14,3.52-1.37,4.81-3.01,1.49-1.9,2.96-.41,4.73-.52,1.94-.12,2.34-2.11,4.47-1.01.72.37,1.6.73,2.3.32.4-.23.63-.66.81-1.08.25-.6.43-1.23.52-1.87.07-.48.09-.98-.07-1.43-.17-.45-.55-.85-1.03-.91-.37-.04-.73.11-1.09.17-.36.06-.82-.02-.97-.36-.17-.38.14-.78.39-1.11.99-1.28.86-3.26,2.11-4.29,2-1.66-.07-3.05-2.02-3.34-1.29-.19-2.68-.17-3.77-.87-2.26-1.46-1.9-4.26-5.26-4.08-1.09.06-2.23.31-3.29.54-.91.2-1.67.76-2.18,1.53-.28.42-.58,1.77-1.34,1.13-.19-.16-.29-.41-.33-.66-.18-1.05.44-2.06,1.12-2.88.68-.82,1.46-1.63,1.69-2.67.41-1.86-.99-4.9-2.62-5.89-.72-.43-1.72-.61-2.34-.05-.34.31-.5.77-.64,1.2-.07.23-.19.5-.43.52-.18.02-.33-.12-.46-.24-.54-.53-2.74-2.19-1.18-2.79.34-.13.73-.17.99-.41.37-.35.31-.98.01-1.39-.73-1.01-1.38-1.17-1.95-2.4-.7-1.52-3.52-.5-4.35-2.16-.21-.41-.04-.93.28-1.26.46-.48,1.66-.61,1.93-1.24.27-.64-.57-1.16-.7-1.73-.12-.55.44-1.18-.08-1.62-.46-.39-1.63.04-2.04.31-.47.32-.85.8-1.39.96-.47.13-.97-.01-1.47-.04-1.12-.07-2.18.47-3.23.87-1.26.47-2.6.75-3.94.83-1,.05-2.2-.3-3.1.26-.43.27-.72.73-.71,1.24,0,.54.39,1.11.06,1.63-.33.53-1.46-.21-1.87-.36-.85-.32-1.87-.24-1.74-1.3.1-.87,1.58-1.26.61-2.51-.63-.82-2.09-.75-2.65.12-.25.4-.32.89-.36,1.36-.06.83-.05,1.67.04,2.49.08.72.18,1.57-.34,2.08-.4.39-1.03.43-1.51.72-.34.21-.6.55-.94.77-.83.53-1.59-.39-2.4-.49-1.23-.15-1.41,2.14-1.67,2.97-.08.26-.17.53-.14.81.03.33.23.62.42.9.35.51.72,1.03,1.2,1.43.78.64,1.69.32,2.46.82.23.15.43.38.43.66,0,.26-.18.5-.4.65-.64.46-1.51.43-2.21.16-2.27-.9-1.98.75-3.71,1.51-.67.29-1.34-.03-2.01.11-.58.12-1.26.86-1.78.82-1.64-.1-4.51-1.5-5.9.1-.98,1.13-1.78,1.95-2.58,3.33-.23.4-.47.8-.63,1.23-.1.28-.18.57-.39.79-.27.28-.67.34-1.03.47-.36.13-.74.41-.71.79.03.37.41.59.62.9.88,1.28-1.29,2.73-2.41,2.34-.62-.22-1.23-.6-1.89-.51-.58.08-1.08.58-1.16,1.15-.09.58.25,1.19.78,1.44,1.07.49.68.98.09,1.87-.44.66-.79,1.37-1.05,2.12-.1.29-.19.6-.19.91,0,.22,1.26,3.73-.47,2.39-.19-.15-.23-.43-.35-.64-.23-.37-.76-.54-1.16-.64-.41-.1-.92-.14-1.26.15-.76.64.06,1.55.37,2.21.4.84.86,1.61,1.49,2.3,1.38,1.5,3.21,2.46,5.24,2.67,1.32.14,5.14.59,5.74,2.05.15.38.05.84-.26,1.11-.23.2-.54.29-.84.37-1.63.44-3.33,1.09-5,1.33-1.63.24-3.28-.22-4.92-.15-.8.04-1.97.21-2.42.98-.52.91.5,1.6.15,2.46-.16.38-.61.54-1.02.56-.41.02-.83-.05-1.22.06-1.81.49-.28,4.21-2.03,5.17-.51.28-1.14.24-1.67.49-1.09.53-1.32,2.36-.61,3.27.71.91,2.14.57,3.14.74.57.1.82,1.1.51,1.54-.29.4-.54.22-.97.23-1.29.02-4.21,1.48-4.98,2.6-.22.32-.29.71-.34,1.1-.2,1.45-.26,2.92-.17,4.37.03.53.09,1.08.39,1.52,1.1,1.68,3.64-.39,4.79-.94.82-.4,1.79-.64,2.64-.31.88.33,1.46,1.2,2.31,1.61.99.48,2.16.28,3.26.23,1.64-.08,3.41.53,5.04.76.88.13,1.12.42.39,1.02-.72.59-1.55,1.03-2.44,1.3-.66.2-1.49.21-1.99.76-1.26,1.36.49,3.63,1.74,4.25.98.49,2.24.58,3.22.04.82-.46,1.52-1.38,2.55-1.31.7.05.95.53,1.14,1.11.36,1.11,2.13,4.16-.23,4.38-1.14.1-1.96-1.32-2.99-1.61-1.05-.29-2.09.36-3.11.73-1.86.66-3.56-.26-5.39.13-1.82.38-3.08,1.38-4.43-.55-.8-1.14-4.22-5.48-5.77-2.65-.24.44-.11.98-.09,1.48.08,1.81-1.04,3.37-1.96,4.89-1.17,1.93-1.16,3.77-1.97,5.76-.2.5-.51,1.01-1.01,1.2-1.03.4-1.42-1.12-1.96-1.68-.83-.87-2.03-1.27-3.05-1.84-.47-.26-1-.79-.72-1.25.42-.67,1.62-.15,2.21-.96.7-.95,1.87-.83,2.28-1.91.49-1.29-.66-3.27-1.01-4.48-.16-.54-.65-2.13.21-2.35.77-.19,1.81.05,2.01-.91.2-1-1.61-1.16-2.34-.94-2.44.74-4.11,2.66-5.82,4.43-1.09,1.13-2.21,2.38-3.61,3.12-2.66,1.41-2.69-1.88-1.93-3.66.3-.7.82-1.47,1.56-1.75.74-.28,1.63.04,2.23-.66.19-.22.3-.51.47-.74,1.24-1.66,3.95-.12,5.58-1.51,1.01-.86,1.5-2.28,1.23-3.58-.04-.2-.1-.4-.25-.54-.84-.79-3.15,1.76-4.3,1.63-.79-.09-1.2-.78-.8-1.47.34-.58,1.11-.48,1.74-.56,1.16-.15,2.24-1.23,1.84-2.5-.16-.51-.58-.93-1.1-1.04-.92-.19-1.62.51-2.19,1.16-1.23,1.38-2.43,3.08-3.86,4.22-.53-.67-.28-1.74.05-2.47.63-1.41,1.54-1.97,1.26-3.62-.2-1.17-1.21-2.49-.47-3.67.8-1.27,2.9-.83,3.96-1.89-1.27-.79-1.83-2.61-1.03-3.95.29-.49.34-1.11.03-1.58-.47-.71-1.12-.47-1.64-.18-1.72.97-3.06,2.59-3.69,4.46-.22.65-.39,1.37-1.06,1.7-.4.2-.91.07-1.09-.33-.19-.43.13-.85.36-1.23,1.33-2.2.03-5.27,1.29-7.51.49-.88,1.35-1.57,1.33-2.69-.01-.55-.42-1.06-.98-1.09-1.28-.07-1.48,2.32-2.73,2.26-.02-2.48-.04-4.96-.06-7.45,0-.83-.03-1.7-.57-2.36-.24-.29-.59-.49-.96-.53-.7-.07-1.06.42-1.32.9-.7,1.3-.92,2.85-.63,4.29.15.74.44,1.47.42,2.23-.02.76-.48,1.59-1.23,1.69-.66.09-1.38-.38-1.92.2-.4.42-.38,1.09-.03,1.55l4.38,5.67c-2.25.8-4.49-.97-6.73-1.79-.6-.22-1.29-.37-1.83.04-.31.24-.45.67-.27,1.01.21.4.63.38.98.5.88.31,1.18,1.4,1.17,2.34-.01.93-.2,1.92.2,2.76.08.17.2.34.37.43.42.21.87-.17,1.28-.4,1.03-.57,2.42-.15,3.16.78s.89,2.21.66,3.36c-.21,1.07-.99,2.23-2.08,2.14-.35-.03-.67-.18-.97-.34-2.47-1.26-4.7-2.98-6.54-5.04-.28-.31-.72-.46-1.11-.3-.32.13-.41.36-.43.6-.03.59.12,1.17.38,1.7.93,1.9,1.88,3.79,2.86,5.66.32.61.71,1.27,1.37,1.45-.29,1.36.24,2.86,1.31,3.74.86.71,2.02,1.03,2.58,2.12.27.52.2,1.18-.22,1.59-.86.81-2.2-.16-2.94-1.09-3.13-3.92-6.13-8.1-10.29-10.89-.51-.34-1.24-.64-1.67-.21.55,1.41,0,2.98-.32,4.46-.64,3.01.67,3.9,3.14,4.96.23.1.47.21.6.42.61.98-.87,1.32-1.25,1.91-.62.98-.11,2.44.44,3.45.1.18.21.36.25.57.04.26-.04.53-.08.79-.4,2.75,3.11,2.63,4.82,2.77,2.73.22,3.27,3.23,5.71,3.67.53.1,1.1,0,1.62.16,2,.63-.51,1.74-1.8,1.12-1.24-.6-2.09-1.73-3.59-1.62-1.24.09-2.85.7-.31,2.84.88.74,5.03,2.11,4.46,3.86-.55,1.71-5.67-1.1-6.96-1.1-3.46-1.23-6.99-3.06-9.56-5.74-.07-.07-3.51-3.72-3.48-1.9,0,.21.16.38.3.53,2.93,3.18,3.73,7.06,4.84,11.09.19.68.42,1.38.96,1.83.94.77,5.17-.04,5.33.17.53.69,1.07,1.53.83,2.36-.51,1.77-4.33,2.38-5.82,2.79-.71.2-1.44.37-2.17.31-.84-.08-1.61-.46-2.35-.84-3.11-1.68-6.34-3.21-9.49-4.81.45-.07.77-.39.77-.88,0-.45-.23-.87-.34-1.31-.38-1.47.86-2.54.8-4.02-.03-.72.83-3.67,1.48-3.97,0,0,.01,0,.02-.01.25-.16.4-.62.33-.79-.1-.04-.07-1.37-.56-1.27-.58-.02-1.71-.22-2.07.3-2.77,2.79-5.29,6.2-8.29,8.85-3.39,3-7.91,4.29-12.27,5.49-1.15.32-1.98.35-3.08-.08-1.23-.48-1.62-1.72-3.59-.2-.29.22-.64.35-1,.32-.99-.09-1.06-1.23-.79-2.03.34-.98,1.16-1.33,2.16-1.02.65.2,1.23.59,1.9.72.16.03.32.05.47,0,.86-.3.77-1.55,1.91-1.81.46-.1.95-.11,1.41-.22,1.52-.38,2.54-1.61,3.67-2.6,1.13-.99,2.59-1.26,3.68-2.16.54-.45.76-1.17,1.04-1.81.44-.99,1.11-1.87,1.67-2.8,1.56-2.6.91-5.35.55-8.19-.09-.69-1.67-6.41-.76-6.54-2.08.3-3.2,2.5-4.3,4.29-2.91,4.76-7.88,8.21-13.36,9.27-1.24.24-2.63.33-3.66-.4s-1.24-2.58-.12-3.15c1.52.26,3.13.05,4.52-.61.4-.19.76-.49.96-.88.63-1.21-.52-2.22-.91-3.35-.5-1.49.35-3.05.73-4.58.38-1.53-.21-3.67-1.78-3.68-1.79,1.78-3.58,3.57-5.37,5.35-.29.29-.66.61-1.07.52-.38-.08-.59-.47-.73-.83-.64-1.63-.82-3.43-.52-5.15-.25,1.42,4.83-.8,5.05-.91,2.44-1.21,4.7-2.52,6.48-4.54,1.27-1.45,4.02-.67,3.33-3.85-.33-1.49-1.37-2.72-1.85-4.16-.48-1.44-.04-3.46,1.45-3.76.51-.1,1.1,0,1.49-.35.39-.35.38-.95.09-1.39-.38-.56-1.08-.75-1.73-.8-3.2-.23-5.9,2.27-7.94,4.73-1.28,1.54-7.41,9.04-9.41,5.31-.32-.59-.4-1.29-.3-1.95.18-1.22.41-2.49,1.04-3.57,1-1.68,2.17-1.57,3.82-2,1.85-.49,1.93-2.55,4.47-2.43,1.25.06,2.55.34,3.73-.09,1.88-.69,2.7-2.88,3.07-4.85.09-.47.17-.96,0-1.41-.3-.85-1.27-.91-1.98-.58-.64.31-1.11.87-1.64,1.35-.89.8-2.17,1.39-3.28.71-.77-.47-.99-1.42-.37-2.07.53-.56,1.36-.38,2.1-.43,1.62-.1,3.17-1.61,2.64-3.39-.24-.8-.9-1.45-1.73-1.58-1.4-.23-2.56.95-3.47,2.03-1.49,1.77-2.98,3.54-4.47,5.32-1.16-.81-.88-2.64-.13-3.84.74-1.2,1.84-2.29,2-3.69.14-1.25-.5-2.43-.91-3.62-.4-1.19-.48-2.7.49-3.5,1.31-1.08,3.51-.05,4.78-1.3.37-.37.55-.91.36-1.4-.29-.75-1.18-.73-1.7-1.2-.7-.64-.42-1.79.01-2.63.48-.93,1.11-1.98.53-2.95-.36-.62-1.09-.91-1.81-.84-1.26.12-2.14,1.04-2.88,1.98-1.26,1.57-2.32,3.3-3.15,5.13-.35.77-.7,1.6-1.59,1.88-.49.15-1.04-.06-1.24-.53-.32-.75.48-1.4.94-2.05.94-1.31.54-3.1.45-4.71-.13-2.33.5-4.7,1.78-6.65.64-.97,1.46-1.9,1.31-3.19-.08-.64-.57-1.19-1.21-1.27-1.73-.21-1.99,2.89-3.67,3.18-1.47-4.58,1.42-10.05-1.29-14.15-.23-.36-.58-.64-1-.72-.71-.14-1.08.36-1.37.85-1.21,2.04-1.66,4.51-1.25,6.85.19,1.06.55,2.12.41,3.19-.13,1.07-.99,2.16-2.06,2.07-.74-.07-1.49-.68-2.15-.05-.37.35-.46.92-.26,1.39,1.41,3.35,3.49,6.41,6.07,8.96-1.6.98-3.7.4-5.36-.49-1.27-.68-2.42-1.6-3.8-2.08-.79-.27-3.8-.66-3.26,1.13.12.4.54.6.89.81,1.66.98,2.58,2.94,2.3,4.84-.14.97-.81,2.86.57,3.32,1.03.35,2.03-.76,3.05-.78,1.2-.03,2.45.79,3.08,1.78,1.06,1.67,1.14,7.33-1.67,7.54-.69.05-1.35-.23-1.97-.53-3.1-1.51-5.83-3.76-7.91-6.51-.47-.62-.94-1.29-1.74-1.5-.34-.09-.71-.04-.99.16-.63.44-.5,1.23-.32,1.88.61,2.27,1.47,4.46,2.57,6.54.26.49,3.63,5.11,3.52,5.35-.82,1.75.51,3.74,1.95,5.03,1.57,1.4,3.5,2.75,3.58,4.94.02.5-.18,1-.61,1.27-.75.47-1.53-.09-2.11-.64-5.09-4.81-8.11-11.55-13.48-16.05-1.42-1.19-3.09-2.23-4.94-2.29,1.09,3.72-2.11,8.18.11,11.36,1.28,1.83,3.98,2.45,4.88,4.49-1.49-.19-2.68,1.45-2.65,2.95.03,1.5.86,2.85,1.57,4.17-.95,1.09-.37,2.93.8,3.78,1.17.86,2.7,1,4.14,1.11,1.45.11,2.97.24,4.16,1.07,1.76,1.24,2.49,3.85,4.57,4.43.49.14,6.54,1.23,3.2,2.63-1.39.58-3.5-1.22-4.48-1.96-1.56-1.17-4.09-2-5.19-.4-1.15,1.67.77,3.81,2.65,4.56,1.96.79,4.43,1.35,5.02,3.46.11.4.08.85-.16,1.19-.4.54-1.07.46-1.65.34-8.58-1.69-16.59-6.11-22.6-12.47-1.06-1.12-2.42-2.42-3.91-2.01,3.17,5.04,5.57,10.57,7.1,16.33.27,1.02.53,2.07,1.15,2.92,1.74,2.34,4.98,1.65,7.45,1.31.19-.03.39-.05.56.04.18.1.27.3.33.48.39,1.07.51,2.26,1.15,3.19s2.14,1.44,2.9.59c-.86.96,1.81,3.23,2.97,2.6.21-.11.4-.28.63-.33.28-.06.56.05.82.16,1.64.68,3.63,1.2,4.93,2.46,2.27,2.22-.93,3.82-3.05,4.1-1.99.26-4.13.03-6-.71-2.68-1.05-5.43-1.58-8.23-2.36-6.67-1.87-12.8-5.2-18.87-8.45-3.02-1.62-6.35-2.95-9.25-4.74-1.89-1.17-3.76-4.31-6.34-3.04-.93.46.94,2.77,1.52,3.3,1.02.93,2.94,1.27,3.72,2.42.51.76-.89,2.28-.29,3.23.24.39.65.65.94,1.01.98,1.26,1.1,2.82,1.64,4.26,1.51,3.98,6.29,4.43,8.67,7.52.4.52.75,1.16,1.36,1.4.43.17.94.12,1.35.33.48.24.74.78.79,1.31.09.94-.54,2.05.22,2.86.81.86,2.51.16,3.28,1.06.52.61.24,1.53.23,2.34-.01,1.33.94,2.91,2.41,2.88.91-.01,1.68-.67,2.57-.85,1.95-.41,4.04,1.44,5.82.55.56-.28.96-.79,1.46-1.16.5-.37,1.21-.6,1.73-.26.33.22.52.64.88.79.67.27,2.15-1.02,2.55-.3.53.95-2.04,2.24-2.59,2.5-12.22,5.64-27.1,4.96-38.91-1.52-2.56-1.4-5.4-3.36-8.39-1.99.73.97,1.45,1.93,2.18,2.9.3.4.64.83,1.11.98.72.23,1.7-.17,2.17.43.45.59-.16,1.45,0,2.18.39,1.83,5.49.39,4.51,2.87-.31.79-1.1,1.5-.37,2.41.26.32.62.54,1.02.68,1.75.6,2.05,2.5,2.79,4.01.64,1.3,2.3,2.46,3.44,1.56.41-.33.64-.86,1.09-1.13.34-.21.76-.22,1.16-.24l7.89-.28c.27,0,.54.03.78.16.93.49.5,1.64.75,2.52.51,1.79,3.47,1.81,4.05,3.58-3.55-.79-6.96-2.23-10.01-4.24-.64-.42-1.31-.89-2.12-.79-.34.04-.66.21-.86.49-.37.52-.13,1,.1,1.44,1.53,2.91,3.32,5.68,5.34,8.27.99,1.27,2.33,2.62,3.92,2.39.58-.08,1.14-.38,1.72-.3,1.04.16,1.48,1.37,2,2.29.53.91,1.98,1.61,2.51.7.37-.64.02-1.75.77-1.93.31-.08.64.08.83.33,1.85,2.44,3.56,3.16,5.92,4.62,1.48.92,2.69,2.93-.07,2.28-4.02-.95-7.95-2.27-11.73-3.94-.43-.19-.89-.39-1.36-.24-.3.1-.54.36-.52.67.03.61.95.71.99,1.26-.45.85-1.65.82-2.6.68-5.82-.85-11.76-1.41-17.34-3.36-6.19-2.16-11.99-6.07-15.19-11.79-.66-1.18-1.28-2.5-2.61-2.96-.8-.28-1.73-.01-2.16.72-.37.63-.11,1.15.14,1.65,1.8,3.54,2.68,7.85,6,10.35,1.18.89,2.57,1.56,3.42,2.76.81,1.14,1.31,2.85,2.7,3.02.3,2.29,1.65,4.43,3.6,5.67,1.49.95,3.34,1.24,5.27,1.28,135.97-6.02,272.14-6.05,408.11-.1.85-.44,1.73-.77,2.52-.82,1.2-.07,1.72-1.36,1.94-2.47.4-1.97,2.49-.97,3.59-.63,2.72.83,3.37-4.65,5.64-3.05.51.36.86.91,1.32,1.34.39.35.99.61,1.42.31.91-.64-.19-2.04-.02-2.86.16-.74.98-1.1,1.69-1.34.72-.24,1.54-.57,1.74-1.3.14-.5.06-.89-.16-1.19-.67-.92-2.65-.97-3.55-.66Zm-340.97-31.46c.09-.09.17-.18.24-.28.79-1.07.34-2.39,2.13-2.55.11-.01.23-.01.32.04.18.1.22.33.3.51.21.49.8.76,1.32.68.53-.08.98-.46,1.23-.94.15-.29.27-.64.57-.76.51-.2.93.3,1.35.48.45.19.98-.04,1.33-.39s.59-.79.93-1.14c.86-.88.56-1.36.21-2.48-.07-.23-.15-.48-.09-.72.15-.69.97-.4,1.42-.32.78.13,1.64-.61,2.29.06.63.66.29,1.76.77,2.53.22.36.54.64.77.99.2.31.31.66.49.97.18.32.43.62.79.71.37.1.76-.04,1.14,0,.88.09-.7,1.04-.94,1.13-.58.23-1.19.38-1.78.57-1.65.53-3.31,1.04-4.98,1.51-1.58.45-3.18.88-4.79,1.21-.69.14-2.07.61-2.75.22-.43-.24-.74-.69-1.21-.85-.28-.09-.58-.07-.86-.16-.28-.08-.55-.34-.49-.63.04-.17.18-.3.31-.42Zm30.41,31.29s-.07.01-.11.02c-1.11.2-2.24.39-3.37.31-.82-.06-2.18-.92-2.91-.74-.38.09-.57.7-.21.86-2.68.56-5.23-2.44-7.88-1.72-.89.24-1.63.88-2.52,1.14-2.5.73-6.07-1.45-8.12-2.7-1.47-.9-10.78-7.79-5.94-8.76.5-.1,1.09-.32,1.16-.83.06-.44-.32-.81-.41-1.24-.2-.95.78-1.24,1.17-1.9.36-.62.22-1.59.81-2.08.66-.55,1.23.19,1.94.18,1.28-.02,2.19-2,2.8.08.6,2.03,1.98,1.71,3.4,2.69.65.45.84,1.31,1.25,1.98.84,1.4,2.11,1.69,3.57,1.28,1.58-.44,1.99,1.23,2.74,2.31.92,1.32,3.82,6.32,5.65,6.08.43-.06.82-.33,1.24-.28.48.06,2.74,3.99,3.21,1.58.07-.36,0-.88.37-.96.19-.04.37.09.51.21.68.58,1.31,1.21,1.9,1.87.09.11.19.24.15.37-.04.15-.23.2-.38.23Zm7.54-23.54c-.35.55-1.43,1.32-1.59,1.41-.89.46-1.85.74-2.77,1.11-1.86.74-3.8,1.29-5.78,1.63-1.68.3-3.39.44-5.1.44-2.05,0-4.24-.33-6.2-.92.45-.13.9-.26,1.35-.39.1-.03.21-.06.29-.13.25-.21.12-.63-.08-.88-.2-.26-.48-.51-.47-.84,0-.29.24-.53.46-.72.91-.74,1.99-1.24,3.17-1.29.36-.02.74-.03,1.08.09.85.29,1.23,1.2,1.98,1.61.78.43,1.83.32,2.64.06,1.19-.39,2.34-1.06,3.58-.96.98.08,1.99.64,2.88.23.74-.34,1.22-1.3,2.03-1.27.53.02.98.49,1.51.44.25-.02.48-.16.73-.15.45.03.46.25.28.53Zm80.99,5.84c-.21.83-.36,1.72-.71,2.5-.28.64-.69,1.19-1.37,1.57-.88.49-2.07.68-2.36,1.78-.31,1.16.75,2.46.93,3.57-.08-.47-5.16-.83-5.73-.85-2.39-.09-4.8.15-7.17-.33-3.44-.69-6.74-1.94-10.18-2.68-1.16-.25-2.63-1-3.44.37-.28.49-.4,1.17-.93,1.35-1.28.45-1.75-1.94-2.11-2.65-.91-1.82-3.21-.97-4.15-2.73-.61-1.13-.13-4.18,1.18-4.75,2.1-.93,2.85,1.46,4.64,1.22.53-.07.95-.5,1.14-1,.28-.76-.28-2.98,1.12-2.98.58,0,1.08.66,1.64.5.61-.17.59-1.06.29-1.61s-.77-1.12-.62-1.73c.28-1.17,2.28-1.22,3.19-1.07.31.05.62.13.92.07.3-.06.59-.33.55-.64-.1-.72-.86-.93.08-1.52,1.36-.86,3.97-1.72,4.81-3.13.26-.43.47-1.14-.17-1.34-.76-.23-1.74.66-2.35,1.01-3.35,1.92-7.73,2.74-11.4,3.96-2.51.83-5,1.71-7.51,2.54-2.17.72-4.63,1.83-6.92,2.04-.99.09-2.12-.24-2.52-1.22-.25-.6-.07-1.33.48-1.67.63-.39,1.25,0,1.89.04,1.53.11,3.13-.56,4.04-1.8.5-.69.86-1.46,1.35-2.16,1.04-1.51,2.4-2.45,3.93-3.33.96-.55.29-1.64.68-2.45,1.65-3.43,5.41.22,7.59-.36,2.62-.7-1.17-3.02-1.7-3.88-.74-1.2,2.41-1.45,2.96-.92.38.36.23,1.84.44,2.41.08.21.17.41.34.55,1.16.96,4.2-1.08,4.7-2.13.14-.3.23-.62.44-.87.75-.86,3.13-.69,4.34-.62,1.84.1,3.66.37,5.44.84,3.78,1,7.33,2.7,10.83,4.42,2.9,1.43.79,4.09-1.79,3.87-.68-.06-1.3-.42-1.94-.65-1.05-.38-6.52-.45-6.26,1.63,0,.01,0,.02,0,.03.15.89,1.81,1.27,1.45,2.1-.4.92-1.79-.17-2.42-.07-1.19.17-1.33,1.92-2.55,2.39-2.43.93-5.35,1.21-7.89,1.78-.37.08-.8.22-.93.58-.13.36.12.74.36,1.05.79,1.01,1.74,2.11,2.98,2.53,1.56.53,3.07-1.13,4.48-1.63,1.16-.41,6.07-1.61,6.39.34.06.36-.01.73-.02,1.09-.05,2.3,2.64,4.06,4.69,2.83.99-.6,1.25-1.88,2.23-2.48,2.77-1.7,3.04,2.7,2.63,4.31Zm.31-30.34c-.15,1.57-.17,3.14-.21,4.71-.04,1.29.27,2.64.09,3.92-.11.81-1.9-.24-2.25-.39-1.58-.67-3.22-1.21-4.83-1.81-1.67-.62-3.39-1.11-5.13-1.54-1.54-.38-2.96-.65-4.54-.88-1.28-.19-.84-1.77-2.26-2.08.74.17-.16-.08-.04-.01-.7-.33.21-.98.7-1.05.7-.09,1.45.49,2.03.76,1.31.9.87-2.92.87-3.3,0-.73-.09-1.76.28-2.44.24-.44.93-.19,1.32-.11.45.09.9.17,1.34.26.27.21.57.38.91.5.58.21,1.24.09,1.79.28.13.05,0,1.27.16,1.57.24.42.52.97.89,1.3.39.48,1.05.56,1.65.73.51.14,1.04.59,1.61.35.62-.26.48-1.04.59-1.51.14-.65.3-1.38.56-1.99.22-.49.73-.53,1.25-.37.89.27,1.1.06,1.93-.13,1.98-.46,1.36,2.49,1.28,3.26Zm.42-15.14c-.03.83-.06,1.67-.09,2.5,0,.23.08.89-.16,1.08-.96.75-2.57.04-3.65-.02-.26-.01-.55-.08-.68-.31-.06-.11-.08-.23-.09-.36-.16-1.35-.12-2.82-.7-4.08-.53-1.15-2.55-2.5-3.67-1.26-.23.26-.36.61-.64.82-.23.17-.52.22-.8.26-.91.14-1.82.27-2.73.39-.67.09-1.37.17-2.01-.06-.69-.26-1.29-.83-2.05-.88-.76-.06-1.24.48-1.92.7-.59.19-1.23.01-1.81-.22-.86-.35-3.08-1.23-2.87-2.42.15-.88,1.42-1.35,2.15-1.59.84-.27,1.8-.31,2.6.09,1.51.74,1.4,2.62,3.55,1.86.67-.23,1.29-.58,1.85-1.01.33-.26.68-.56,1.11-.56.8,0,1.17,1.05,1.99.93.34-.05.58-.33.85-.53.75-.56,1.81-.53,2.7-.6,1.15-.09,2.3-.04,3.46-.06.77-.01,3.71-.07,3.7,1.23-.02,1.37-.03,2.71-.08,4.08Zm7.16,14.2c-.08-.76-.27-1.68-.06-2.43.15-.55,1.76-.17,2.28-.23,1.68-.17,3.9-.68,5.2-1.65,1.32-.98,3-1.24,4.69-1.18.58.02,1.74-.08,1.79.64-.71.72-.02,1.28.45,1.89.5.65.68,1.43.71,2.2-.53.5-1.33.28-2,.48-1.06.31-2.13.61-3.19.91-.59.17-1.68.7-2.33.47-1.39-.48,1.5-2.31,1.23-2.96-.67.01-1.55.98-2.03,1.32-.69.5-1.39.92-1.92,1.59-.19.82-.79,1.46-1.7,1.77-.53.18-1.49.39-1.89.73-1.35.27-1.15-2.89-1.23-3.54Zm36.66,26.59c-.19.25-.52.33-.82.39-.06.01-.13.03-.19.04-1.33.26-2.5.3-3.41,1.34-.41.4-1.04.49-1.59.38-.83-.16-1.53-.7-2.34-.93-1.46-.41-3.02-.59-4.34-1.36-.68-.4-1.28-.95-1.83-1.51-.65-.64-1.62-.26-2.26.15-1.21.76,2.02,2.29,2.47,2.53,1.88.97,1.53,2.69,2.18,4.42.29.76,3.69,4.24,2.02,4.83-1.07.37-1.9-.04-2.95.74-1.23.91-1.71,1.28-3.05.52-.91-.52-1.95-1.69-2.82-.4-.66.99.52,2.73-.7,3.43-.29.17-.63.21-.97.25-1.33.12-5.24.32-5.78-1.46-.08-.27.09-.57.34-.7.98-.53,2.13.71,3.22.26,1.65-.68.24-2.03-.77-2.31-1.52-.42-2.82-.46-4.03.62-1.67,1.48-6.75-.04-7.58-2.09-.84-2.08-.32-4.64.05-6.77.4-2.3.76-3.88,2.7-1.55.72.85,1.94,1.15,3.04,1,1.1-.16,2.11-.7,3.06-1.29,1.24-.78,2.37-1.36,3.72-1.89,1.11-.43,1.88-1.14,2.89-1.69,2.34-1.28,5.07-.06,7.55-.06,2.27,0,5.29-.76,7.27.73.19.14.37.31.59.38.76.21,1.4-.75,2.28-.61.83.13,1.63,1,2.04,1.68.17.29.22.68.02.95Zm20.97-11.47c-.02.11-.07.21-.14.29-.12.16-.31.29-.51.36-1.61.57-3.36-1.25-4.78-1.71-1.49-.48-2.65.36-2.24,1.95.62,2.38,2.99,1.26,4.5,2.44.67.52,1.16,1.24,1.65,1.94.06.09.13.2.11.31-.03.15-.21.21-.36.24-.78.15-1.65.12-2.42-.03-4.2-.83-8.51-1.83-12.21-4.07-3.5-2.11-5.78-5.5-10.3-5.17-1.75.13-3.53.45-5.25.1-2.84-.58-4.57-1.37-7.39-.12-.8.36-2.24.81-2.37,1.83-.16,1.2,2.02,2.11,1.34,3.28-.7,1.2-1.92-.31-2.78-.24-.9.07-1.44,1.33-2.34,1.25-1.5-.13-.88-2.51-2.57-2.72-2.38-.29-4.53-.03-6.82.11-1.47.09-1.33-.59-1.48-1.99-.18-1.77-.85-4.8-.07-6.43.67-1.39,2.71-2.47,4.01-3.14,3.21-1.67,6.8-2.43,10.25-3.42,1.33-.38,2.69-.76,4.08-.76,1.1,0,2.35.26,3.4.56,2.59.75-.02.7-.17,2.16-.05.52.41.99.92,1.08.52.08,1.04-.15,1.44-.48,1.95-1.67,1.47.12,3.12.69.69.24,1.41-.2,2.08-.48,1.3-.55,2.79-.46,4.06.13.53.24,1.07.52,1.65.49.96-.04.9-1.05,1.65-1.22,2.22-.51.58,1.86.87,2.45.14.29.51.34.79.49,1.16.6,0,1.65.39,2.51.15.32.51.48.86.52.35.04.7,0,1.05.02,1.31.11,2.12,1.22,3.2,1.8,1.31.7,2.75.7,4.21.66,1.66-.05,2.01,1.04,3.04,2.01,1.42,1.34,2.75,1.17,4.45,1.28.57.04,1.19.5,1.07,1.06Zm74.35,9.26c-.08.71-1.7-.09-2.03-.19-1.44-.48-2.92-.85-4.38-1.26-1.51-.43-3.07-.74-4.65-1.01-1.39-.23-2.67-.37-4.1-.47-1.15-.08-.8-1.48-2.09-1.67-.01,0-.02,0-.02,0-.65-.25.16-.87.59-.96.62-.13,1.32.33,1.84.53,1.21.69.71-2.6.7-2.94-.01-.64-.13-1.53.19-2.15.2-.4.83-.23,1.19-.19.41.05.81.09,1.21.13.25.16.53.29.83.37.53.15,1.12-.01,1.62.13.11.03.03,1.1.19,1.36.23.34.5.81.84,1.08.36.39.96.42,1.5.53.47.09.96.45,1.46.2.55-.27.41-.93.49-1.36.11-.57.23-1.22.46-1.78.18-.44.64-.51,1.11-.41.81.18.99-.02,1.74-.24,1.77-.53,1.28,2.08,1.23,2.76-.1,1.38-.08,2.75-.08,4.12,0,1.13.3,2.29.17,3.42Zm-21.55-22.41c.06-.18.13-.36.21-.53.08-.19.18-.37.31-.53.27-.35,1.74-.89,2.18-.97.26-.05.53.03.78.11.35.11.7.22,1.05.33.1.03.21.07.29.14.11.1.15.26.2.41.16.5.56.97,1.08.99.24,0,.47-.09.69-.18.74-.31,1.4-.59,2.05-1.04.55-.38,1-.88,1.72-.51.39.2.71.63,1.15.57.56-.08.93-.8,1.5-.98,1.73-.53,3.87-.55,5.66-.64,3.48-.16,2.42,3.8,2.63,6.06.04.4.11.83-.05,1.21-.37.92-2.62.61-3.33.54-.33-.03-.71-.12-.86-.41-.09-.18-.07-.39-.06-.59.08-1.46-1.63-5.71-3.59-4.02-.43.37-.78.89-1.32,1.06-.49.15-1.02,0-1.53.07-.79.12-1.45.83-2.25.79-.7-.03-1.26-.62-1.95-.77-1.18-.25-2.11.59-3.23.73-1.16.14-2.43-.4-3.23-1.22-.08-.08-.16-.18-.18-.29-.02-.11.02-.23.06-.34Zm21.69,41.94c-.13,1.2-.69,2.41-1.71,3.05-.62.39-1.41.58-1.85,1.18-.42.58-.38,1.39-.08,2.03.3.64.82,1.16,1.32,1.66-2.47.12-4.92-.57-7.39-.49-2.22.07-4.47.76-6.61.19-1.95-.52-3.74-2.08-5.73-1.72-.91.16-1.75.72-2.67.65-.71-.05-1.56-.44-2.05.08-.35.38-.38,1.15-.9,1.18-.26.01-.47-.2-.62-.41-.63-.91-.9-2.17-1.91-2.62-1.05-.47-2.22.27-3.15.95-.93.68-2.14,1.38-3.16.84-.72-.38-1.03-1.22-1.27-2-.12-.38-.21-.88.1-1.12.11-.08.25-.12.36-.2.38-.29.18-.88.19-1.36.01-.66.54-1.25,1.17-1.46.63-.21,1.33-.11,1.94.15.53.22,1,.56,1.54.75.54.19,1.19.21,1.63-.16.55-.46.54-1.3.58-2.02.04-.72.32-1.6,1.03-1.71.49-.08.96.25,1.45.22.52-.03.97-.52.96-1.03-.01-.47-.34-.87-.6-1.27-.26-.4-.46-.93-.21-1.33.11-.18.29-.3.47-.42.68-.45,1.45-.91,2.26-.78.32.05.62.2.94.23.3.02.66-.1.76-.41.11-.34-.2-.72-.29-1.04-.31-1.11,3.42-2.89,4.15-3.37.47-.31.95-.63,1.23-1.11.15-.26.23-.6.07-.85-.3-.46-1-.21-1.47.07-3.75,2.25-7.89,3.77-12.01,5.21-4.18,1.45-8.23,3.49-12.33,5.18-1.05.43-2.04.96-3.19,1.11-.93.11-1.9,0-2.72-.45-.65-.35-.29-1.46-.01-1.98.23-.43.68-.77,1.16-.72.51.05.95.53,1.45.43.49-.1.72-.67,1.14-.95.51-.33,1.2-.16,1.79-.29,1.69-.39.93-1.96,1.41-3.1.51-1.22,2.31-1.02,2.82-2.22.17-.4.15-.92.51-1.16.24-.16.55-.12.83-.12,1.33-.01,2.45-1.04,3.15-2.17.23-.38.45-.8.83-1.03.78-.47,1.51.09,2.29.13,1.18.06,1.98-.64,3.22-.28.66.19,1.3.48,1.98.57.44.06.94.01,1.23-.33,1.07-1.25-1.12-2.51-2.14-2.63-.6-.07-1.22.02-1.79-.17-.19-.07-.41-.22-.37-.43.02-.08.07-.15.12-.21.37-.45.76-.91,1.3-1.13.8-.32,2.06-.24,2.78.26,1,.71.36,2.1,1.56,2.73.59.31,1.41.16,1.77-.39.13-.19.19-.43.35-.6.45-.48,1.45-.22,1.7-.91.43-1.21,1.4-1.44,2.65-1.6,5.61-.72,12.15.87,17.07,3.61.51.28,1.07.74.95,1.31-.06.31-.32.54-.58.73-.83.61-2.05,1.41-3.12,1.06-.34-.11-.64-.34-.96-.49-1.35-.66-3.01.05-4.3.55-.37.14-.76.29-1.03.58-.27.29-.4.76-.19,1.09.29.45,1.07.52,1.11,1.13.02.3-.18.6-.47.7-.64.21-1.33-.54-1.94-.28-.39.17-.52.65-.7,1.03-.49,1.02-1.64,1.55-2.74,1.82-1.75.42-3.48,1.06-5.22,1.42-.3.06-.61.09-.87.26-.21.14-.37.38-.36.63.01.19.12.37.24.52.36.47.82.72,1.31,1.01.51.3.62,1.07,1.25,1.22.28.07.53-.04.8-.07.23-.02.46.05.69,0,.52-.09.97-.48,1.34-.84.31-.3.63-.61.94-.91.25-.24.51-.6.32-.88.27-.04.48.2.67.38.8.73,2.14.68,2.99.02.3-.23.56-.53.91-.68.35-.15.84-.09,1,.25.08.18.06.41.21.55.2.2.6.07.8.28.18.2.04.52-.16.69-.2.17-.47.28-.61.5-.21.32-.09.78.18,1.05.27.28.65.42,1.01.55.6.22,1.21.43,1.81.65.45.16.92.33,1.4.28.48-.05.97-.37,1.04-.84.04-.24-.02-.51.12-.7.19-.25.58-.18.88-.27.71-.23.7-1.23.53-1.97.69-.09,1.09.73,1.27,1.41.3,1.17.56,2.37.43,3.57Zm6.63-27.55c-.04-.28-.07-.56-.09-.84-.03-.27-.05-.55-.06-.82-.02-.39-.22-1.21.14-1.48.48-.37,1.27-.13,1.83-.18.73-.07,1.44-.23,2.14-.46.73-.25,1.45-.57,2.1-.98.68-.42,1.32-.9,2.06-1.2,1.05-.43,2.21-.45,3.35-.47.35,0,.89.01.94.46-.57.62,0,1.12.43,1.61.42.49.66,1.12.68,1.76,0,.05,0,.11-.02.16-.02.04-.06.07-.1.1-.31.2-.68.27-1.04.33-.4.07-.78.17-1.17.29-.83.26-1.66.56-2.47.89-.61.24-1.36.53-1.95.1-.16-.12-.29-.29-.35-.47-.07-.2.03-.46-.08-.63-.27-.43-1.15.4-1.33.61-.66.78-.85,1.88-1.76,2.45-.41.25-.88.35-1.32.52-.35.14-.71.57-1.12.44-.7-.23-.69-1.59-.77-2.17Zm32.52,20.6c-1,.26-2.2-.05-2.83.99-.46.76-.67,1.63-1.04,2.43-.25.55-.91,1.19-.86,1.83,0,.02,0,.04,0,.06.08.52.62.83,1.11,1.03.41.17.85.17,1.28.26.34.07.7.22.87.53.52.92-.99,1.41-1.37,2.05-.24.41-.36.94-.78,1.17-.34.18-.76.09-1.09-.1-.7-.39-1.33-1.25-2.14-1.39-.97-.17-1.91.34-2.79.66-.48.17-1.04.18-1.49.43-.8.43-.32.43-1.6.59-.9.11-2.24-1.54-3.14-.39-.76.98.02,2.12-.17,3.19-.03.17-.12.35-.28.44-.11.06-.23.08-.36.09-.7.08-2.55.45-3.01-.31-.17-.27-.09-.63.07-.9.37-.63,1.17-1.21.47-1.93-.29-.3-.7-.43-1.11-.51-1.1-.22-2.61-.25-3.59.41-.4.27-.53.79-.95,1.03-.62.36-.84-.3-1.18-.66-.31-.33-.82-.38-1.27-.33-.82.09-1.68.34-2.47-.06-.69-.35-1.07-1.12-1.16-1.88-.22-1.97.33-4.21.53-6.18.03-.27.06-.55.16-.8.1-.25.3-.48.56-.56.76-.23,1.66,1.24,2.27,1.56.73.38,1.58.56,2.41.47.45-.05.9-.17,1.25-.45.73-.59.61-2.31,1.55-2.53.52-.12.98.33,1.51.17.41-.13.64-.57.98-.84.44-.36,1.01-.42,1.53-.59.59-.2,1.07-.61,1.69-.74.56-.12,1.13-.01,1.7,0,.57.02,1.1-.12,1.66-.22.75-.14,1.14.46,1.83.54.63.07,1.18-.4,1.78-.5.73-.12,1.48.09,2.21-.13,1.12-.33,2.09-.83,3.27-.39.42.16.82.4,1.27.43.67.03,1.22-.29,1.89-.07.7.24,1.39.77,2.04,1.13.05.03-1.05.92-1.22.96Z" fill="#0b6a36" stroke-width="0"/></g></svg>