<svg viewBox="0 0 395.4 145.77" xmlns="http://www.w3.org/2000/svg"><path d="m172.23 0h84.9v83.37h-84.9z" fill="#fec057"/><path d="m174.71 2.62h79.96v78.35h-79.96z" fill="#fff"/><path d="m1.12 74.57h18.04l9.47 45.08 10.23-45.08h13.6l10.24 45.29 9.47-45.29h17.93l-18.39 69.4h-15.59l-10.6-44.93-10.42 44.93h-16.04z"/><path d="m141 91.82h-15.61v5.51c-2.07-3.18-6.88-7.3-15.46-7.3-13.96 0-26.27 10.65-26.27 27.84 0 14.98 9.68 27.89 26.27 27.89 6.12 0 12.63-2.34 15.46-7.39v5.59h15.61v-52.15m-41.73 26.23c0-5.96 3.96-13.51 12.94-13.51 6.58 0 10.17 3.69 11.84 7.29 1.04 2.14 1.51 4.51 1.34 6.87-.19 2.37-.84 4.65-2.17 6.71-1.99 3.22-5.37 5.87-10.94 5.87-9.42 0-13.02-8.33-13.02-13.14v-.08z"/><path d="m151.55 103.7h-7.7v-11.86h7.7v-17.38h15.63v17.38h7.52v11.86h-7.52v40.27h-15.63z"/><path d="m210.29 130.29c-5.17 3.25-12.51 2.51-16.01-1.8l32.84-20.64c-4.07-8.79-10.17-14.77-19.48-17.2-6.87-1.8-14.32-.75-21.07 3.47-13.46 8.43-16.04 25.94-8.31 38.21 8.21 13.08 25.44 16.62 38.06 8.65 2.18-1.33 4.09-2.98 5.75-4.82v-16.29c-3.07 4.35-9.04 8.89-11.78 10.43m-22.16-11.96c-.96-2.23-1.34-8.83 5.52-13.12 6.82-4.29 12.61-1.13 14.23.73z"/><path d="m229.46 91.82h14.68v5.82c1.48-2.82 4.19-7.61 13.22-7.61v15.64h-.58c-7.98 0-11.73 2.93-11.73 10.27v28.03h-15.59z"/><path d="m261.79 74.57h15.61v69.4h-15.61z"/><path d="m280.09 117.82c0 12.73 9.13 27.6 28.09 27.6s28.1-14.88 28.1-27.6-9.12-27.61-28.1-27.61-28.09 14.86-28.09 27.5zm15.64-.11c0-7.57 5.69-13.1 12.45-13.1s12.49 5.54 12.49 13.1-5.73 13.14-12.49 13.14-12.45-5.54-12.45-13.03z"/><path d="m339.21 117.82c0 12.73 9.13 27.6 28.08 27.6s28.11-14.88 28.11-27.6-9.13-27.61-28.11-27.61-28.08 14.86-28.08 27.5zm15.6-.11c0-7.57 5.73-13.1 12.48-13.1s12.47 5.54 12.47 13.1-5.7 13.14-12.47 13.14-12.48-5.54-12.48-13.03z"/><path d="m180.51 8.3h68.42v67.13h-68.42z"/><g fill="#fec057"><path d="m180.51 14.15h68.42v1.61h-68.42z"/><path d="m180.51 20.73h68.42v1.63h-68.42z"/><path d="m180.51 26.56h68.42v1.62h-68.42z"/><path d="m180.51 32.47h68.42v1.62h-68.42z"/><path d="m180.51 38.77h68.42v1.62h-68.42z"/><path d="m180.51 44.75h68.42v1.63h-68.42z"/><path d="m180.51 50.93h68.42v1.65h-68.42z"/><path d="m180.51 56.82h68.42v1.65h-68.42z"/><path d="m180.51 63.14h68.42v1.64h-68.42z"/><path d="m180.51 69.17h68.42v1.6h-68.42z"/></g><path d="m179.83 23.61 13.27 21.29 11.96-17.17 11.29 17.38c11.5-19.12 20.19-31.29 33.25-34.54v13.29c-9.58 1.95-25.44 26.69-33.25 40.16l-11.29-18.04-12.39 18.25-13.04-19.13.21-21.5" fill="#fff"/><path d="m4.36 49.59h-4.36v-2.65h11.63v2.65h-4.31v16.19h-2.96z" fill="#231f20"/><path d="m14.92 65.78v-18.84h2.98v7.96h8.1v-7.96h2.99v18.84h-2.99v-8.23h-8.1v8.23z" fill="#231f20"/><path d="m33.93 46.94h10.49v2.65h-7.52v5.37h7.41v2.61h-7.41v5.55h7.52v2.66h-10.49z" fill="#231f20"/><path d="m75.53 60.02c-1.17 3.41-4.68 6.08-8.95 6.08-5.67 0-9.83-4.45-9.83-9.76s4-9.71 9.81-9.71c5.06 0 8.1 3.57 8.98 6.14h-3.16c-.65-1.2-2.53-3.51-5.83-3.51-4.02 0-6.82 3.25-6.82 7.06s2.88 7.11 6.84 7.11c3.64 0 5.39-2.73 5.82-3.41h3.16" fill="#231f20"/><path d="m79.52 46.94h2.96v18.84h-2.96z" fill="#231f20"/><path d="m90.14 49.59h-4.34v-2.65h11.64v2.65h-4.31v16.19h-2.99z" fill="#231f20"/><path d="m105.12 59.08-5.92-12.14h3.25l4.16 9.32 4.14-9.32h3.23l-5.89 12.14v6.7h-2.97z" fill="#231f20"/><path d="m125.29 56.47c0 5.18 4.13 9.63 9.8 9.63s9.87-4.34 9.87-9.75-4.22-9.72-9.82-9.72c-5.27 0-9.85 3.93-9.85 9.83m2.98-.16c0-3.79 2.79-7.04 6.87-7.04s6.86 3.42 6.86 7.08-2.73 7.06-6.84 7.06-6.89-3.16-6.89-7.08v-.03z" fill="#231f20"/><path d="m149.04 46.94h9.81v2.65h-6.81v5.51h6.69v2.63h-6.69v8.05h-3z" fill="#231f20"/></svg>