<?xml version="1.0" encoding="UTF-8"?>
<svg id="Layer_1" xmlns="http://www.w3.org/2000/svg" viewBox="0 0 340.04 210.75">
  <defs>
    <style>
      .cls-1 {
        fill: #82be2a;
      }

      .cls-2 {
        fill: #009fe3;
      }

      .cls-3 {
        fill: #e7b700;
      }

      .cls-4 {
        fill: #002e57;
      }
    </style>
  </defs>
  <g>
    <path class="cls-3" d="M217.22,94.93c-1.54,0-2.91-1.01-3.35-2.5-.44-1.49.15-3.1,1.46-3.94,2.99-2.11,31.63-31.69,18.83-52.21-3.07-4.92-8.55-9.2-14.98-9.67,5.46,7.9,12.24,22.89,4.7,42.43-.69,1.8-2.71,2.7-4.52,2-1.8-.69-2.7-2.72-2-4.52,8.19-21.23-3.45-36.03-7.21-40.06-1.02-1.1-1.37-2.29-1.02-3.55.33-1.17,1.24-2.09,2.41-2.43,12.32-3.51,23.22,3.54,28.55,12.09,12,19.23-3.7,42.96-13.85,54.67.34-.05.68-.1,1.02-.16,3.25-.52,6.46-1.29,9.54-2.29l2.01-.62c1.85-.57,3.8.47,4.37,2.31.57,1.84-.47,3.8-2.31,4.37l-1.96.6c-3.38,1.09-6.94,1.95-10.54,2.52-3.63.58-7.38.9-11.12.93h-.03Z"/>
    <path class="cls-1" d="M240.86,120.31c-.2,0-.39-.02-.59-.05-1.32-.22-2.39-1.18-2.77-2.46-.44-1.51-4.19-15.21.19-31.58,2.73-10.21,6.54-17.11,10.21-23.79,3.54-6.43,6.89-12.5,9.44-21.53,3.22-11.39,3.98-23.82,2.28-36.95-.2-1.5.6-2.96,1.96-3.61,1.36-.65,2.99-.35,4.04.75,4.65,4.9,19.54,22.66,16.23,45.45-2.77,19-17.23,35.48-37.85,43.23-1.69,7.29-1.6,13.92-1.12,18.67,1.14-1.25,2.39-2.42,4.02-3.7,1.54-1.2,3.28-2.43,5.49-3.88,3.59-2.35,8.22-4.42,11.47-5.74,1.79-.73,3.83.13,4.55,1.92s-.13,3.83-1.92,4.55c-2.96,1.2-7.15,3.06-10.27,5.11-2.05,1.34-3.65,2.47-5.03,3.55-3.05,2.38-4.31,4.13-7.34,8.34l-.18.26c-.66.92-1.72,1.46-2.84,1.46ZM267.48,14.84c.23,9.78-.91,19.14-3.4,27.95-2.77,9.81-6.47,16.52-10.04,23.01-2.66,4.82-5.2,9.44-7.37,15.24,15.48-7.45,26.11-20.62,28.27-35.51,1.82-12.47-2.8-23.32-7.47-30.69Z"/>
    <path class="cls-2" d="M263.46,136.63c-1.73,0-3.24-1.29-3.46-3.05-1.6-12.57-.83-24.82,2.28-36.44,0-.04.02-.08.03-.11,3.65-12,10.32-20.11,15.27-24.8,6.29-5.96,11.76-9.24,17.55-12.72,4.82-2.89,10.28-6.17,17.11-11.55,11.67-9.2,17.28-21.14,20.99-29.05.68-1.45,2.25-2.25,3.82-1.95,1.57.3,2.73,1.62,2.83,3.21.8,12.88-1.53,25.69-6.75,37.06-1.59,3.47-4.56,9.94-10.58,16.74-13.58,15.34-35.35,21.5-45.81,24.46-.58.16-1.32.35-2.14.55-1.38.34-2.95.72-4.21,1.15-.37.12-1.02.36-1.84.67-2.47,10.18-3.02,20.9-1.62,31.9.24,1.91-1.11,3.66-3.03,3.91-.15.02-.3.03-.45.03ZM332.29,35.63c-3.75,5.97-8.77,12.35-15.72,17.82-7.18,5.65-12.84,9.05-17.84,12.05-5.69,3.42-10.6,6.36-16.33,11.8-3.38,3.2-7.67,8.23-10.92,15.27.51-.13,1.01-.25,1.47-.37.73-.18,1.39-.34,1.9-.49,9.82-2.78,30.26-8.57,42.48-22.37,5.33-6.02,8.02-11.88,9.46-15.02,2.7-5.88,4.54-12.19,5.5-18.69Z"/>
  </g>
  <path class="cls-4" d="M252.01,148.72,142.19,135.37c0,3.87,3.06,7.01,7.01,7.01s7.01-3.06,7.01-7.01-3.06-7.01-7.01-7.01-7.01,3.15-7.01,7.01h0ZM258,210.75l28.05-62.04h-13.85l-8.99,20.32-8.45-20.32h-14.02l15.82,34.97-12.32,27.06h13.76ZM174.38,136.62l-11.02,11.95v26.67c.4,11.02,4.13,16.04,14.71,16.04,4.2,0,8.39-.8,12.5-2.3v-9.83c-2.88,1.35-5.48,2.07-7.91,2.07-5.3,0-6.29-2.25-6.29-8v-15.37h14.21v-9.08h-14.21v-12.14h-1.98ZM241.34,169.43c0,13.31-8.99,21.58-24.9,21.58-5.84,0-12.23-1.08-19.51-3.24v-58.6h13.04v22.46c3.33-2.7,7.1-3.96,11.78-3.96,12.05,0,19.6,8.36,19.6,21.76ZM227.49,169.43c0-7.19-3.96-11.51-10.34-11.51-2.43,0-4.85.9-7.19,2.79v17.53c2.25,1.8,4.58,2.7,7.19,2.7,6.38,0,10.34-4.41,10.34-11.51ZM155.76,190.48v-41.63h-13.13v41.63h13.13ZM93.76,190.48h13.13v-26.52c2.52-4.4,5.66-6.56,9.26-6.56,4.14,0,5.84,2.79,5.84,8.54v24.55h13.13v-26.34c0-10.52-5.12-16.09-14.12-16.09-5.66,0-9.89,1.71-14.11,6.02v-24.99h-13.13v61.41h0ZM65.11,190.48l24.65-61.32h-16.06l-11.65,32.91-11.82-32.91h-10.7l-11.82,32.73-11.73-32.73H0l24.65,61.32h6.29l13.93-38.39,13.85,38.39h6.38Z"/>
</svg>